<?xml version="1.0" encoding="utf-8" standalone="no"?>
<!DOCTYPE svg PUBLIC "-//W3C//DTD SVG 1.1//EN"
  "http://www.w3.org/Graphics/SVG/1.1/DTD/svg11.dtd">
<svg xmlns:xlink="http://www.w3.org/1999/xlink" width="856.715937pt" height="351.962344pt" viewBox="0 0 856.715937 351.962344" xmlns="http://www.w3.org/2000/svg" version="1.1">
 <metadata>
  <rdf:RDF xmlns:dc="http://purl.org/dc/elements/1.1/" xmlns:cc="http://creativecommons.org/ns#" xmlns:rdf="http://www.w3.org/1999/02/22-rdf-syntax-ns#">
   <cc:Work>
    <dc:type rdf:resource="http://purl.org/dc/dcmitype/StillImage"/>
    <dc:date>2026-05-11T18:06:52.009561</dc:date>
    <dc:format>image/svg+xml</dc:format>
    <dc:creator>
     <cc:Agent>
      <dc:title>Matplotlib v3.10.8, https://matplotlib.org/</dc:title>
     </cc:Agent>
    </dc:creator>
   </cc:Work>
  </rdf:RDF>
 </metadata>
 <defs>
  <style type="text/css">*{stroke-linejoin: round; stroke-linecap: butt}</style>
 </defs>
 <g id="figure_1">
  <g id="patch_1">
   <path d="M 0 351.962344 
L 856.715937 351.962344 
L 856.715937 0 
L 0 0 
z
" style="fill: #ffffff"/>
  </g>
  <g id="axes_1">
   <g id="patch_2">
    <path d="M 47.933438 313.438281 
L 418.173438 313.438281 
L 418.173438 21.558281 
L 47.933438 21.558281 
z
" style="fill: #ffffff"/>
   </g>
   <g id="FillBetweenPolyCollection_1">
    <defs>
     <path id="m1661110796" d="M 47.933438 -152.90303 
L 47.933438 -123.107439 
L 58.822849 -97.226776 
L 69.712261 -88.57434 
L 80.601673 -84.564889 
L 91.491085 -84.408152 
L 102.380496 -82.841907 
L 113.269908 -83.472102 
L 124.15932 -81.483091 
L 135.048732 -77.096472 
L 145.938143 -75.937155 
L 156.827555 -73.761592 
L 167.716967 -74.658387 
L 178.606379 -71.970721 
L 189.49579 -74.66204 
L 200.385202 -72.889132 
L 211.274614 -72.667579 
L 222.164026 -72.160291 
L 233.053438 -72.690274 
L 243.942849 -69.479051 
L 254.832261 -72.366244 
L 265.721673 -68.01419 
L 276.611085 -69.204954 
L 287.500496 -68.303106 
L 298.389908 -69.383496 
L 309.27932 -67.410431 
L 320.168732 -67.501607 
L 331.058143 -69.682359 
L 341.947555 -67.816655 
L 352.836967 -65.157302 
L 363.726379 -68.656947 
L 374.61579 -66.66656 
L 385.505202 -65.982972 
L 396.394614 -66.178146 
L 407.284026 -65.957133 
L 418.173438 -63.993101 
L 418.173438 -90.380145 
L 418.173438 -90.380145 
L 407.284026 -90.426645 
L 396.394614 -94.226697 
L 385.505202 -90.400806 
L 374.61579 -91.727751 
L 363.726379 -93.758429 
L 352.836967 -91.226476 
L 341.947555 -93.593455 
L 331.058143 -94.743549 
L 320.168732 -92.903237 
L 309.27932 -95.004945 
L 298.389908 -95.042413 
L 287.500496 -95.117536 
L 276.611085 -94.215689 
L 265.721673 -93.39592 
L 254.832261 -96.08073 
L 243.942849 -95.952124 
L 233.053438 -95.7567 
L 222.164026 -98.297215 
L 211.274614 -99.80046 
L 200.385202 -100.584173 
L 189.49579 -96.800733 
L 178.606379 -97.48152 
L 167.716967 -99.820185 
L 156.827555 -100.716979 
L 145.938143 -102.562482 
L 135.048732 -102.408431 
L 124.15932 -105.058676 
L 113.269908 -108.095997 
L 102.380496 -106.715659 
L 91.491085 -108.165213 
L 80.601673 -109.013743 
L 69.712261 -115.056955 
L 58.822849 -122.48878 
L 47.933438 -152.90303 
z
" style="stroke: #4878cf; stroke-opacity: 0.13"/>
    </defs>
    <g clip-path="url(#p2ee7cd7968)">
     <use xlink:href="#m1661110796" x="0" y="351.962344" style="fill: #4878cf; fill-opacity: 0.13; stroke: #4878cf; stroke-opacity: 0.13"/>
    </g>
   </g>
   <g id="FillBetweenPolyCollection_2">
    <defs>
     <path id="m894e7cd7d2" d="M 47.933438 -313.943464 
L 47.933438 -245.552101 
L 58.822849 -234.041248 
L 69.712261 -239.859248 
L 80.601673 -207.872964 
L 91.491085 -210.665538 
L 102.380496 -200.285824 
L 113.269908 -188.545011 
L 124.15932 -169.96126 
L 135.048732 -154.938364 
L 145.938143 -143.411299 
L 156.827555 -140.751188 
L 167.716967 -133.131708 
L 178.606379 -126.34746 
L 189.49579 -114.517423 
L 200.385202 -111.531777 
L 211.274614 -100.249334 
L 222.164026 -99.661632 
L 233.053438 -88.640937 
L 243.942849 -87.521361 
L 254.832261 -82.545155 
L 265.721673 -75.584917 
L 276.611085 -70.625107 
L 287.500496 -68.10935 
L 298.389908 -65.341451 
L 309.27932 -61.564849 
L 320.168732 -60.013612 
L 331.058143 -60.346128 
L 341.947555 -58.344994 
L 352.836967 -59.666451 
L 363.726379 -60.082605 
L 374.61579 -59.66716 
L 385.505202 -56.192884 
L 396.394614 -57.426606 
L 407.284026 -60.675351 
L 418.173438 -57.153994 
L 418.173438 -83.145523 
L 418.173438 -83.145523 
L 407.284026 -85.655764 
L 396.394614 -84.883445 
L 385.505202 -83.101367 
L 374.61579 -85.658689 
L 363.726379 -86.248511 
L 352.836967 -87.66993 
L 341.947555 -84.970322 
L 331.058143 -87.99552 
L 320.168732 -84.30697 
L 309.27932 -86.776799 
L 298.389908 -90.037061 
L 287.500496 -89.279695 
L 276.611085 -93.800802 
L 265.721673 -95.877856 
L 254.832261 -101.98608 
L 243.942849 -110.078336 
L 233.053438 -108.958759 
L 222.164026 -120.053924 
L 211.274614 -115.445157 
L 200.385202 -121.25224 
L 189.49579 -128.319257 
L 178.606379 -144.636677 
L 167.716967 -156.952489 
L 156.827555 -171.448867 
L 145.938143 -194.92568 
L 135.048732 -191.440745 
L 124.15932 -210.596904 
L 113.269908 -236.24487 
L 102.380496 -241.593585 
L 91.491085 -259.361327 
L 80.601673 -281.253961 
L 69.712261 -315.615252 
L 58.822849 -310.375323 
L 47.933438 -313.943464 
z
" style="stroke: #2ca02c; stroke-opacity: 0.13"/>
    </defs>
    <g clip-path="url(#p2ee7cd7968)">
     <use xlink:href="#m894e7cd7d2" x="0" y="351.962344" style="fill: #2ca02c; fill-opacity: 0.13; stroke: #2ca02c; stroke-opacity: 0.13"/>
    </g>
   </g>
   <g id="FillBetweenPolyCollection_3">
    <defs>
     <path id="m8a9c9ee7ea" d="M 47.933438 -317.13679 
L 47.933438 -245.374575 
L 58.822849 -245.275552 
L 69.712261 -229.711255 
L 80.601673 -215.050132 
L 91.491085 -215.939492 
L 102.380496 -196.431372 
L 113.269908 -178.968969 
L 124.15932 -180.232046 
L 135.048732 -167.894663 
L 145.938143 -155.036178 
L 156.827555 -145.540162 
L 167.716967 -134.970113 
L 178.606379 -121.813089 
L 189.49579 -107.00171 
L 200.385202 -92.234225 
L 211.274614 -85.597179 
L 222.164026 -82.538587 
L 233.053438 -78.444796 
L 243.942849 -76.351947 
L 254.832261 -73.904434 
L 265.721673 -68.66775 
L 276.611085 -63.755344 
L 287.500496 -61.404586 
L 298.389908 -57.235758 
L 309.27932 -59.887734 
L 320.168732 -57.617805 
L 331.058143 -57.234102 
L 341.947555 -58.162186 
L 352.836967 -54.257673 
L 363.726379 -53.485764 
L 374.61579 -55.670418 
L 385.505202 -53.975347 
L 396.394614 -54.665151 
L 407.284026 -51.791335 
L 418.173438 -53.135854 
L 418.173438 -78.116267 
L 418.173438 -78.116267 
L 407.284026 -77.450253 
L 396.394614 -80.608035 
L 385.505202 -79.287306 
L 374.61579 -81.613301 
L 363.726379 -79.776889 
L 352.836967 -81.015513 
L 341.947555 -83.142598 
L 331.058143 -81.054883 
L 320.168732 -83.686979 
L 309.27932 -85.438115 
L 298.389908 -84.069026 
L 287.500496 -84.926529 
L 276.611085 -91.623168 
L 265.721673 -102.795023 
L 254.832261 -111.632067 
L 243.942849 -113.205619 
L 233.053438 -118.149634 
L 222.164026 -124.108506 
L 211.274614 -128.086778 
L 200.385202 -136.528727 
L 189.49579 -151.919231 
L 178.606379 -158.218444 
L 167.716967 -174.214144 
L 156.827555 -200.838947 
L 145.938143 -215.469323 
L 135.048732 -244.832022 
L 124.15932 -247.573634 
L 113.269908 -251.85251 
L 102.380496 -269.574427 
L 91.491085 -293.292758 
L 80.601673 -293.176852 
L 69.712261 -314.705317 
L 58.822849 -313.214748 
L 47.933438 -317.13679 
z
" style="stroke: #d65f5f; stroke-opacity: 0.13"/>
    </defs>
    <g clip-path="url(#p2ee7cd7968)">
     <use xlink:href="#m8a9c9ee7ea" x="0" y="351.962344" style="fill: #d65f5f; fill-opacity: 0.13; stroke: #d65f5f; stroke-opacity: 0.13"/>
    </g>
   </g>
   <g id="matplotlib.axis_1">
    <g id="xtick_1">
     <g id="line2d_1">
      <path d="M 91.491085 313.438281 
L 91.491085 21.558281 
" clip-path="url(#p2ee7cd7968)" style="fill: none; stroke: #b0b0b0; stroke-opacity: 0.3; stroke-width: 0.8; stroke-linecap: square"/>
     </g>
     <g id="line2d_2">
      <defs>
       <path id="ma223fe85bf" d="M 0 0 
L 0 3.5 
" style="stroke: #000000; stroke-width: 0.8"/>
      </defs>
      <g>
       <use xlink:href="#ma223fe85bf" x="91.491085" y="313.438281" style="stroke: #000000; stroke-width: 0.8"/>
      </g>
     </g>
     <g id="text_1">
      <!-- 5 -->
      <g transform="translate(88.309835 328.036719) scale(0.1 -0.1)">
       <defs>
        <path id="DejaVuSans-35" d="M 691 4666 
L 3169 4666 
L 3169 4134 
L 1269 4134 
L 1269 2991 
Q 1406 3038 1543 3061 
Q 1681 3084 1819 3084 
Q 2600 3084 3056 2656 
Q 3513 2228 3513 1497 
Q 3513 744 3044 326 
Q 2575 -91 1722 -91 
Q 1428 -91 1123 -41 
Q 819 9 494 109 
L 494 744 
Q 775 591 1075 516 
Q 1375 441 1709 441 
Q 2250 441 2565 725 
Q 2881 1009 2881 1497 
Q 2881 1984 2565 2268 
Q 2250 2553 1709 2553 
Q 1456 2553 1204 2497 
Q 953 2441 691 2322 
L 691 4666 
z
" transform="scale(0.015625)"/>
       </defs>
       <use xlink:href="#DejaVuSans-35"/>
      </g>
     </g>
    </g>
    <g id="xtick_2">
     <g id="line2d_3">
      <path d="M 145.938143 313.438281 
L 145.938143 21.558281 
" clip-path="url(#p2ee7cd7968)" style="fill: none; stroke: #b0b0b0; stroke-opacity: 0.3; stroke-width: 0.8; stroke-linecap: square"/>
     </g>
     <g id="line2d_4">
      <g>
       <use xlink:href="#ma223fe85bf" x="145.938143" y="313.438281" style="stroke: #000000; stroke-width: 0.8"/>
      </g>
     </g>
     <g id="text_2">
      <!-- 10 -->
      <g transform="translate(139.575643 328.036719) scale(0.1 -0.1)">
       <defs>
        <path id="DejaVuSans-31" d="M 794 531 
L 1825 531 
L 1825 4091 
L 703 3866 
L 703 4441 
L 1819 4666 
L 2450 4666 
L 2450 531 
L 3481 531 
L 3481 0 
L 794 0 
L 794 531 
z
" transform="scale(0.015625)"/>
        <path id="DejaVuSans-30" d="M 2034 4250 
Q 1547 4250 1301 3770 
Q 1056 3291 1056 2328 
Q 1056 1369 1301 889 
Q 1547 409 2034 409 
Q 2525 409 2770 889 
Q 3016 1369 3016 2328 
Q 3016 3291 2770 3770 
Q 2525 4250 2034 4250 
z
M 2034 4750 
Q 2819 4750 3233 4129 
Q 3647 3509 3647 2328 
Q 3647 1150 3233 529 
Q 2819 -91 2034 -91 
Q 1250 -91 836 529 
Q 422 1150 422 2328 
Q 422 3509 836 4129 
Q 1250 4750 2034 4750 
z
" transform="scale(0.015625)"/>
       </defs>
       <use xlink:href="#DejaVuSans-31"/>
       <use xlink:href="#DejaVuSans-30" transform="translate(63.623047 0)"/>
      </g>
     </g>
    </g>
    <g id="xtick_3">
     <g id="line2d_5">
      <path d="M 200.385202 313.438281 
L 200.385202 21.558281 
" clip-path="url(#p2ee7cd7968)" style="fill: none; stroke: #b0b0b0; stroke-opacity: 0.3; stroke-width: 0.8; stroke-linecap: square"/>
     </g>
     <g id="line2d_6">
      <g>
       <use xlink:href="#ma223fe85bf" x="200.385202" y="313.438281" style="stroke: #000000; stroke-width: 0.8"/>
      </g>
     </g>
     <g id="text_3">
      <!-- 15 -->
      <g transform="translate(194.022702 328.036719) scale(0.1 -0.1)">
       <use xlink:href="#DejaVuSans-31"/>
       <use xlink:href="#DejaVuSans-35" transform="translate(63.623047 0)"/>
      </g>
     </g>
    </g>
    <g id="xtick_4">
     <g id="line2d_7">
      <path d="M 254.832261 313.438281 
L 254.832261 21.558281 
" clip-path="url(#p2ee7cd7968)" style="fill: none; stroke: #b0b0b0; stroke-opacity: 0.3; stroke-width: 0.8; stroke-linecap: square"/>
     </g>
     <g id="line2d_8">
      <g>
       <use xlink:href="#ma223fe85bf" x="254.832261" y="313.438281" style="stroke: #000000; stroke-width: 0.8"/>
      </g>
     </g>
     <g id="text_4">
      <!-- 20 -->
      <g transform="translate(248.469761 328.036719) scale(0.1 -0.1)">
       <defs>
        <path id="DejaVuSans-32" d="M 1228 531 
L 3431 531 
L 3431 0 
L 469 0 
L 469 531 
Q 828 903 1448 1529 
Q 2069 2156 2228 2338 
Q 2531 2678 2651 2914 
Q 2772 3150 2772 3378 
Q 2772 3750 2511 3984 
Q 2250 4219 1831 4219 
Q 1534 4219 1204 4116 
Q 875 4013 500 3803 
L 500 4441 
Q 881 4594 1212 4672 
Q 1544 4750 1819 4750 
Q 2544 4750 2975 4387 
Q 3406 4025 3406 3419 
Q 3406 3131 3298 2873 
Q 3191 2616 2906 2266 
Q 2828 2175 2409 1742 
Q 1991 1309 1228 531 
z
" transform="scale(0.015625)"/>
       </defs>
       <use xlink:href="#DejaVuSans-32"/>
       <use xlink:href="#DejaVuSans-30" transform="translate(63.623047 0)"/>
      </g>
     </g>
    </g>
    <g id="xtick_5">
     <g id="line2d_9">
      <path d="M 309.27932 313.438281 
L 309.27932 21.558281 
" clip-path="url(#p2ee7cd7968)" style="fill: none; stroke: #b0b0b0; stroke-opacity: 0.3; stroke-width: 0.8; stroke-linecap: square"/>
     </g>
     <g id="line2d_10">
      <g>
       <use xlink:href="#ma223fe85bf" x="309.27932" y="313.438281" style="stroke: #000000; stroke-width: 0.8"/>
      </g>
     </g>
     <g id="text_5">
      <!-- 25 -->
      <g transform="translate(302.91682 328.036719) scale(0.1 -0.1)">
       <use xlink:href="#DejaVuSans-32"/>
       <use xlink:href="#DejaVuSans-35" transform="translate(63.623047 0)"/>
      </g>
     </g>
    </g>
    <g id="xtick_6">
     <g id="line2d_11">
      <path d="M 363.726379 313.438281 
L 363.726379 21.558281 
" clip-path="url(#p2ee7cd7968)" style="fill: none; stroke: #b0b0b0; stroke-opacity: 0.3; stroke-width: 0.8; stroke-linecap: square"/>
     </g>
     <g id="line2d_12">
      <g>
       <use xlink:href="#ma223fe85bf" x="363.726379" y="313.438281" style="stroke: #000000; stroke-width: 0.8"/>
      </g>
     </g>
     <g id="text_6">
      <!-- 30 -->
      <g transform="translate(357.363879 328.036719) scale(0.1 -0.1)">
       <defs>
        <path id="DejaVuSans-33" d="M 2597 2516 
Q 3050 2419 3304 2112 
Q 3559 1806 3559 1356 
Q 3559 666 3084 287 
Q 2609 -91 1734 -91 
Q 1441 -91 1130 -33 
Q 819 25 488 141 
L 488 750 
Q 750 597 1062 519 
Q 1375 441 1716 441 
Q 2309 441 2620 675 
Q 2931 909 2931 1356 
Q 2931 1769 2642 2001 
Q 2353 2234 1838 2234 
L 1294 2234 
L 1294 2753 
L 1863 2753 
Q 2328 2753 2575 2939 
Q 2822 3125 2822 3475 
Q 2822 3834 2567 4026 
Q 2313 4219 1838 4219 
Q 1578 4219 1281 4162 
Q 984 4106 628 3988 
L 628 4550 
Q 988 4650 1302 4700 
Q 1616 4750 1894 4750 
Q 2613 4750 3031 4423 
Q 3450 4097 3450 3541 
Q 3450 3153 3228 2886 
Q 3006 2619 2597 2516 
z
" transform="scale(0.015625)"/>
       </defs>
       <use xlink:href="#DejaVuSans-33"/>
       <use xlink:href="#DejaVuSans-30" transform="translate(63.623047 0)"/>
      </g>
     </g>
    </g>
    <g id="xtick_7">
     <g id="line2d_13">
      <path d="M 418.173438 313.438281 
L 418.173438 21.558281 
" clip-path="url(#p2ee7cd7968)" style="fill: none; stroke: #b0b0b0; stroke-opacity: 0.3; stroke-width: 0.8; stroke-linecap: square"/>
     </g>
     <g id="line2d_14">
      <g>
       <use xlink:href="#ma223fe85bf" x="418.173438" y="313.438281" style="stroke: #000000; stroke-width: 0.8"/>
      </g>
     </g>
     <g id="text_7">
      <!-- 35 -->
      <g transform="translate(411.810938 328.036719) scale(0.1 -0.1)">
       <use xlink:href="#DejaVuSans-33"/>
       <use xlink:href="#DejaVuSans-35" transform="translate(63.623047 0)"/>
      </g>
     </g>
    </g>
    <g id="text_8">
     <!-- Episode -->
     <g transform="translate(211.452188 342.474688) scale(0.11 -0.11)">
      <defs>
       <path id="DejaVuSans-45" d="M 628 4666 
L 3578 4666 
L 3578 4134 
L 1259 4134 
L 1259 2753 
L 3481 2753 
L 3481 2222 
L 1259 2222 
L 1259 531 
L 3634 531 
L 3634 0 
L 628 0 
L 628 4666 
z
" transform="scale(0.015625)"/>
       <path id="DejaVuSans-70" d="M 1159 525 
L 1159 -1331 
L 581 -1331 
L 581 3500 
L 1159 3500 
L 1159 2969 
Q 1341 3281 1617 3432 
Q 1894 3584 2278 3584 
Q 2916 3584 3314 3078 
Q 3713 2572 3713 1747 
Q 3713 922 3314 415 
Q 2916 -91 2278 -91 
Q 1894 -91 1617 61 
Q 1341 213 1159 525 
z
M 3116 1747 
Q 3116 2381 2855 2742 
Q 2594 3103 2138 3103 
Q 1681 3103 1420 2742 
Q 1159 2381 1159 1747 
Q 1159 1113 1420 752 
Q 1681 391 2138 391 
Q 2594 391 2855 752 
Q 3116 1113 3116 1747 
z
" transform="scale(0.015625)"/>
       <path id="DejaVuSans-69" d="M 603 3500 
L 1178 3500 
L 1178 0 
L 603 0 
L 603 3500 
z
M 603 4863 
L 1178 4863 
L 1178 4134 
L 603 4134 
L 603 4863 
z
" transform="scale(0.015625)"/>
       <path id="DejaVuSans-73" d="M 2834 3397 
L 2834 2853 
Q 2591 2978 2328 3040 
Q 2066 3103 1784 3103 
Q 1356 3103 1142 2972 
Q 928 2841 928 2578 
Q 928 2378 1081 2264 
Q 1234 2150 1697 2047 
L 1894 2003 
Q 2506 1872 2764 1633 
Q 3022 1394 3022 966 
Q 3022 478 2636 193 
Q 2250 -91 1575 -91 
Q 1294 -91 989 -36 
Q 684 19 347 128 
L 347 722 
Q 666 556 975 473 
Q 1284 391 1588 391 
Q 1994 391 2212 530 
Q 2431 669 2431 922 
Q 2431 1156 2273 1281 
Q 2116 1406 1581 1522 
L 1381 1569 
Q 847 1681 609 1914 
Q 372 2147 372 2553 
Q 372 3047 722 3315 
Q 1072 3584 1716 3584 
Q 2034 3584 2315 3537 
Q 2597 3491 2834 3397 
z
" transform="scale(0.015625)"/>
       <path id="DejaVuSans-6f" d="M 1959 3097 
Q 1497 3097 1228 2736 
Q 959 2375 959 1747 
Q 959 1119 1226 758 
Q 1494 397 1959 397 
Q 2419 397 2687 759 
Q 2956 1122 2956 1747 
Q 2956 2369 2687 2733 
Q 2419 3097 1959 3097 
z
M 1959 3584 
Q 2709 3584 3137 3096 
Q 3566 2609 3566 1747 
Q 3566 888 3137 398 
Q 2709 -91 1959 -91 
Q 1206 -91 779 398 
Q 353 888 353 1747 
Q 353 2609 779 3096 
Q 1206 3584 1959 3584 
z
" transform="scale(0.015625)"/>
       <path id="DejaVuSans-64" d="M 2906 2969 
L 2906 4863 
L 3481 4863 
L 3481 0 
L 2906 0 
L 2906 525 
Q 2725 213 2448 61 
Q 2172 -91 1784 -91 
Q 1150 -91 751 415 
Q 353 922 353 1747 
Q 353 2572 751 3078 
Q 1150 3584 1784 3584 
Q 2172 3584 2448 3432 
Q 2725 3281 2906 2969 
z
M 947 1747 
Q 947 1113 1208 752 
Q 1469 391 1925 391 
Q 2381 391 2643 752 
Q 2906 1113 2906 1747 
Q 2906 2381 2643 2742 
Q 2381 3103 1925 3103 
Q 1469 3103 1208 2742 
Q 947 2381 947 1747 
z
" transform="scale(0.015625)"/>
       <path id="DejaVuSans-65" d="M 3597 1894 
L 3597 1613 
L 953 1613 
Q 991 1019 1311 708 
Q 1631 397 2203 397 
Q 2534 397 2845 478 
Q 3156 559 3463 722 
L 3463 178 
Q 3153 47 2828 -22 
Q 2503 -91 2169 -91 
Q 1331 -91 842 396 
Q 353 884 353 1716 
Q 353 2575 817 3079 
Q 1281 3584 2069 3584 
Q 2775 3584 3186 3129 
Q 3597 2675 3597 1894 
z
M 3022 2063 
Q 3016 2534 2758 2815 
Q 2500 3097 2075 3097 
Q 1594 3097 1305 2825 
Q 1016 2553 972 2059 
L 3022 2063 
z
" transform="scale(0.015625)"/>
      </defs>
      <use xlink:href="#DejaVuSans-45"/>
      <use xlink:href="#DejaVuSans-70" transform="translate(63.183594 0)"/>
      <use xlink:href="#DejaVuSans-69" transform="translate(126.660156 0)"/>
      <use xlink:href="#DejaVuSans-73" transform="translate(154.443359 0)"/>
      <use xlink:href="#DejaVuSans-6f" transform="translate(206.542969 0)"/>
      <use xlink:href="#DejaVuSans-64" transform="translate(267.724609 0)"/>
      <use xlink:href="#DejaVuSans-65" transform="translate(331.201172 0)"/>
     </g>
    </g>
   </g>
   <g id="matplotlib.axis_2">
    <g id="ytick_1">
     <g id="line2d_15">
      <path d="M 47.933438 288.849449 
L 418.173438 288.849449 
" clip-path="url(#p2ee7cd7968)" style="fill: none; stroke: #b0b0b0; stroke-opacity: 0.3; stroke-width: 0.8; stroke-linecap: square"/>
     </g>
     <g id="line2d_16">
      <defs>
       <path id="m92ab4d9f3c" d="M 0 0 
L -3.5 0 
" style="stroke: #000000; stroke-width: 0.8"/>
      </defs>
      <g>
       <use xlink:href="#m92ab4d9f3c" x="47.933438" y="288.849449" style="stroke: #000000; stroke-width: 0.8"/>
      </g>
     </g>
     <g id="text_9">
      <!-- 60 -->
      <g transform="translate(28.208438 292.648668) scale(0.1 -0.1)">
       <defs>
        <path id="DejaVuSans-36" d="M 2113 2584 
Q 1688 2584 1439 2293 
Q 1191 2003 1191 1497 
Q 1191 994 1439 701 
Q 1688 409 2113 409 
Q 2538 409 2786 701 
Q 3034 994 3034 1497 
Q 3034 2003 2786 2293 
Q 2538 2584 2113 2584 
z
M 3366 4563 
L 3366 3988 
Q 3128 4100 2886 4159 
Q 2644 4219 2406 4219 
Q 1781 4219 1451 3797 
Q 1122 3375 1075 2522 
Q 1259 2794 1537 2939 
Q 1816 3084 2150 3084 
Q 2853 3084 3261 2657 
Q 3669 2231 3669 1497 
Q 3669 778 3244 343 
Q 2819 -91 2113 -91 
Q 1303 -91 875 529 
Q 447 1150 447 2328 
Q 447 3434 972 4092 
Q 1497 4750 2381 4750 
Q 2619 4750 2861 4703 
Q 3103 4656 3366 4563 
z
" transform="scale(0.015625)"/>
       </defs>
       <use xlink:href="#DejaVuSans-36"/>
       <use xlink:href="#DejaVuSans-30" transform="translate(63.623047 0)"/>
      </g>
     </g>
    </g>
    <g id="ytick_2">
     <g id="line2d_17">
      <path d="M 47.933438 238.586134 
L 418.173438 238.586134 
" clip-path="url(#p2ee7cd7968)" style="fill: none; stroke: #b0b0b0; stroke-opacity: 0.3; stroke-width: 0.8; stroke-linecap: square"/>
     </g>
     <g id="line2d_18">
      <g>
       <use xlink:href="#m92ab4d9f3c" x="47.933438" y="238.586134" style="stroke: #000000; stroke-width: 0.8"/>
      </g>
     </g>
     <g id="text_10">
      <!-- 80 -->
      <g transform="translate(28.208438 242.385353) scale(0.1 -0.1)">
       <defs>
        <path id="DejaVuSans-38" d="M 2034 2216 
Q 1584 2216 1326 1975 
Q 1069 1734 1069 1313 
Q 1069 891 1326 650 
Q 1584 409 2034 409 
Q 2484 409 2743 651 
Q 3003 894 3003 1313 
Q 3003 1734 2745 1975 
Q 2488 2216 2034 2216 
z
M 1403 2484 
Q 997 2584 770 2862 
Q 544 3141 544 3541 
Q 544 4100 942 4425 
Q 1341 4750 2034 4750 
Q 2731 4750 3128 4425 
Q 3525 4100 3525 3541 
Q 3525 3141 3298 2862 
Q 3072 2584 2669 2484 
Q 3125 2378 3379 2068 
Q 3634 1759 3634 1313 
Q 3634 634 3220 271 
Q 2806 -91 2034 -91 
Q 1263 -91 848 271 
Q 434 634 434 1313 
Q 434 1759 690 2068 
Q 947 2378 1403 2484 
z
M 1172 3481 
Q 1172 3119 1398 2916 
Q 1625 2713 2034 2713 
Q 2441 2713 2670 2916 
Q 2900 3119 2900 3481 
Q 2900 3844 2670 4047 
Q 2441 4250 2034 4250 
Q 1625 4250 1398 4047 
Q 1172 3844 1172 3481 
z
" transform="scale(0.015625)"/>
       </defs>
       <use xlink:href="#DejaVuSans-38"/>
       <use xlink:href="#DejaVuSans-30" transform="translate(63.623047 0)"/>
      </g>
     </g>
    </g>
    <g id="ytick_3">
     <g id="line2d_19">
      <path d="M 47.933438 188.322819 
L 418.173438 188.322819 
" clip-path="url(#p2ee7cd7968)" style="fill: none; stroke: #b0b0b0; stroke-opacity: 0.3; stroke-width: 0.8; stroke-linecap: square"/>
     </g>
     <g id="line2d_20">
      <g>
       <use xlink:href="#m92ab4d9f3c" x="47.933438" y="188.322819" style="stroke: #000000; stroke-width: 0.8"/>
      </g>
     </g>
     <g id="text_11">
      <!-- 100 -->
      <g transform="translate(21.845938 192.122038) scale(0.1 -0.1)">
       <use xlink:href="#DejaVuSans-31"/>
       <use xlink:href="#DejaVuSans-30" transform="translate(63.623047 0)"/>
       <use xlink:href="#DejaVuSans-30" transform="translate(127.246094 0)"/>
      </g>
     </g>
    </g>
    <g id="ytick_4">
     <g id="line2d_21">
      <path d="M 47.933438 138.059504 
L 418.173438 138.059504 
" clip-path="url(#p2ee7cd7968)" style="fill: none; stroke: #b0b0b0; stroke-opacity: 0.3; stroke-width: 0.8; stroke-linecap: square"/>
     </g>
     <g id="line2d_22">
      <g>
       <use xlink:href="#m92ab4d9f3c" x="47.933438" y="138.059504" style="stroke: #000000; stroke-width: 0.8"/>
      </g>
     </g>
     <g id="text_12">
      <!-- 120 -->
      <g transform="translate(21.845938 141.858722) scale(0.1 -0.1)">
       <use xlink:href="#DejaVuSans-31"/>
       <use xlink:href="#DejaVuSans-32" transform="translate(63.623047 0)"/>
       <use xlink:href="#DejaVuSans-30" transform="translate(127.246094 0)"/>
      </g>
     </g>
    </g>
    <g id="ytick_5">
     <g id="line2d_23">
      <path d="M 47.933438 87.796189 
L 418.173438 87.796189 
" clip-path="url(#p2ee7cd7968)" style="fill: none; stroke: #b0b0b0; stroke-opacity: 0.3; stroke-width: 0.8; stroke-linecap: square"/>
     </g>
     <g id="line2d_24">
      <g>
       <use xlink:href="#m92ab4d9f3c" x="47.933438" y="87.796189" style="stroke: #000000; stroke-width: 0.8"/>
      </g>
     </g>
     <g id="text_13">
      <!-- 140 -->
      <g transform="translate(21.845938 91.595407) scale(0.1 -0.1)">
       <defs>
        <path id="DejaVuSans-34" d="M 2419 4116 
L 825 1625 
L 2419 1625 
L 2419 4116 
z
M 2253 4666 
L 3047 4666 
L 3047 1625 
L 3713 1625 
L 3713 1100 
L 3047 1100 
L 3047 0 
L 2419 0 
L 2419 1100 
L 313 1100 
L 313 1709 
L 2253 4666 
z
" transform="scale(0.015625)"/>
       </defs>
       <use xlink:href="#DejaVuSans-31"/>
       <use xlink:href="#DejaVuSans-34" transform="translate(63.623047 0)"/>
       <use xlink:href="#DejaVuSans-30" transform="translate(127.246094 0)"/>
      </g>
     </g>
    </g>
    <g id="ytick_6">
     <g id="line2d_25">
      <path d="M 47.933438 37.532873 
L 418.173438 37.532873 
" clip-path="url(#p2ee7cd7968)" style="fill: none; stroke: #b0b0b0; stroke-opacity: 0.3; stroke-width: 0.8; stroke-linecap: square"/>
     </g>
     <g id="line2d_26">
      <g>
       <use xlink:href="#m92ab4d9f3c" x="47.933438" y="37.532873" style="stroke: #000000; stroke-width: 0.8"/>
      </g>
     </g>
     <g id="text_14">
      <!-- 160 -->
      <g transform="translate(21.845938 41.332092) scale(0.1 -0.1)">
       <use xlink:href="#DejaVuSans-31"/>
       <use xlink:href="#DejaVuSans-36" transform="translate(63.623047 0)"/>
       <use xlink:href="#DejaVuSans-30" transform="translate(127.246094 0)"/>
      </g>
     </g>
    </g>
    <g id="text_15">
     <!-- Steps to completion -->
     <g transform="translate(15.558281 222.590234) rotate(-90) scale(0.11 -0.11)">
      <defs>
       <path id="DejaVuSans-53" d="M 3425 4513 
L 3425 3897 
Q 3066 4069 2747 4153 
Q 2428 4238 2131 4238 
Q 1616 4238 1336 4038 
Q 1056 3838 1056 3469 
Q 1056 3159 1242 3001 
Q 1428 2844 1947 2747 
L 2328 2669 
Q 3034 2534 3370 2195 
Q 3706 1856 3706 1288 
Q 3706 609 3251 259 
Q 2797 -91 1919 -91 
Q 1588 -91 1214 -16 
Q 841 59 441 206 
L 441 856 
Q 825 641 1194 531 
Q 1563 422 1919 422 
Q 2459 422 2753 634 
Q 3047 847 3047 1241 
Q 3047 1584 2836 1778 
Q 2625 1972 2144 2069 
L 1759 2144 
Q 1053 2284 737 2584 
Q 422 2884 422 3419 
Q 422 4038 858 4394 
Q 1294 4750 2059 4750 
Q 2388 4750 2728 4690 
Q 3069 4631 3425 4513 
z
" transform="scale(0.015625)"/>
       <path id="DejaVuSans-74" d="M 1172 4494 
L 1172 3500 
L 2356 3500 
L 2356 3053 
L 1172 3053 
L 1172 1153 
Q 1172 725 1289 603 
Q 1406 481 1766 481 
L 2356 481 
L 2356 0 
L 1766 0 
Q 1100 0 847 248 
Q 594 497 594 1153 
L 594 3053 
L 172 3053 
L 172 3500 
L 594 3500 
L 594 4494 
L 1172 4494 
z
" transform="scale(0.015625)"/>
       <path id="DejaVuSans-20" transform="scale(0.015625)"/>
       <path id="DejaVuSans-63" d="M 3122 3366 
L 3122 2828 
Q 2878 2963 2633 3030 
Q 2388 3097 2138 3097 
Q 1578 3097 1268 2742 
Q 959 2388 959 1747 
Q 959 1106 1268 751 
Q 1578 397 2138 397 
Q 2388 397 2633 464 
Q 2878 531 3122 666 
L 3122 134 
Q 2881 22 2623 -34 
Q 2366 -91 2075 -91 
Q 1284 -91 818 406 
Q 353 903 353 1747 
Q 353 2603 823 3093 
Q 1294 3584 2113 3584 
Q 2378 3584 2631 3529 
Q 2884 3475 3122 3366 
z
" transform="scale(0.015625)"/>
       <path id="DejaVuSans-6d" d="M 3328 2828 
Q 3544 3216 3844 3400 
Q 4144 3584 4550 3584 
Q 5097 3584 5394 3201 
Q 5691 2819 5691 2113 
L 5691 0 
L 5113 0 
L 5113 2094 
Q 5113 2597 4934 2840 
Q 4756 3084 4391 3084 
Q 3944 3084 3684 2787 
Q 3425 2491 3425 1978 
L 3425 0 
L 2847 0 
L 2847 2094 
Q 2847 2600 2669 2842 
Q 2491 3084 2119 3084 
Q 1678 3084 1418 2786 
Q 1159 2488 1159 1978 
L 1159 0 
L 581 0 
L 581 3500 
L 1159 3500 
L 1159 2956 
Q 1356 3278 1631 3431 
Q 1906 3584 2284 3584 
Q 2666 3584 2933 3390 
Q 3200 3197 3328 2828 
z
" transform="scale(0.015625)"/>
       <path id="DejaVuSans-6c" d="M 603 4863 
L 1178 4863 
L 1178 0 
L 603 0 
L 603 4863 
z
" transform="scale(0.015625)"/>
       <path id="DejaVuSans-6e" d="M 3513 2113 
L 3513 0 
L 2938 0 
L 2938 2094 
Q 2938 2591 2744 2837 
Q 2550 3084 2163 3084 
Q 1697 3084 1428 2787 
Q 1159 2491 1159 1978 
L 1159 0 
L 581 0 
L 581 3500 
L 1159 3500 
L 1159 2956 
Q 1366 3272 1645 3428 
Q 1925 3584 2291 3584 
Q 2894 3584 3203 3211 
Q 3513 2838 3513 2113 
z
" transform="scale(0.015625)"/>
      </defs>
      <use xlink:href="#DejaVuSans-53"/>
      <use xlink:href="#DejaVuSans-74" transform="translate(63.476562 0)"/>
      <use xlink:href="#DejaVuSans-65" transform="translate(102.685547 0)"/>
      <use xlink:href="#DejaVuSans-70" transform="translate(164.208984 0)"/>
      <use xlink:href="#DejaVuSans-73" transform="translate(227.685547 0)"/>
      <use xlink:href="#DejaVuSans-20" transform="translate(279.785156 0)"/>
      <use xlink:href="#DejaVuSans-74" transform="translate(311.572266 0)"/>
      <use xlink:href="#DejaVuSans-6f" transform="translate(350.78125 0)"/>
      <use xlink:href="#DejaVuSans-20" transform="translate(411.962891 0)"/>
      <use xlink:href="#DejaVuSans-63" transform="translate(443.75 0)"/>
      <use xlink:href="#DejaVuSans-6f" transform="translate(498.730469 0)"/>
      <use xlink:href="#DejaVuSans-6d" transform="translate(559.912109 0)"/>
      <use xlink:href="#DejaVuSans-70" transform="translate(657.324219 0)"/>
      <use xlink:href="#DejaVuSans-6c" transform="translate(720.800781 0)"/>
      <use xlink:href="#DejaVuSans-65" transform="translate(748.583984 0)"/>
      <use xlink:href="#DejaVuSans-74" transform="translate(810.107422 0)"/>
      <use xlink:href="#DejaVuSans-69" transform="translate(849.316406 0)"/>
      <use xlink:href="#DejaVuSans-6f" transform="translate(877.099609 0)"/>
      <use xlink:href="#DejaVuSans-6e" transform="translate(938.28125 0)"/>
     </g>
    </g>
   </g>
   <g id="line2d_27">
    <path d="M 47.933438 213.95711 
L 58.822849 242.104566 
L 69.712261 250.146696 
L 80.601673 255.173028 
L 91.491085 255.675661 
L 102.380496 257.183561 
L 113.269908 256.178294 
L 124.15932 258.69146 
L 135.048732 262.209892 
L 145.938143 262.712525 
L 156.827555 264.723058 
L 167.716967 264.723058 
L 178.606379 267.236224 
L 189.49579 266.230957 
L 200.385202 265.225691 
L 211.274614 265.728324 
L 222.164026 266.73359 
L 233.053438 267.738857 
L 243.942849 269.246756 
L 254.832261 267.738857 
L 265.721673 271.257289 
L 276.611085 270.252022 
L 287.500496 270.252022 
L 298.389908 269.749389 
L 309.27932 270.754656 
L 320.168732 271.759922 
L 331.058143 269.749389 
L 341.947555 271.257289 
L 352.836967 273.770455 
L 363.726379 270.754656 
L 374.61579 272.765188 
L 385.505202 273.770455 
L 396.394614 271.759922 
L 407.284026 273.770455 
L 418.173438 274.775721 
" clip-path="url(#p2ee7cd7968)" style="fill: none; stroke-dasharray: 5.92,2.56; stroke-dashoffset: 0; stroke: #4878cf; stroke-width: 1.6"/>
   </g>
   <g id="line2d_28">
    <path d="M 47.933438 72.214561 
L 58.822849 79.754058 
L 69.712261 74.225093 
L 80.601673 107.398881 
L 91.491085 116.948911 
L 102.380496 131.02264 
L 113.269908 139.567403 
L 124.15932 161.683262 
L 135.048732 178.772789 
L 145.938143 182.793854 
L 156.827555 195.862316 
L 167.716967 206.920245 
L 178.606379 216.470275 
L 189.49579 230.544004 
L 200.385202 235.570335 
L 211.274614 244.115099 
L 222.164026 242.104566 
L 233.053438 253.162495 
L 243.942849 253.162495 
L 254.832261 259.696726 
L 265.721673 266.230957 
L 276.611085 269.749389 
L 287.500496 273.267821 
L 298.389908 274.273088 
L 309.27932 277.79152 
L 320.168732 279.802052 
L 331.058143 277.79152 
L 341.947555 280.304686 
L 352.836967 278.294153 
L 363.726379 278.796786 
L 374.61579 279.299419 
L 385.505202 282.315218 
L 396.394614 280.807319 
L 407.284026 278.796786 
L 418.173438 281.812585 
" clip-path="url(#p2ee7cd7968)" style="fill: none; stroke: #2ca02c; stroke-width: 2; stroke-linecap: square"/>
   </g>
   <g id="line2d_29">
    <path d="M 47.933438 70.706661 
L 58.822849 72.717194 
L 69.712261 79.754058 
L 80.601673 97.848852 
L 91.491085 97.346218 
L 102.380496 118.959444 
L 113.269908 136.551604 
L 124.15932 138.059504 
L 135.048732 145.599001 
L 145.938143 166.709593 
L 156.827555 178.772789 
L 167.716967 197.370216 
L 178.606379 211.946577 
L 189.49579 222.501873 
L 200.385202 237.580868 
L 211.274614 245.120365 
L 222.164026 248.638797 
L 233.053438 253.665129 
L 243.942849 257.183561 
L 254.832261 259.194093 
L 265.721673 266.230957 
L 276.611085 274.273088 
L 287.500496 278.796786 
L 298.389908 281.309952 
L 309.27932 279.299419 
L 320.168732 281.309952 
L 331.058143 282.817851 
L 341.947555 281.309952 
L 352.836967 284.325751 
L 363.726379 285.331017 
L 374.61579 283.320484 
L 385.505202 285.331017 
L 396.394614 284.325751 
L 407.284026 287.34155 
L 418.173438 286.336283 
" clip-path="url(#p2ee7cd7968)" style="fill: none; stroke: #d65f5f; stroke-width: 1.6; stroke-linecap: square"/>
   </g>
   <g id="patch_3">
    <path d="M 47.933438 313.438281 
L 47.933438 21.558281 
" style="fill: none; stroke: #000000; stroke-width: 0.8; stroke-linejoin: miter; stroke-linecap: square"/>
   </g>
   <g id="patch_4">
    <path d="M 418.173438 313.438281 
L 418.173438 21.558281 
" style="fill: none; stroke: #000000; stroke-width: 0.8; stroke-linejoin: miter; stroke-linecap: square"/>
   </g>
   <g id="patch_5">
    <path d="M 47.933438 313.438281 
L 418.173438 313.438281 
" style="fill: none; stroke: #000000; stroke-width: 0.8; stroke-linejoin: miter; stroke-linecap: square"/>
   </g>
   <g id="patch_6">
    <path d="M 47.933438 21.558281 
L 418.173438 21.558281 
" style="fill: none; stroke: #000000; stroke-width: 0.8; stroke-linejoin: miter; stroke-linecap: square"/>
   </g>
   <g id="text_16">
    <!-- Figure 11a — Broadcast vs No-broadcast (n=27, d=3) -->
    <g transform="translate(84.910078 15.558281) scale(0.11 -0.11)">
     <defs>
      <path id="DejaVuSans-46" d="M 628 4666 
L 3309 4666 
L 3309 4134 
L 1259 4134 
L 1259 2759 
L 3109 2759 
L 3109 2228 
L 1259 2228 
L 1259 0 
L 628 0 
L 628 4666 
z
" transform="scale(0.015625)"/>
      <path id="DejaVuSans-67" d="M 2906 1791 
Q 2906 2416 2648 2759 
Q 2391 3103 1925 3103 
Q 1463 3103 1205 2759 
Q 947 2416 947 1791 
Q 947 1169 1205 825 
Q 1463 481 1925 481 
Q 2391 481 2648 825 
Q 2906 1169 2906 1791 
z
M 3481 434 
Q 3481 -459 3084 -895 
Q 2688 -1331 1869 -1331 
Q 1566 -1331 1297 -1286 
Q 1028 -1241 775 -1147 
L 775 -588 
Q 1028 -725 1275 -790 
Q 1522 -856 1778 -856 
Q 2344 -856 2625 -561 
Q 2906 -266 2906 331 
L 2906 616 
Q 2728 306 2450 153 
Q 2172 0 1784 0 
Q 1141 0 747 490 
Q 353 981 353 1791 
Q 353 2603 747 3093 
Q 1141 3584 1784 3584 
Q 2172 3584 2450 3431 
Q 2728 3278 2906 2969 
L 2906 3500 
L 3481 3500 
L 3481 434 
z
" transform="scale(0.015625)"/>
      <path id="DejaVuSans-75" d="M 544 1381 
L 544 3500 
L 1119 3500 
L 1119 1403 
Q 1119 906 1312 657 
Q 1506 409 1894 409 
Q 2359 409 2629 706 
Q 2900 1003 2900 1516 
L 2900 3500 
L 3475 3500 
L 3475 0 
L 2900 0 
L 2900 538 
Q 2691 219 2414 64 
Q 2138 -91 1772 -91 
Q 1169 -91 856 284 
Q 544 659 544 1381 
z
M 1991 3584 
L 1991 3584 
z
" transform="scale(0.015625)"/>
      <path id="DejaVuSans-72" d="M 2631 2963 
Q 2534 3019 2420 3045 
Q 2306 3072 2169 3072 
Q 1681 3072 1420 2755 
Q 1159 2438 1159 1844 
L 1159 0 
L 581 0 
L 581 3500 
L 1159 3500 
L 1159 2956 
Q 1341 3275 1631 3429 
Q 1922 3584 2338 3584 
Q 2397 3584 2469 3576 
Q 2541 3569 2628 3553 
L 2631 2963 
z
" transform="scale(0.015625)"/>
      <path id="DejaVuSans-61" d="M 2194 1759 
Q 1497 1759 1228 1600 
Q 959 1441 959 1056 
Q 959 750 1161 570 
Q 1363 391 1709 391 
Q 2188 391 2477 730 
Q 2766 1069 2766 1631 
L 2766 1759 
L 2194 1759 
z
M 3341 1997 
L 3341 0 
L 2766 0 
L 2766 531 
Q 2569 213 2275 61 
Q 1981 -91 1556 -91 
Q 1019 -91 701 211 
Q 384 513 384 1019 
Q 384 1609 779 1909 
Q 1175 2209 1959 2209 
L 2766 2209 
L 2766 2266 
Q 2766 2663 2505 2880 
Q 2244 3097 1772 3097 
Q 1472 3097 1187 3025 
Q 903 2953 641 2809 
L 641 3341 
Q 956 3463 1253 3523 
Q 1550 3584 1831 3584 
Q 2591 3584 2966 3190 
Q 3341 2797 3341 1997 
z
" transform="scale(0.015625)"/>
      <path id="DejaVuSans-2014" d="M 313 1978 
L 6088 1978 
L 6088 1528 
L 313 1528 
L 313 1978 
z
" transform="scale(0.015625)"/>
      <path id="DejaVuSans-42" d="M 1259 2228 
L 1259 519 
L 2272 519 
Q 2781 519 3026 730 
Q 3272 941 3272 1375 
Q 3272 1813 3026 2020 
Q 2781 2228 2272 2228 
L 1259 2228 
z
M 1259 4147 
L 1259 2741 
L 2194 2741 
Q 2656 2741 2882 2914 
Q 3109 3088 3109 3444 
Q 3109 3797 2882 3972 
Q 2656 4147 2194 4147 
L 1259 4147 
z
M 628 4666 
L 2241 4666 
Q 2963 4666 3353 4366 
Q 3744 4066 3744 3513 
Q 3744 3084 3544 2831 
Q 3344 2578 2956 2516 
Q 3422 2416 3680 2098 
Q 3938 1781 3938 1306 
Q 3938 681 3513 340 
Q 3088 0 2303 0 
L 628 0 
L 628 4666 
z
" transform="scale(0.015625)"/>
      <path id="DejaVuSans-76" d="M 191 3500 
L 800 3500 
L 1894 563 
L 2988 3500 
L 3597 3500 
L 2284 0 
L 1503 0 
L 191 3500 
z
" transform="scale(0.015625)"/>
      <path id="DejaVuSans-4e" d="M 628 4666 
L 1478 4666 
L 3547 763 
L 3547 4666 
L 4159 4666 
L 4159 0 
L 3309 0 
L 1241 3903 
L 1241 0 
L 628 0 
L 628 4666 
z
" transform="scale(0.015625)"/>
      <path id="DejaVuSans-2d" d="M 313 2009 
L 1997 2009 
L 1997 1497 
L 313 1497 
L 313 2009 
z
" transform="scale(0.015625)"/>
      <path id="DejaVuSans-62" d="M 3116 1747 
Q 3116 2381 2855 2742 
Q 2594 3103 2138 3103 
Q 1681 3103 1420 2742 
Q 1159 2381 1159 1747 
Q 1159 1113 1420 752 
Q 1681 391 2138 391 
Q 2594 391 2855 752 
Q 3116 1113 3116 1747 
z
M 1159 2969 
Q 1341 3281 1617 3432 
Q 1894 3584 2278 3584 
Q 2916 3584 3314 3078 
Q 3713 2572 3713 1747 
Q 3713 922 3314 415 
Q 2916 -91 2278 -91 
Q 1894 -91 1617 61 
Q 1341 213 1159 525 
L 1159 0 
L 581 0 
L 581 4863 
L 1159 4863 
L 1159 2969 
z
" transform="scale(0.015625)"/>
      <path id="DejaVuSans-28" d="M 1984 4856 
Q 1566 4138 1362 3434 
Q 1159 2731 1159 2009 
Q 1159 1288 1364 580 
Q 1569 -128 1984 -844 
L 1484 -844 
Q 1016 -109 783 600 
Q 550 1309 550 2009 
Q 550 2706 781 3412 
Q 1013 4119 1484 4856 
L 1984 4856 
z
" transform="scale(0.015625)"/>
      <path id="DejaVuSans-3d" d="M 678 2906 
L 4684 2906 
L 4684 2381 
L 678 2381 
L 678 2906 
z
M 678 1631 
L 4684 1631 
L 4684 1100 
L 678 1100 
L 678 1631 
z
" transform="scale(0.015625)"/>
      <path id="DejaVuSans-37" d="M 525 4666 
L 3525 4666 
L 3525 4397 
L 1831 0 
L 1172 0 
L 2766 4134 
L 525 4134 
L 525 4666 
z
" transform="scale(0.015625)"/>
      <path id="DejaVuSans-2c" d="M 750 794 
L 1409 794 
L 1409 256 
L 897 -744 
L 494 -744 
L 750 256 
L 750 794 
z
" transform="scale(0.015625)"/>
      <path id="DejaVuSans-29" d="M 513 4856 
L 1013 4856 
Q 1481 4119 1714 3412 
Q 1947 2706 1947 2009 
Q 1947 1309 1714 600 
Q 1481 -109 1013 -844 
L 513 -844 
Q 928 -128 1133 580 
Q 1338 1288 1338 2009 
Q 1338 2731 1133 3434 
Q 928 4138 513 4856 
z
" transform="scale(0.015625)"/>
     </defs>
     <use xlink:href="#DejaVuSans-46"/>
     <use xlink:href="#DejaVuSans-69" transform="translate(50.269531 0)"/>
     <use xlink:href="#DejaVuSans-67" transform="translate(78.052734 0)"/>
     <use xlink:href="#DejaVuSans-75" transform="translate(141.529297 0)"/>
     <use xlink:href="#DejaVuSans-72" transform="translate(204.908203 0)"/>
     <use xlink:href="#DejaVuSans-65" transform="translate(243.771484 0)"/>
     <use xlink:href="#DejaVuSans-20" transform="translate(305.294922 0)"/>
     <use xlink:href="#DejaVuSans-31" transform="translate(337.082031 0)"/>
     <use xlink:href="#DejaVuSans-31" transform="translate(400.705078 0)"/>
     <use xlink:href="#DejaVuSans-61" transform="translate(464.328125 0)"/>
     <use xlink:href="#DejaVuSans-20" transform="translate(525.607422 0)"/>
     <use xlink:href="#DejaVuSans-2014" transform="translate(557.394531 0)"/>
     <use xlink:href="#DejaVuSans-20" transform="translate(657.394531 0)"/>
     <use xlink:href="#DejaVuSans-42" transform="translate(689.181641 0)"/>
     <use xlink:href="#DejaVuSans-72" transform="translate(757.785156 0)"/>
     <use xlink:href="#DejaVuSans-6f" transform="translate(796.648438 0)"/>
     <use xlink:href="#DejaVuSans-61" transform="translate(857.830078 0)"/>
     <use xlink:href="#DejaVuSans-64" transform="translate(919.109375 0)"/>
     <use xlink:href="#DejaVuSans-63" transform="translate(982.585938 0)"/>
     <use xlink:href="#DejaVuSans-61" transform="translate(1037.566406 0)"/>
     <use xlink:href="#DejaVuSans-73" transform="translate(1098.845703 0)"/>
     <use xlink:href="#DejaVuSans-74" transform="translate(1150.945312 0)"/>
     <use xlink:href="#DejaVuSans-20" transform="translate(1190.154297 0)"/>
     <use xlink:href="#DejaVuSans-76" transform="translate(1221.941406 0)"/>
     <use xlink:href="#DejaVuSans-73" transform="translate(1281.121094 0)"/>
     <use xlink:href="#DejaVuSans-20" transform="translate(1333.220703 0)"/>
     <use xlink:href="#DejaVuSans-4e" transform="translate(1365.007812 0)"/>
     <use xlink:href="#DejaVuSans-6f" transform="translate(1439.8125 0)"/>
     <use xlink:href="#DejaVuSans-2d" transform="translate(1502.869141 0)"/>
     <use xlink:href="#DejaVuSans-62" transform="translate(1538.953125 0)"/>
     <use xlink:href="#DejaVuSans-72" transform="translate(1602.429688 0)"/>
     <use xlink:href="#DejaVuSans-6f" transform="translate(1641.292969 0)"/>
     <use xlink:href="#DejaVuSans-61" transform="translate(1702.474609 0)"/>
     <use xlink:href="#DejaVuSans-64" transform="translate(1763.753906 0)"/>
     <use xlink:href="#DejaVuSans-63" transform="translate(1827.230469 0)"/>
     <use xlink:href="#DejaVuSans-61" transform="translate(1882.210938 0)"/>
     <use xlink:href="#DejaVuSans-73" transform="translate(1943.490234 0)"/>
     <use xlink:href="#DejaVuSans-74" transform="translate(1995.589844 0)"/>
     <use xlink:href="#DejaVuSans-20" transform="translate(2034.798828 0)"/>
     <use xlink:href="#DejaVuSans-28" transform="translate(2066.585938 0)"/>
     <use xlink:href="#DejaVuSans-6e" transform="translate(2105.599609 0)"/>
     <use xlink:href="#DejaVuSans-3d" transform="translate(2168.978516 0)"/>
     <use xlink:href="#DejaVuSans-32" transform="translate(2252.767578 0)"/>
     <use xlink:href="#DejaVuSans-37" transform="translate(2316.390625 0)"/>
     <use xlink:href="#DejaVuSans-2c" transform="translate(2380.013672 0)"/>
     <use xlink:href="#DejaVuSans-20" transform="translate(2411.800781 0)"/>
     <use xlink:href="#DejaVuSans-64" transform="translate(2443.587891 0)"/>
     <use xlink:href="#DejaVuSans-3d" transform="translate(2507.064453 0)"/>
     <use xlink:href="#DejaVuSans-33" transform="translate(2590.853516 0)"/>
     <use xlink:href="#DejaVuSans-29" transform="translate(2654.476562 0)"/>
    </g>
   </g>
   <g id="legend_1">
    <g id="patch_7">
     <path d="M 272.25 73.592656 
L 411.173438 73.592656 
Q 413.173438 73.592656 413.173438 71.592656 
L 413.173438 28.558281 
Q 413.173438 26.558281 411.173438 26.558281 
L 272.25 26.558281 
Q 270.25 26.558281 270.25 28.558281 
L 270.25 71.592656 
Q 270.25 73.592656 272.25 73.592656 
z
" style="fill: #ffffff; opacity: 0.8; stroke: #cccccc; stroke-linejoin: miter"/>
    </g>
    <g id="line2d_30">
     <path d="M 274.25 34.656719 
L 284.25 34.656719 
L 294.25 34.656719 
" style="fill: none; stroke-dasharray: 5.92,2.56; stroke-dashoffset: 0; stroke: #4878cf; stroke-width: 1.6"/>
    </g>
    <g id="text_17">
     <!-- UCB-Indep -->
     <g transform="translate(302.25 38.156719) scale(0.1 -0.1)">
      <defs>
       <path id="DejaVuSans-55" d="M 556 4666 
L 1191 4666 
L 1191 1831 
Q 1191 1081 1462 751 
Q 1734 422 2344 422 
Q 2950 422 3222 751 
Q 3494 1081 3494 1831 
L 3494 4666 
L 4128 4666 
L 4128 1753 
Q 4128 841 3676 375 
Q 3225 -91 2344 -91 
Q 1459 -91 1007 375 
Q 556 841 556 1753 
L 556 4666 
z
" transform="scale(0.015625)"/>
       <path id="DejaVuSans-43" d="M 4122 4306 
L 4122 3641 
Q 3803 3938 3442 4084 
Q 3081 4231 2675 4231 
Q 1875 4231 1450 3742 
Q 1025 3253 1025 2328 
Q 1025 1406 1450 917 
Q 1875 428 2675 428 
Q 3081 428 3442 575 
Q 3803 722 4122 1019 
L 4122 359 
Q 3791 134 3420 21 
Q 3050 -91 2638 -91 
Q 1578 -91 968 557 
Q 359 1206 359 2328 
Q 359 3453 968 4101 
Q 1578 4750 2638 4750 
Q 3056 4750 3426 4639 
Q 3797 4528 4122 4306 
z
" transform="scale(0.015625)"/>
       <path id="DejaVuSans-49" d="M 628 4666 
L 1259 4666 
L 1259 0 
L 628 0 
L 628 4666 
z
" transform="scale(0.015625)"/>
      </defs>
      <use xlink:href="#DejaVuSans-55"/>
      <use xlink:href="#DejaVuSans-43" transform="translate(73.193359 0)"/>
      <use xlink:href="#DejaVuSans-42" transform="translate(143.017578 0)"/>
      <use xlink:href="#DejaVuSans-2d" transform="translate(211.621094 0)"/>
      <use xlink:href="#DejaVuSans-49" transform="translate(247.705078 0)"/>
      <use xlink:href="#DejaVuSans-6e" transform="translate(277.197266 0)"/>
      <use xlink:href="#DejaVuSans-64" transform="translate(340.576172 0)"/>
      <use xlink:href="#DejaVuSans-65" transform="translate(404.052734 0)"/>
      <use xlink:href="#DejaVuSans-70" transform="translate(465.576172 0)"/>
     </g>
    </g>
    <g id="line2d_31">
     <path d="M 274.25 49.334844 
L 284.25 49.334844 
L 294.25 49.334844 
" style="fill: none; stroke: #2ca02c; stroke-width: 2; stroke-linecap: square"/>
    </g>
    <g id="text_18">
     <!-- MF-CF (broadcast) -->
     <g transform="translate(302.25 52.834844) scale(0.1 -0.1)">
      <defs>
       <path id="DejaVuSans-4d" d="M 628 4666 
L 1569 4666 
L 2759 1491 
L 3956 4666 
L 4897 4666 
L 4897 0 
L 4281 0 
L 4281 4097 
L 3078 897 
L 2444 897 
L 1241 4097 
L 1241 0 
L 628 0 
L 628 4666 
z
" transform="scale(0.015625)"/>
      </defs>
      <use xlink:href="#DejaVuSans-4d"/>
      <use xlink:href="#DejaVuSans-46" transform="translate(86.279297 0)"/>
      <use xlink:href="#DejaVuSans-2d" transform="translate(143.798828 0)"/>
      <use xlink:href="#DejaVuSans-43" transform="translate(179.882812 0)"/>
      <use xlink:href="#DejaVuSans-46" transform="translate(249.707031 0)"/>
      <use xlink:href="#DejaVuSans-20" transform="translate(307.226562 0)"/>
      <use xlink:href="#DejaVuSans-28" transform="translate(339.013672 0)"/>
      <use xlink:href="#DejaVuSans-62" transform="translate(378.027344 0)"/>
      <use xlink:href="#DejaVuSans-72" transform="translate(441.503906 0)"/>
      <use xlink:href="#DejaVuSans-6f" transform="translate(480.367188 0)"/>
      <use xlink:href="#DejaVuSans-61" transform="translate(541.548828 0)"/>
      <use xlink:href="#DejaVuSans-64" transform="translate(602.828125 0)"/>
      <use xlink:href="#DejaVuSans-63" transform="translate(666.304688 0)"/>
      <use xlink:href="#DejaVuSans-61" transform="translate(721.285156 0)"/>
      <use xlink:href="#DejaVuSans-73" transform="translate(782.564453 0)"/>
      <use xlink:href="#DejaVuSans-74" transform="translate(834.664062 0)"/>
      <use xlink:href="#DejaVuSans-29" transform="translate(873.873047 0)"/>
     </g>
    </g>
    <g id="line2d_32">
     <path d="M 274.25 64.012969 
L 284.25 64.012969 
L 294.25 64.012969 
" style="fill: none; stroke: #d65f5f; stroke-width: 1.6; stroke-linecap: square"/>
    </g>
    <g id="text_19">
     <!-- MF-CF (no broadcast) -->
     <g transform="translate(302.25 67.512969) scale(0.1 -0.1)">
      <use xlink:href="#DejaVuSans-4d"/>
      <use xlink:href="#DejaVuSans-46" transform="translate(86.279297 0)"/>
      <use xlink:href="#DejaVuSans-2d" transform="translate(143.798828 0)"/>
      <use xlink:href="#DejaVuSans-43" transform="translate(179.882812 0)"/>
      <use xlink:href="#DejaVuSans-46" transform="translate(249.707031 0)"/>
      <use xlink:href="#DejaVuSans-20" transform="translate(307.226562 0)"/>
      <use xlink:href="#DejaVuSans-28" transform="translate(339.013672 0)"/>
      <use xlink:href="#DejaVuSans-6e" transform="translate(378.027344 0)"/>
      <use xlink:href="#DejaVuSans-6f" transform="translate(441.40625 0)"/>
      <use xlink:href="#DejaVuSans-20" transform="translate(502.587891 0)"/>
      <use xlink:href="#DejaVuSans-62" transform="translate(534.375 0)"/>
      <use xlink:href="#DejaVuSans-72" transform="translate(597.851562 0)"/>
      <use xlink:href="#DejaVuSans-6f" transform="translate(636.714844 0)"/>
      <use xlink:href="#DejaVuSans-61" transform="translate(697.896484 0)"/>
      <use xlink:href="#DejaVuSans-64" transform="translate(759.175781 0)"/>
      <use xlink:href="#DejaVuSans-63" transform="translate(822.652344 0)"/>
      <use xlink:href="#DejaVuSans-61" transform="translate(877.632812 0)"/>
      <use xlink:href="#DejaVuSans-73" transform="translate(938.912109 0)"/>
      <use xlink:href="#DejaVuSans-74" transform="translate(991.011719 0)"/>
      <use xlink:href="#DejaVuSans-29" transform="translate(1030.220703 0)"/>
     </g>
    </g>
   </g>
  </g>
  <g id="axes_2">
   <g id="patch_8">
    <path d="M 472.913438 313.438281 
L 843.153437 313.438281 
L 843.153437 21.558281 
L 472.913438 21.558281 
z
" style="fill: #ffffff"/>
   </g>
   <g id="FillBetweenPolyCollection_4">
    <defs>
     <path id="maa464abe19" d="M 472.913438 -175.165638 
L 472.913438 -162.441583 
L 483.802849 -196.577587 
L 494.692261 -216.431165 
L 505.581673 -223.540953 
L 516.471085 -229.469951 
L 527.360496 -235.954202 
L 538.249908 -232.598337 
L 549.13932 -238.766493 
L 560.028732 -243.464921 
L 570.918143 -249.893236 
L 581.807555 -252.475783 
L 592.696967 -255.506181 
L 603.586379 -254.71569 
L 614.47579 -257.911873 
L 625.365202 -256.720295 
L 636.254614 -256.705111 
L 647.144026 -258.582451 
L 658.033437 -261.309748 
L 668.922849 -265.545278 
L 679.812261 -265.997102 
L 690.701673 -271.541922 
L 701.591085 -271.515139 
L 712.480496 -268.32489 
L 723.369908 -271.221958 
L 734.25932 -270.298786 
L 745.148732 -270.661816 
L 756.038143 -271.328666 
L 766.927555 -272.805375 
L 777.816967 -276.629804 
L 788.706379 -273.438063 
L 799.59579 -276.013441 
L 810.485202 -276.377149 
L 821.374614 -274.00746 
L 832.264026 -274.443516 
L 843.153438 -279.062449 
L 843.153438 -298.612516 
L 843.153438 -298.612516 
L 832.264026 -290.80382 
L 821.374614 -294.184019 
L 810.485202 -290.143098 
L 799.59579 -290.077744 
L 788.706379 -285.354029 
L 777.816967 -297.294057 
L 766.927555 -286.418853 
L 756.038143 -283.188842 
L 745.148732 -286.144605 
L 734.25932 -286.23755 
L 723.369908 -286.400865 
L 712.480496 -285.15883 
L 701.591085 -286.181463 
L 690.701673 -283.027846 
L 679.812261 -279.785911 
L 668.922849 -280.58577 
L 658.033437 -276.453506 
L 647.144026 -277.406369 
L 636.254614 -272.019089 
L 625.365202 -275.388088 
L 614.47579 -270.383265 
L 603.586379 -273.651032 
L 592.696967 -262.207347 
L 581.807555 -266.22081 
L 570.918143 -263.529459 
L 560.028732 -259.361451 
L 549.13932 -251.063315 
L 538.249908 -246.098054 
L 527.360496 -245.662397 
L 516.471085 -241.807454 
L 505.581673 -238.520416 
L 494.692261 -230.879408 
L 483.802849 -210.411318 
L 472.913438 -175.165638 
z
" style="stroke: #4878cf; stroke-opacity: 0.13"/>
    </defs>
    <g clip-path="url(#p3963f340a1)">
     <use xlink:href="#maa464abe19" x="0" y="351.962344" style="fill: #4878cf; fill-opacity: 0.13; stroke: #4878cf; stroke-opacity: 0.13"/>
    </g>
   </g>
   <g id="FillBetweenPolyCollection_5">
    <defs>
     <path id="m97a97b83c4" d="M 472.913438 -69.413828 
L 472.913438 -52.437664 
L 483.802849 -56.253171 
L 494.692261 -52.572757 
L 505.581673 -67.366447 
L 516.471085 -76.917457 
L 527.360496 -87.145731 
L 538.249908 -96.52257 
L 549.13932 -118.222052 
L 560.028732 -134.306118 
L 570.918143 -137.89961 
L 581.807555 -149.865325 
L 592.696967 -158.781181 
L 603.586379 -172.139625 
L 614.47579 -187.84284 
L 625.365202 -194.724102 
L 636.254614 -206.880809 
L 647.144026 -204.504044 
L 658.033437 -223.735338 
L 668.922849 -228.083491 
L 679.812261 -237.257456 
L 690.701673 -255.307239 
L 701.591085 -265.218462 
L 712.480496 -269.602489 
L 723.369908 -273.637658 
L 734.25932 -278.82093 
L 745.148732 -283.029468 
L 756.038143 -280.350198 
L 766.927555 -283.910333 
L 777.816967 -283.71706 
L 788.706379 -284.441333 
L 799.59579 -284.817524 
L 810.485202 -291.261297 
L 821.374614 -289.313732 
L 832.264026 -285.686999 
L 843.153438 -290.083019 
L 843.153438 -310.40971 
L 843.153438 -310.40971 
L 832.264026 -303.394982 
L 821.374614 -313.44178 
L 810.485202 -317.13679 
L 799.59579 -307.850435 
L 788.706379 -311.263431 
L 777.816967 -305.591528 
L 766.927555 -308.40432 
L 756.038143 -305.21651 
L 745.148732 -302.827526 
L 734.25932 -298.973047 
L 723.369908 -289.88926 
L 712.480496 -282.72909 
L 701.591085 -275.565349 
L 690.701673 -270.329432 
L 679.812261 -263.462695 
L 668.922849 -259.376819 
L 658.033437 -253.301678 
L 647.144026 -242.049194 
L 636.254614 -243.369955 
L 625.365202 -230.528237 
L 614.47579 -216.729136 
L 603.586379 -204.57586 
L 592.696967 -181.692231 
L 581.807555 -168.450164 
L 570.918143 -165.218455 
L 560.028732 -143.935829 
L 549.13932 -129.750867 
L 538.249908 -113.049137 
L 527.360496 -100.378282 
L 516.471085 -90.328904 
L 505.581673 -89.666321 
L 494.692261 -72.817064 
L 483.802849 -76.090562 
L 472.913438 -69.413828 
z
" style="stroke: #2ca02c; stroke-opacity: 0.13"/>
    </defs>
    <g clip-path="url(#p3963f340a1)">
     <use xlink:href="#m97a97b83c4" x="0" y="351.962344" style="fill: #2ca02c; fill-opacity: 0.13; stroke: #2ca02c; stroke-opacity: 0.13"/>
    </g>
   </g>
   <g id="FillBetweenPolyCollection_6">
    <defs>
     <path id="m885cd54059" d="M 472.913438 -66.918171 
L 472.913438 -51.791335 
L 483.802849 -51.86219 
L 494.692261 -56.112829 
L 505.581673 -63.353434 
L 516.471085 -64.702147 
L 527.360496 -76.704793 
L 538.249908 -85.941796 
L 549.13932 -87.87479 
L 560.028732 -94.681495 
L 570.918143 -110.115806 
L 581.807555 -122.729843 
L 592.696967 -140.241138 
L 603.586379 -151.802883 
L 614.47579 -161.187835 
L 625.365202 -181.956145 
L 636.254614 -189.332246 
L 647.144026 -193.111225 
L 658.033437 -202.037513 
L 668.922849 -211.603083 
L 679.812261 -213.690558 
L 690.701673 -231.280214 
L 701.591085 -249.913468 
L 712.480496 -264.47019 
L 723.369908 -272.379174 
L 734.25932 -268.659468 
L 745.148732 -274.880196 
L 756.038143 -277.756016 
L 766.927555 -273.81925 
L 777.816967 -283.071161 
L 788.706379 -283.273369 
L 799.59579 -280.531084 
L 810.485202 -285.881934 
L 821.374614 -282.562123 
L 832.264026 -288.709107 
L 843.153438 -288.436946 
L 843.153438 -304.811585 
L 843.153438 -304.811585 
L 832.264026 -309.361863 
L 821.374614 -305.259463 
L 810.485202 -304.724598 
L 799.59579 -296.953284 
L 788.706379 -303.507402 
L 777.816967 -301.585163 
L 766.927555 -293.100855 
L 756.038143 -296.210006 
L 745.148732 -296.34216 
L 734.25932 -292.523203 
L 723.369908 -298.365154 
L 712.480496 -290.77457 
L 701.591085 -280.364268 
L 690.701673 -266.317714 
L 679.812261 -254.542137 
L 668.922849 -248.072319 
L 658.033437 -245.132089 
L 647.144026 -233.879098 
L 636.254614 -228.781074 
L 625.365202 -218.438521 
L 614.47579 -192.785421 
L 603.586379 -174.264915 
L 592.696967 -160.313098 
L 581.807555 -147.604771 
L 570.918143 -140.689489 
L 560.028732 -129.75541 
L 549.13932 -115.111901 
L 538.249908 -116.063587 
L 527.360496 -102.646852 
L 516.471085 -88.277813 
L 505.581673 -86.476417 
L 494.692261 -81.99337 
L 483.802849 -67.889229 
L 472.913438 -66.918171 
z
" style="stroke: #d65f5f; stroke-opacity: 0.13"/>
    </defs>
    <g clip-path="url(#p3963f340a1)">
     <use xlink:href="#m885cd54059" x="0" y="351.962344" style="fill: #d65f5f; fill-opacity: 0.13; stroke: #d65f5f; stroke-opacity: 0.13"/>
    </g>
   </g>
   <g id="matplotlib.axis_3">
    <g id="xtick_8">
     <g id="line2d_33">
      <path d="M 516.471085 313.438281 
L 516.471085 21.558281 
" clip-path="url(#p3963f340a1)" style="fill: none; stroke: #b0b0b0; stroke-opacity: 0.3; stroke-width: 0.8; stroke-linecap: square"/>
     </g>
     <g id="line2d_34">
      <g>
       <use xlink:href="#ma223fe85bf" x="516.471085" y="313.438281" style="stroke: #000000; stroke-width: 0.8"/>
      </g>
     </g>
     <g id="text_20">
      <!-- 5 -->
      <g transform="translate(513.289835 328.036719) scale(0.1 -0.1)">
       <use xlink:href="#DejaVuSans-35"/>
      </g>
     </g>
    </g>
    <g id="xtick_9">
     <g id="line2d_35">
      <path d="M 570.918143 313.438281 
L 570.918143 21.558281 
" clip-path="url(#p3963f340a1)" style="fill: none; stroke: #b0b0b0; stroke-opacity: 0.3; stroke-width: 0.8; stroke-linecap: square"/>
     </g>
     <g id="line2d_36">
      <g>
       <use xlink:href="#ma223fe85bf" x="570.918143" y="313.438281" style="stroke: #000000; stroke-width: 0.8"/>
      </g>
     </g>
     <g id="text_21">
      <!-- 10 -->
      <g transform="translate(564.555643 328.036719) scale(0.1 -0.1)">
       <use xlink:href="#DejaVuSans-31"/>
       <use xlink:href="#DejaVuSans-30" transform="translate(63.623047 0)"/>
      </g>
     </g>
    </g>
    <g id="xtick_10">
     <g id="line2d_37">
      <path d="M 625.365202 313.438281 
L 625.365202 21.558281 
" clip-path="url(#p3963f340a1)" style="fill: none; stroke: #b0b0b0; stroke-opacity: 0.3; stroke-width: 0.8; stroke-linecap: square"/>
     </g>
     <g id="line2d_38">
      <g>
       <use xlink:href="#ma223fe85bf" x="625.365202" y="313.438281" style="stroke: #000000; stroke-width: 0.8"/>
      </g>
     </g>
     <g id="text_22">
      <!-- 15 -->
      <g transform="translate(619.002702 328.036719) scale(0.1 -0.1)">
       <use xlink:href="#DejaVuSans-31"/>
       <use xlink:href="#DejaVuSans-35" transform="translate(63.623047 0)"/>
      </g>
     </g>
    </g>
    <g id="xtick_11">
     <g id="line2d_39">
      <path d="M 679.812261 313.438281 
L 679.812261 21.558281 
" clip-path="url(#p3963f340a1)" style="fill: none; stroke: #b0b0b0; stroke-opacity: 0.3; stroke-width: 0.8; stroke-linecap: square"/>
     </g>
     <g id="line2d_40">
      <g>
       <use xlink:href="#ma223fe85bf" x="679.812261" y="313.438281" style="stroke: #000000; stroke-width: 0.8"/>
      </g>
     </g>
     <g id="text_23">
      <!-- 20 -->
      <g transform="translate(673.449761 328.036719) scale(0.1 -0.1)">
       <use xlink:href="#DejaVuSans-32"/>
       <use xlink:href="#DejaVuSans-30" transform="translate(63.623047 0)"/>
      </g>
     </g>
    </g>
    <g id="xtick_12">
     <g id="line2d_41">
      <path d="M 734.25932 313.438281 
L 734.25932 21.558281 
" clip-path="url(#p3963f340a1)" style="fill: none; stroke: #b0b0b0; stroke-opacity: 0.3; stroke-width: 0.8; stroke-linecap: square"/>
     </g>
     <g id="line2d_42">
      <g>
       <use xlink:href="#ma223fe85bf" x="734.25932" y="313.438281" style="stroke: #000000; stroke-width: 0.8"/>
      </g>
     </g>
     <g id="text_24">
      <!-- 25 -->
      <g transform="translate(727.89682 328.036719) scale(0.1 -0.1)">
       <use xlink:href="#DejaVuSans-32"/>
       <use xlink:href="#DejaVuSans-35" transform="translate(63.623047 0)"/>
      </g>
     </g>
    </g>
    <g id="xtick_13">
     <g id="line2d_43">
      <path d="M 788.706379 313.438281 
L 788.706379 21.558281 
" clip-path="url(#p3963f340a1)" style="fill: none; stroke: #b0b0b0; stroke-opacity: 0.3; stroke-width: 0.8; stroke-linecap: square"/>
     </g>
     <g id="line2d_44">
      <g>
       <use xlink:href="#ma223fe85bf" x="788.706379" y="313.438281" style="stroke: #000000; stroke-width: 0.8"/>
      </g>
     </g>
     <g id="text_25">
      <!-- 30 -->
      <g transform="translate(782.343879 328.036719) scale(0.1 -0.1)">
       <use xlink:href="#DejaVuSans-33"/>
       <use xlink:href="#DejaVuSans-30" transform="translate(63.623047 0)"/>
      </g>
     </g>
    </g>
    <g id="xtick_14">
     <g id="line2d_45">
      <path d="M 843.153438 313.438281 
L 843.153438 21.558281 
" clip-path="url(#p3963f340a1)" style="fill: none; stroke: #b0b0b0; stroke-opacity: 0.3; stroke-width: 0.8; stroke-linecap: square"/>
     </g>
     <g id="line2d_46">
      <g>
       <use xlink:href="#ma223fe85bf" x="843.153438" y="313.438281" style="stroke: #000000; stroke-width: 0.8"/>
      </g>
     </g>
     <g id="text_26">
      <!-- 35 -->
      <g transform="translate(836.790938 328.036719) scale(0.1 -0.1)">
       <use xlink:href="#DejaVuSans-33"/>
       <use xlink:href="#DejaVuSans-35" transform="translate(63.623047 0)"/>
      </g>
     </g>
    </g>
    <g id="text_27">
     <!-- Episode -->
     <g transform="translate(636.432187 342.474688) scale(0.11 -0.11)">
      <use xlink:href="#DejaVuSans-45"/>
      <use xlink:href="#DejaVuSans-70" transform="translate(63.183594 0)"/>
      <use xlink:href="#DejaVuSans-69" transform="translate(126.660156 0)"/>
      <use xlink:href="#DejaVuSans-73" transform="translate(154.443359 0)"/>
      <use xlink:href="#DejaVuSans-6f" transform="translate(206.542969 0)"/>
      <use xlink:href="#DejaVuSans-64" transform="translate(267.724609 0)"/>
      <use xlink:href="#DejaVuSans-65" transform="translate(331.201172 0)"/>
     </g>
    </g>
   </g>
   <g id="matplotlib.axis_4">
    <g id="ytick_7">
     <g id="line2d_47">
      <path d="M 472.913438 301.434858 
L 843.153437 301.434858 
" clip-path="url(#p3963f340a1)" style="fill: none; stroke: #b0b0b0; stroke-opacity: 0.3; stroke-width: 0.8; stroke-linecap: square"/>
     </g>
     <g id="line2d_48">
      <g>
       <use xlink:href="#m92ab4d9f3c" x="472.913438" y="301.434858" style="stroke: #000000; stroke-width: 0.8"/>
      </g>
     </g>
     <g id="text_28">
      <!-- 0.3 -->
      <g transform="translate(450.010313 305.234077) scale(0.1 -0.1)">
       <defs>
        <path id="DejaVuSans-2e" d="M 684 794 
L 1344 794 
L 1344 0 
L 684 0 
L 684 794 
z
" transform="scale(0.015625)"/>
       </defs>
       <use xlink:href="#DejaVuSans-30"/>
       <use xlink:href="#DejaVuSans-2e" transform="translate(63.623047 0)"/>
       <use xlink:href="#DejaVuSans-33" transform="translate(95.410156 0)"/>
      </g>
     </g>
    </g>
    <g id="ytick_8">
     <g id="line2d_49">
      <path d="M 472.913438 246.539596 
L 843.153437 246.539596 
" clip-path="url(#p3963f340a1)" style="fill: none; stroke: #b0b0b0; stroke-opacity: 0.3; stroke-width: 0.8; stroke-linecap: square"/>
     </g>
     <g id="line2d_50">
      <g>
       <use xlink:href="#m92ab4d9f3c" x="472.913438" y="246.539596" style="stroke: #000000; stroke-width: 0.8"/>
      </g>
     </g>
     <g id="text_29">
      <!-- 0.4 -->
      <g transform="translate(450.010313 250.338815) scale(0.1 -0.1)">
       <use xlink:href="#DejaVuSans-30"/>
       <use xlink:href="#DejaVuSans-2e" transform="translate(63.623047 0)"/>
       <use xlink:href="#DejaVuSans-34" transform="translate(95.410156 0)"/>
      </g>
     </g>
    </g>
    <g id="ytick_9">
     <g id="line2d_51">
      <path d="M 472.913438 191.644333 
L 843.153437 191.644333 
" clip-path="url(#p3963f340a1)" style="fill: none; stroke: #b0b0b0; stroke-opacity: 0.3; stroke-width: 0.8; stroke-linecap: square"/>
     </g>
     <g id="line2d_52">
      <g>
       <use xlink:href="#m92ab4d9f3c" x="472.913438" y="191.644333" style="stroke: #000000; stroke-width: 0.8"/>
      </g>
     </g>
     <g id="text_30">
      <!-- 0.5 -->
      <g transform="translate(450.010313 195.443552) scale(0.1 -0.1)">
       <use xlink:href="#DejaVuSans-30"/>
       <use xlink:href="#DejaVuSans-2e" transform="translate(63.623047 0)"/>
       <use xlink:href="#DejaVuSans-35" transform="translate(95.410156 0)"/>
      </g>
     </g>
    </g>
    <g id="ytick_10">
     <g id="line2d_53">
      <path d="M 472.913438 136.74907 
L 843.153437 136.74907 
" clip-path="url(#p3963f340a1)" style="fill: none; stroke: #b0b0b0; stroke-opacity: 0.3; stroke-width: 0.8; stroke-linecap: square"/>
     </g>
     <g id="line2d_54">
      <g>
       <use xlink:href="#m92ab4d9f3c" x="472.913438" y="136.74907" style="stroke: #000000; stroke-width: 0.8"/>
      </g>
     </g>
     <g id="text_31">
      <!-- 0.6 -->
      <g transform="translate(450.010313 140.548289) scale(0.1 -0.1)">
       <use xlink:href="#DejaVuSans-30"/>
       <use xlink:href="#DejaVuSans-2e" transform="translate(63.623047 0)"/>
       <use xlink:href="#DejaVuSans-36" transform="translate(95.410156 0)"/>
      </g>
     </g>
    </g>
    <g id="ytick_11">
     <g id="line2d_55">
      <path d="M 472.913438 81.853808 
L 843.153437 81.853808 
" clip-path="url(#p3963f340a1)" style="fill: none; stroke: #b0b0b0; stroke-opacity: 0.3; stroke-width: 0.8; stroke-linecap: square"/>
     </g>
     <g id="line2d_56">
      <g>
       <use xlink:href="#m92ab4d9f3c" x="472.913438" y="81.853808" style="stroke: #000000; stroke-width: 0.8"/>
      </g>
     </g>
     <g id="text_32">
      <!-- 0.7 -->
      <g transform="translate(450.010313 85.653026) scale(0.1 -0.1)">
       <use xlink:href="#DejaVuSans-30"/>
       <use xlink:href="#DejaVuSans-2e" transform="translate(63.623047 0)"/>
       <use xlink:href="#DejaVuSans-37" transform="translate(95.410156 0)"/>
      </g>
     </g>
    </g>
    <g id="ytick_12">
     <g id="line2d_57">
      <path d="M 472.913438 26.958545 
L 843.153437 26.958545 
" clip-path="url(#p3963f340a1)" style="fill: none; stroke: #b0b0b0; stroke-opacity: 0.3; stroke-width: 0.8; stroke-linecap: square"/>
     </g>
     <g id="line2d_58">
      <g>
       <use xlink:href="#m92ab4d9f3c" x="472.913438" y="26.958545" style="stroke: #000000; stroke-width: 0.8"/>
      </g>
     </g>
     <g id="text_33">
      <!-- 0.8 -->
      <g transform="translate(450.010313 30.757764) scale(0.1 -0.1)">
       <use xlink:href="#DejaVuSans-30"/>
       <use xlink:href="#DejaVuSans-2e" transform="translate(63.623047 0)"/>
       <use xlink:href="#DejaVuSans-38" transform="translate(95.410156 0)"/>
      </g>
     </g>
    </g>
    <g id="text_34">
     <!-- Latent Match Quality (LMQ) -->
     <g transform="translate(443.722656 243.225547) rotate(-90) scale(0.11 -0.11)">
      <defs>
       <path id="DejaVuSans-4c" d="M 628 4666 
L 1259 4666 
L 1259 531 
L 3531 531 
L 3531 0 
L 628 0 
L 628 4666 
z
" transform="scale(0.015625)"/>
       <path id="DejaVuSans-68" d="M 3513 2113 
L 3513 0 
L 2938 0 
L 2938 2094 
Q 2938 2591 2744 2837 
Q 2550 3084 2163 3084 
Q 1697 3084 1428 2787 
Q 1159 2491 1159 1978 
L 1159 0 
L 581 0 
L 581 4863 
L 1159 4863 
L 1159 2956 
Q 1366 3272 1645 3428 
Q 1925 3584 2291 3584 
Q 2894 3584 3203 3211 
Q 3513 2838 3513 2113 
z
" transform="scale(0.015625)"/>
       <path id="DejaVuSans-51" d="M 2522 4238 
Q 1834 4238 1429 3725 
Q 1025 3213 1025 2328 
Q 1025 1447 1429 934 
Q 1834 422 2522 422 
Q 3209 422 3611 934 
Q 4013 1447 4013 2328 
Q 4013 3213 3611 3725 
Q 3209 4238 2522 4238 
z
M 3406 84 
L 4238 -825 
L 3475 -825 
L 2784 -78 
Q 2681 -84 2626 -87 
Q 2572 -91 2522 -91 
Q 1538 -91 948 567 
Q 359 1225 359 2328 
Q 359 3434 948 4092 
Q 1538 4750 2522 4750 
Q 3503 4750 4090 4092 
Q 4678 3434 4678 2328 
Q 4678 1516 4351 937 
Q 4025 359 3406 84 
z
" transform="scale(0.015625)"/>
       <path id="DejaVuSans-79" d="M 2059 -325 
Q 1816 -950 1584 -1140 
Q 1353 -1331 966 -1331 
L 506 -1331 
L 506 -850 
L 844 -850 
Q 1081 -850 1212 -737 
Q 1344 -625 1503 -206 
L 1606 56 
L 191 3500 
L 800 3500 
L 1894 763 
L 2988 3500 
L 3597 3500 
L 2059 -325 
z
" transform="scale(0.015625)"/>
      </defs>
      <use xlink:href="#DejaVuSans-4c"/>
      <use xlink:href="#DejaVuSans-61" transform="translate(55.712891 0)"/>
      <use xlink:href="#DejaVuSans-74" transform="translate(116.992188 0)"/>
      <use xlink:href="#DejaVuSans-65" transform="translate(156.201172 0)"/>
      <use xlink:href="#DejaVuSans-6e" transform="translate(217.724609 0)"/>
      <use xlink:href="#DejaVuSans-74" transform="translate(281.103516 0)"/>
      <use xlink:href="#DejaVuSans-20" transform="translate(320.3125 0)"/>
      <use xlink:href="#DejaVuSans-4d" transform="translate(352.099609 0)"/>
      <use xlink:href="#DejaVuSans-61" transform="translate(438.378906 0)"/>
      <use xlink:href="#DejaVuSans-74" transform="translate(499.658203 0)"/>
      <use xlink:href="#DejaVuSans-63" transform="translate(538.867188 0)"/>
      <use xlink:href="#DejaVuSans-68" transform="translate(593.847656 0)"/>
      <use xlink:href="#DejaVuSans-20" transform="translate(657.226562 0)"/>
      <use xlink:href="#DejaVuSans-51" transform="translate(689.013672 0)"/>
      <use xlink:href="#DejaVuSans-75" transform="translate(767.724609 0)"/>
      <use xlink:href="#DejaVuSans-61" transform="translate(831.103516 0)"/>
      <use xlink:href="#DejaVuSans-6c" transform="translate(892.382812 0)"/>
      <use xlink:href="#DejaVuSans-69" transform="translate(920.166016 0)"/>
      <use xlink:href="#DejaVuSans-74" transform="translate(947.949219 0)"/>
      <use xlink:href="#DejaVuSans-79" transform="translate(987.158203 0)"/>
      <use xlink:href="#DejaVuSans-20" transform="translate(1046.337891 0)"/>
      <use xlink:href="#DejaVuSans-28" transform="translate(1078.125 0)"/>
      <use xlink:href="#DejaVuSans-4c" transform="translate(1117.138672 0)"/>
      <use xlink:href="#DejaVuSans-4d" transform="translate(1172.851562 0)"/>
      <use xlink:href="#DejaVuSans-51" transform="translate(1259.130859 0)"/>
      <use xlink:href="#DejaVuSans-29" transform="translate(1337.841797 0)"/>
     </g>
    </g>
   </g>
   <g id="line2d_59">
    <path d="M 472.913438 183.158733 
L 483.802849 148.467891 
L 494.692261 128.307057 
L 505.581673 120.931659 
L 516.471085 116.323641 
L 527.360496 111.154044 
L 538.249908 112.614148 
L 549.13932 107.047439 
L 560.028732 100.549158 
L 570.918143 95.250996 
L 581.807555 92.614048 
L 592.696967 93.10558 
L 603.586379 87.778983 
L 614.47579 87.814774 
L 625.365202 85.908152 
L 636.254614 87.600244 
L 647.144026 83.967934 
L 658.033437 83.080717 
L 668.922849 78.896819 
L 679.812261 79.070837 
L 690.701673 74.67746 
L 701.591085 73.114043 
L 712.480496 75.220484 
L 723.369908 73.150932 
L 734.25932 73.694176 
L 745.148732 73.559133 
L 756.038143 74.70359 
L 766.927555 72.35023 
L 777.816967 65.000413 
L 788.706379 72.566298 
L 799.59579 68.916751 
L 810.485202 68.70222 
L 821.374614 67.866604 
L 832.264026 69.338676 
L 843.153438 63.124861 
" clip-path="url(#p3963f340a1)" style="fill: none; stroke-dasharray: 5.92,2.56; stroke-dashoffset: 0; stroke: #4878cf; stroke-width: 1.6"/>
   </g>
   <g id="line2d_60">
    <path d="M 472.913438 291.036598 
L 483.802849 285.790477 
L 494.692261 289.267433 
L 505.581673 273.44596 
L 516.471085 268.339163 
L 527.360496 258.200338 
L 538.249908 247.176491 
L 549.13932 227.975884 
L 560.028732 212.84137 
L 570.918143 200.403311 
L 581.807555 192.804599 
L 592.696967 181.725637 
L 603.586379 163.604601 
L 614.47579 149.676356 
L 625.365202 139.336174 
L 636.254614 126.836962 
L 647.144026 128.685725 
L 658.033437 113.443835 
L 668.922849 108.232189 
L 679.812261 101.602269 
L 690.701673 89.144008 
L 701.591085 81.570438 
L 712.480496 75.796555 
L 723.369908 70.198885 
L 734.25932 63.065355 
L 745.148732 59.033847 
L 756.038143 59.17899 
L 766.927555 55.805017 
L 777.816967 57.30805 
L 788.706379 54.109961 
L 799.59579 55.628364 
L 810.485202 47.7633 
L 821.374614 50.584588 
L 832.264026 57.421353 
L 843.153438 51.715979 
" clip-path="url(#p3963f340a1)" style="fill: none; stroke: #2ca02c; stroke-width: 2; stroke-linecap: square"/>
   </g>
   <g id="line2d_61">
    <path d="M 472.913438 292.60759 
L 483.802849 292.086634 
L 494.692261 282.909244 
L 505.581673 277.047418 
L 516.471085 275.472364 
L 527.360496 262.286521 
L 538.249908 250.959653 
L 549.13932 250.468999 
L 560.028732 239.743892 
L 570.918143 226.559696 
L 581.807555 216.795037 
L 592.696967 201.685226 
L 603.586379 188.928445 
L 614.47579 174.975716 
L 625.365202 151.765011 
L 636.254614 142.905684 
L 647.144026 138.467182 
L 658.033437 128.377543 
L 668.922849 122.124643 
L 679.812261 117.845996 
L 690.701673 103.16338 
L 701.591085 86.823476 
L 712.480496 74.339964 
L 723.369908 66.59018 
L 734.25932 71.371008 
L 745.148732 66.351166 
L 756.038143 64.979333 
L 766.927555 68.502292 
L 777.816967 59.634181 
L 788.706379 58.571958 
L 799.59579 63.22016 
L 810.485202 56.659078 
L 821.374614 58.051551 
L 832.264026 52.926859 
L 843.153438 55.338078 
" clip-path="url(#p3963f340a1)" style="fill: none; stroke: #d65f5f; stroke-width: 1.6; stroke-linecap: square"/>
   </g>
   <g id="patch_9">
    <path d="M 472.913438 313.438281 
L 472.913438 21.558281 
" style="fill: none; stroke: #000000; stroke-width: 0.8; stroke-linejoin: miter; stroke-linecap: square"/>
   </g>
   <g id="patch_10">
    <path d="M 843.153437 313.438281 
L 843.153437 21.558281 
" style="fill: none; stroke: #000000; stroke-width: 0.8; stroke-linejoin: miter; stroke-linecap: square"/>
   </g>
   <g id="patch_11">
    <path d="M 472.913438 313.438281 
L 843.153438 313.438281 
" style="fill: none; stroke: #000000; stroke-width: 0.8; stroke-linejoin: miter; stroke-linecap: square"/>
   </g>
   <g id="patch_12">
    <path d="M 472.913438 21.558281 
L 843.153438 21.558281 
" style="fill: none; stroke: #000000; stroke-width: 0.8; stroke-linejoin: miter; stroke-linecap: square"/>
   </g>
   <g id="text_35">
    <!-- Figure 11b — LMQ trajectories -->
    <g transform="translate(574.836484 15.558281) scale(0.11 -0.11)">
     <defs>
      <path id="DejaVuSans-6a" d="M 603 3500 
L 1178 3500 
L 1178 -63 
Q 1178 -731 923 -1031 
Q 669 -1331 103 -1331 
L -116 -1331 
L -116 -844 
L 38 -844 
Q 366 -844 484 -692 
Q 603 -541 603 -63 
L 603 3500 
z
M 603 4863 
L 1178 4863 
L 1178 4134 
L 603 4134 
L 603 4863 
z
" transform="scale(0.015625)"/>
     </defs>
     <use xlink:href="#DejaVuSans-46"/>
     <use xlink:href="#DejaVuSans-69" transform="translate(50.269531 0)"/>
     <use xlink:href="#DejaVuSans-67" transform="translate(78.052734 0)"/>
     <use xlink:href="#DejaVuSans-75" transform="translate(141.529297 0)"/>
     <use xlink:href="#DejaVuSans-72" transform="translate(204.908203 0)"/>
     <use xlink:href="#DejaVuSans-65" transform="translate(243.771484 0)"/>
     <use xlink:href="#DejaVuSans-20" transform="translate(305.294922 0)"/>
     <use xlink:href="#DejaVuSans-31" transform="translate(337.082031 0)"/>
     <use xlink:href="#DejaVuSans-31" transform="translate(400.705078 0)"/>
     <use xlink:href="#DejaVuSans-62" transform="translate(464.328125 0)"/>
     <use xlink:href="#DejaVuSans-20" transform="translate(527.804688 0)"/>
     <use xlink:href="#DejaVuSans-2014" transform="translate(559.591797 0)"/>
     <use xlink:href="#DejaVuSans-20" transform="translate(659.591797 0)"/>
     <use xlink:href="#DejaVuSans-4c" transform="translate(691.378906 0)"/>
     <use xlink:href="#DejaVuSans-4d" transform="translate(747.091797 0)"/>
     <use xlink:href="#DejaVuSans-51" transform="translate(833.371094 0)"/>
     <use xlink:href="#DejaVuSans-20" transform="translate(912.082031 0)"/>
     <use xlink:href="#DejaVuSans-74" transform="translate(943.869141 0)"/>
     <use xlink:href="#DejaVuSans-72" transform="translate(983.078125 0)"/>
     <use xlink:href="#DejaVuSans-61" transform="translate(1024.191406 0)"/>
     <use xlink:href="#DejaVuSans-6a" transform="translate(1085.470703 0)"/>
     <use xlink:href="#DejaVuSans-65" transform="translate(1113.253906 0)"/>
     <use xlink:href="#DejaVuSans-63" transform="translate(1174.777344 0)"/>
     <use xlink:href="#DejaVuSans-74" transform="translate(1229.757812 0)"/>
     <use xlink:href="#DejaVuSans-6f" transform="translate(1268.966797 0)"/>
     <use xlink:href="#DejaVuSans-72" transform="translate(1330.148438 0)"/>
     <use xlink:href="#DejaVuSans-69" transform="translate(1371.261719 0)"/>
     <use xlink:href="#DejaVuSans-65" transform="translate(1399.044922 0)"/>
     <use xlink:href="#DejaVuSans-73" transform="translate(1460.568359 0)"/>
    </g>
   </g>
   <g id="legend_2">
    <g id="patch_13">
     <path d="M 697.23 308.438281 
L 836.153437 308.438281 
Q 838.153437 308.438281 838.153437 306.438281 
L 838.153437 263.403906 
Q 838.153437 261.403906 836.153437 261.403906 
L 697.23 261.403906 
Q 695.23 261.403906 695.23 263.403906 
L 695.23 306.438281 
Q 695.23 308.438281 697.23 308.438281 
z
" style="fill: #ffffff; opacity: 0.8; stroke: #cccccc; stroke-linejoin: miter"/>
    </g>
    <g id="line2d_62">
     <path d="M 699.23 269.502344 
L 709.23 269.502344 
L 719.23 269.502344 
" style="fill: none; stroke-dasharray: 5.92,2.56; stroke-dashoffset: 0; stroke: #4878cf; stroke-width: 1.6"/>
    </g>
    <g id="text_36">
     <!-- UCB-Indep -->
     <g transform="translate(727.23 273.002344) scale(0.1 -0.1)">
      <use xlink:href="#DejaVuSans-55"/>
      <use xlink:href="#DejaVuSans-43" transform="translate(73.193359 0)"/>
      <use xlink:href="#DejaVuSans-42" transform="translate(143.017578 0)"/>
      <use xlink:href="#DejaVuSans-2d" transform="translate(211.621094 0)"/>
      <use xlink:href="#DejaVuSans-49" transform="translate(247.705078 0)"/>
      <use xlink:href="#DejaVuSans-6e" transform="translate(277.197266 0)"/>
      <use xlink:href="#DejaVuSans-64" transform="translate(340.576172 0)"/>
      <use xlink:href="#DejaVuSans-65" transform="translate(404.052734 0)"/>
      <use xlink:href="#DejaVuSans-70" transform="translate(465.576172 0)"/>
     </g>
    </g>
    <g id="line2d_63">
     <path d="M 699.23 284.180469 
L 709.23 284.180469 
L 719.23 284.180469 
" style="fill: none; stroke: #2ca02c; stroke-width: 2; stroke-linecap: square"/>
    </g>
    <g id="text_37">
     <!-- MF-CF (broadcast) -->
     <g transform="translate(727.23 287.680469) scale(0.1 -0.1)">
      <use xlink:href="#DejaVuSans-4d"/>
      <use xlink:href="#DejaVuSans-46" transform="translate(86.279297 0)"/>
      <use xlink:href="#DejaVuSans-2d" transform="translate(143.798828 0)"/>
      <use xlink:href="#DejaVuSans-43" transform="translate(179.882812 0)"/>
      <use xlink:href="#DejaVuSans-46" transform="translate(249.707031 0)"/>
      <use xlink:href="#DejaVuSans-20" transform="translate(307.226562 0)"/>
      <use xlink:href="#DejaVuSans-28" transform="translate(339.013672 0)"/>
      <use xlink:href="#DejaVuSans-62" transform="translate(378.027344 0)"/>
      <use xlink:href="#DejaVuSans-72" transform="translate(441.503906 0)"/>
      <use xlink:href="#DejaVuSans-6f" transform="translate(480.367188 0)"/>
      <use xlink:href="#DejaVuSans-61" transform="translate(541.548828 0)"/>
      <use xlink:href="#DejaVuSans-64" transform="translate(602.828125 0)"/>
      <use xlink:href="#DejaVuSans-63" transform="translate(666.304688 0)"/>
      <use xlink:href="#DejaVuSans-61" transform="translate(721.285156 0)"/>
      <use xlink:href="#DejaVuSans-73" transform="translate(782.564453 0)"/>
      <use xlink:href="#DejaVuSans-74" transform="translate(834.664062 0)"/>
      <use xlink:href="#DejaVuSans-29" transform="translate(873.873047 0)"/>
     </g>
    </g>
    <g id="line2d_64">
     <path d="M 699.23 298.858594 
L 709.23 298.858594 
L 719.23 298.858594 
" style="fill: none; stroke: #d65f5f; stroke-width: 1.6; stroke-linecap: square"/>
    </g>
    <g id="text_38">
     <!-- MF-CF (no broadcast) -->
     <g transform="translate(727.23 302.358594) scale(0.1 -0.1)">
      <use xlink:href="#DejaVuSans-4d"/>
      <use xlink:href="#DejaVuSans-46" transform="translate(86.279297 0)"/>
      <use xlink:href="#DejaVuSans-2d" transform="translate(143.798828 0)"/>
      <use xlink:href="#DejaVuSans-43" transform="translate(179.882812 0)"/>
      <use xlink:href="#DejaVuSans-46" transform="translate(249.707031 0)"/>
      <use xlink:href="#DejaVuSans-20" transform="translate(307.226562 0)"/>
      <use xlink:href="#DejaVuSans-28" transform="translate(339.013672 0)"/>
      <use xlink:href="#DejaVuSans-6e" transform="translate(378.027344 0)"/>
      <use xlink:href="#DejaVuSans-6f" transform="translate(441.40625 0)"/>
      <use xlink:href="#DejaVuSans-20" transform="translate(502.587891 0)"/>
      <use xlink:href="#DejaVuSans-62" transform="translate(534.375 0)"/>
      <use xlink:href="#DejaVuSans-72" transform="translate(597.851562 0)"/>
      <use xlink:href="#DejaVuSans-6f" transform="translate(636.714844 0)"/>
      <use xlink:href="#DejaVuSans-61" transform="translate(697.896484 0)"/>
      <use xlink:href="#DejaVuSans-64" transform="translate(759.175781 0)"/>
      <use xlink:href="#DejaVuSans-63" transform="translate(822.652344 0)"/>
      <use xlink:href="#DejaVuSans-61" transform="translate(877.632812 0)"/>
      <use xlink:href="#DejaVuSans-73" transform="translate(938.912109 0)"/>
      <use xlink:href="#DejaVuSans-74" transform="translate(991.011719 0)"/>
      <use xlink:href="#DejaVuSans-29" transform="translate(1030.220703 0)"/>
     </g>
    </g>
   </g>
  </g>
 </g>
 <defs>
  <clipPath id="p2ee7cd7968">
   <rect x="47.933438" y="21.558281" width="370.24" height="291.88"/>
  </clipPath>
  <clipPath id="p3963f340a1">
   <rect x="472.913438" y="21.558281" width="370.24" height="291.88"/>
  </clipPath>
 </defs>
</svg>
