<?xml version="1.0" encoding="utf-8" standalone="no"?>
<!DOCTYPE svg PUBLIC "-//W3C//DTD SVG 1.1//EN"
  "http://www.w3.org/Graphics/SVG/1.1/DTD/svg11.dtd">
<svg xmlns:xlink="http://www.w3.org/1999/xlink" width="856.715937pt" height="351.962344pt" viewBox="0 0 856.715937 351.962344" xmlns="http://www.w3.org/2000/svg" version="1.1">
 <metadata>
  <rdf:RDF xmlns:dc="http://purl.org/dc/elements/1.1/" xmlns:cc="http://creativecommons.org/ns#" xmlns:rdf="http://www.w3.org/1999/02/22-rdf-syntax-ns#">
   <cc:Work>
    <dc:type rdf:resource="http://purl.org/dc/dcmitype/StillImage"/>
    <dc:date>2026-05-11T18:52:52.094207</dc:date>
    <dc:format>image/svg+xml</dc:format>
    <dc:creator>
     <cc:Agent>
      <dc:title>Matplotlib v3.10.8, https://matplotlib.org/</dc:title>
     </cc:Agent>
    </dc:creator>
   </cc:Work>
  </rdf:RDF>
 </metadata>
 <defs>
  <style type="text/css">*{stroke-linejoin: round; stroke-linecap: butt}</style>
 </defs>
 <g id="figure_1">
  <g id="patch_1">
   <path d="M 0 351.962344 
L 856.715937 351.962344 
L 856.715937 0 
L 0 0 
z
" style="fill: #ffffff"/>
  </g>
  <g id="axes_1">
   <g id="patch_2">
    <path d="M 47.933438 313.438281 
L 386.148574 313.438281 
L 386.148574 21.558281 
L 47.933438 21.558281 
z
" style="fill: #ffffff"/>
   </g>
   <g id="FillBetweenPolyCollection_1">
    <defs>
     <path id="m440979721f" d="M 47.933438 -313.969127 
L 47.933438 -246.12737 
L 52.835106 -234.70902 
L 57.736775 -240.480266 
L 62.638443 -208.751029 
L 67.540112 -211.521162 
L 72.441781 -201.224861 
L 77.343449 -189.578399 
L 82.245118 -171.143991 
L 87.146787 -156.241822 
L 92.048455 -144.807391 
L 96.950124 -142.168657 
L 101.851793 -134.610408 
L 106.753461 -127.88068 
L 111.65513 -116.145712 
L 116.556799 -113.184059 
L 121.458467 -101.992283 
L 126.360136 -101.409304 
L 131.261805 -90.477174 
L 136.163473 -89.366595 
L 141.065142 -84.430379 
L 145.96681 -77.526075 
L 150.868479 -72.606123 
L 155.770148 -70.110583 
L 160.671816 -67.364927 
L 165.573485 -63.618674 
L 170.475154 -62.079904 
L 175.376822 -62.409747 
L 180.278491 -60.424696 
L 185.18016 -61.735533 
L 190.081828 -62.148342 
L 194.983497 -61.736236 
L 199.885166 -58.28988 
L 204.786834 -59.513687 
L 209.688503 -62.736325 
L 214.590172 -59.243266 
L 219.49184 -60.424696 
L 224.393509 -58.631074 
L 229.295177 -57.089346 
L 234.196846 -58.746629 
L 239.098515 -59.638626 
L 244.000183 -58.459977 
L 248.901852 -60.304639 
L 253.803521 -58.739852 
L 258.705189 -60.548071 
L 263.606858 -60.039196 
L 268.508527 -58.782737 
L 273.410195 -58.596078 
L 278.311864 -57.428519 
L 283.213533 -59.874045 
L 288.115201 -57.434034 
L 293.01687 -55.448819 
L 297.918539 -58.594906 
L 302.820207 -56.492649 
L 307.721876 -56.792564 
L 312.623544 -56.737954 
L 317.525213 -55.743483 
L 322.426882 -56.737954 
L 327.32855 -55.365583 
L 332.230219 -55.497862 
L 337.131888 -58.158395 
L 342.033556 -56.467104 
L 346.935225 -55.820781 
L 351.836894 -55.365583 
L 356.738562 -54.495669 
L 361.640231 -55.473317 
L 366.5419 -55.107836 
L 371.443568 -53.753914 
L 376.345237 -53.506202 
L 381.246906 -54.629741 
L 386.148574 -54.748795 
L 386.148574 -79.548516 
L 386.148574 -79.548516 
L 381.246906 -77.673195 
L 376.345237 -77.799546 
L 371.443568 -79.54621 
L 366.5419 -80.186663 
L 361.640231 -80.81837 
L 356.738562 -77.807267 
L 351.836894 -78.931728 
L 346.935225 -81.468094 
L 342.033556 -80.82177 
L 337.131888 -82.122043 
L 332.230219 -80.793825 
L 327.32855 -78.931728 
L 322.426882 -79.553733 
L 317.525213 -79.551016 
L 312.623544 -79.553733 
L 307.721876 -79.499123 
L 302.820207 -80.796225 
L 297.918539 -82.68272 
L 293.01687 -80.842868 
L 288.115201 -80.852029 
L 283.213533 -83.397956 
L 278.311864 -82.851919 
L 273.410195 -84.675923 
L 268.508527 -83.492077 
L 263.606858 -84.229993 
L 258.705189 -84.718306 
L 253.803521 -84.532149 
L 248.901852 -82.967363 
L 244.000183 -83.814837 
L 239.098515 -83.633376 
L 234.196846 -85.52256 
L 229.295177 -84.18828 
L 224.393509 -85.638115 
L 219.49184 -86.836057 
L 214.590172 -85.025923 
L 209.688503 -87.51599 
L 204.786834 -86.749878 
L 199.885166 -84.982121 
L 194.983497 -87.518892 
L 190.081828 -88.103974 
L 185.18016 -89.51397 
L 180.278491 -86.836057 
L 175.376822 -89.836944 
L 170.475154 -86.178036 
L 165.573485 -88.628017 
L 160.671816 -91.862079 
L 155.770148 -91.110799 
L 150.868479 -95.595573 
L 145.96681 -97.655935 
L 141.065142 -103.715073 
L 136.163473 -111.742298 
L 131.261805 -110.631719 
L 126.360136 -121.63772 
L 121.458467 -117.06599 
L 116.556799 -122.826406 
L 111.65513 -129.836632 
L 106.753461 -146.022922 
L 101.851793 -158.239761 
L 96.950124 -172.619644 
L 92.048455 -195.907792 
L 87.146787 -192.450863 
L 82.245118 -211.453079 
L 77.343449 -236.894934 
L 72.441781 -242.200665 
L 67.540112 -259.825622 
L 62.638443 -281.542322 
L 57.736775 -315.62748 
L 52.835106 -310.429659 
L 47.933438 -313.969127 
z
" style="stroke: #2ca02c; stroke-opacity: 0.13"/>
    </defs>
    <g clip-path="url(#pbd22e69f85)">
     <use xlink:href="#m440979721f" x="0" y="351.962344" style="fill: #2ca02c; fill-opacity: 0.13; stroke: #2ca02c; stroke-opacity: 0.13"/>
    </g>
   </g>
   <g id="FillBetweenPolyCollection_2">
    <defs>
     <path id="ma7a93584b9" d="M 47.933438 -317.13679 
L 47.933438 -245.95127 
L 52.835106 -245.853043 
L 57.736775 -230.413823 
L 62.638443 -215.87052 
L 67.540112 -216.752733 
L 72.441781 -197.401385 
L 77.343449 -180.079313 
L 82.245118 -181.332239 
L 87.146787 -169.094002 
L 92.048455 -156.33885 
L 96.950124 -146.919146 
L 101.851793 -136.43404 
L 106.753461 -123.382748 
L 111.65513 -108.690396 
L 116.556799 -94.041586 
L 121.458467 -87.457876 
L 126.360136 -84.423864 
L 131.261805 -80.362972 
L 136.163473 -78.286941 
L 141.065142 -75.859097 
L 145.96681 -70.664495 
L 150.868479 -65.791567 
L 155.770148 -63.4597 
L 160.671816 -59.324373 
L 165.573485 -61.955037 
L 170.475154 -59.70335 
L 175.376822 -59.32273 
L 180.278491 -60.243356 
L 185.18016 -56.370221 
L 190.081828 -55.604515 
L 194.983497 -57.771612 
L 199.885166 -56.090164 
L 204.786834 -56.774425 
L 209.688503 -53.923703 
L 214.590172 -55.257417 
L 219.49184 -56.965698 
L 224.393509 -53.087737 
L 229.295177 -55.278643 
L 234.196846 -56.788361 
L 239.098515 -53.874961 
L 244.000183 -54.849445 
L 248.901852 -55.107836 
L 253.803521 -54.526554 
L 258.705189 -54.781109 
L 263.606858 -55.391985 
L 268.508527 -53.778032 
L 273.410195 -54.154093 
L 278.311864 -54.67384 
L 283.213533 -55.332889 
L 288.115201 -55.332889 
L 293.01687 -54.421799 
L 297.918539 -53.646797 
L 302.820207 -55.128335 
L 307.721876 -54.525266 
L 312.623544 -53.923703 
L 317.525213 -52.890492 
L 322.426882 -53.869802 
L 327.32855 -51.909808 
L 332.230219 -54.847562 
L 337.131888 -52.133844 
L 342.033556 -53.054125 
L 346.935225 -53.139354 
L 351.836894 -52.560287 
L 356.738562 -51.843822 
L 361.640231 -51.791335 
L 366.5419 -52.368747 
L 371.443568 -51.949501 
L 376.345237 -52.032297 
L 381.246906 -53.303236 
L 386.148574 -54.002408 
L 386.148574 -77.303339 
L 386.148574 -77.303339 
L 381.246906 -78.002512 
L 376.345237 -77.279075 
L 371.443568 -75.367496 
L 366.5419 -75.945438 
L 361.640231 -75.525661 
L 356.738562 -75.473175 
L 351.836894 -76.751085 
L 346.935225 -76.172018 
L 342.033556 -78.251622 
L 337.131888 -76.180341 
L 332.230219 -77.455373 
L 327.32855 -77.401564 
L 322.426882 -77.435946 
L 317.525213 -77.418068 
L 312.623544 -79.376421 
L 307.721876 -79.772045 
L 302.820207 -78.171789 
L 297.918539 -78.656139 
L 293.01687 -78.878325 
L 288.115201 -79.96161 
L 283.213533 -79.96161 
L 278.311864 -79.623471 
L 273.410195 -78.148843 
L 268.508527 -79.522091 
L 263.606858 -78.905326 
L 258.705189 -81.510578 
L 253.803521 -80.767945 
L 248.901852 -80.186663 
L 244.000183 -79.447866 
L 239.098515 -79.425162 
L 234.196846 -81.497701 
L 229.295177 -81.013044 
L 224.393509 -79.215199 
L 219.49184 -81.320364 
L 214.590172 -80.037082 
L 209.688503 -79.376421 
L 204.786834 -82.508826 
L 199.885166 -81.198711 
L 194.983497 -83.506013 
L 190.081828 -81.68436 
L 185.18016 -82.913029 
L 180.278491 -85.023021 
L 175.376822 -82.952083 
L 170.475154 -85.563027 
L 165.573485 -87.300091 
L 160.671816 -85.942003 
L 155.770148 -86.792616 
L 150.868479 -93.435439 
L 145.96681 -104.517515 
L 141.065142 -113.283543 
L 136.163473 -114.844449 
L 131.261805 -119.748733 
L 126.360136 -125.659719 
L 121.458467 -129.606021 
L 116.556799 -137.980129 
L 111.65513 -153.246952 
L 106.753461 -159.495543 
L 101.851793 -175.362698 
L 96.950124 -201.773539 
L 92.048455 -216.286343 
L 87.146787 -245.413077 
L 82.245118 -248.132657 
L 77.343449 -252.377147 
L 72.441781 -269.956647 
L 67.540112 -293.484374 
L 62.638443 -293.369399 
L 57.736775 -314.724856 
L 52.835106 -313.246266 
L 47.933438 -317.13679 
z
" style="stroke: #d65f5f; stroke-opacity: 0.13"/>
    </defs>
    <g clip-path="url(#pbd22e69f85)">
     <use xlink:href="#ma7a93584b9" x="0" y="351.962344" style="fill: #d65f5f; fill-opacity: 0.13; stroke: #d65f5f; stroke-opacity: 0.13"/>
    </g>
   </g>
   <g id="matplotlib.axis_1">
    <g id="xtick_1">
     <g id="line2d_1">
      <path d="M 92.048455 313.438281 
L 92.048455 21.558281 
" clip-path="url(#pbd22e69f85)" style="fill: none; stroke: #b0b0b0; stroke-opacity: 0.3; stroke-width: 0.8; stroke-linecap: square"/>
     </g>
     <g id="line2d_2">
      <defs>
       <path id="m559bd5500b" d="M 0 0 
L 0 3.5 
" style="stroke: #000000; stroke-width: 0.8"/>
      </defs>
      <g>
       <use xlink:href="#m559bd5500b" x="92.048455" y="313.438281" style="stroke: #000000; stroke-width: 0.8"/>
      </g>
     </g>
     <g id="text_1">
      <!-- 10 -->
      <g transform="translate(85.685955 328.036719) scale(0.1 -0.1)">
       <defs>
        <path id="DejaVuSans-31" d="M 794 531 
L 1825 531 
L 1825 4091 
L 703 3866 
L 703 4441 
L 1819 4666 
L 2450 4666 
L 2450 531 
L 3481 531 
L 3481 0 
L 794 0 
L 794 531 
z
" transform="scale(0.015625)"/>
        <path id="DejaVuSans-30" d="M 2034 4250 
Q 1547 4250 1301 3770 
Q 1056 3291 1056 2328 
Q 1056 1369 1301 889 
Q 1547 409 2034 409 
Q 2525 409 2770 889 
Q 3016 1369 3016 2328 
Q 3016 3291 2770 3770 
Q 2525 4250 2034 4250 
z
M 2034 4750 
Q 2819 4750 3233 4129 
Q 3647 3509 3647 2328 
Q 3647 1150 3233 529 
Q 2819 -91 2034 -91 
Q 1250 -91 836 529 
Q 422 1150 422 2328 
Q 422 3509 836 4129 
Q 1250 4750 2034 4750 
z
" transform="scale(0.015625)"/>
       </defs>
       <use xlink:href="#DejaVuSans-31"/>
       <use xlink:href="#DejaVuSans-30" transform="translate(63.623047 0)"/>
      </g>
     </g>
    </g>
    <g id="xtick_2">
     <g id="line2d_3">
      <path d="M 141.065142 313.438281 
L 141.065142 21.558281 
" clip-path="url(#pbd22e69f85)" style="fill: none; stroke: #b0b0b0; stroke-opacity: 0.3; stroke-width: 0.8; stroke-linecap: square"/>
     </g>
     <g id="line2d_4">
      <g>
       <use xlink:href="#m559bd5500b" x="141.065142" y="313.438281" style="stroke: #000000; stroke-width: 0.8"/>
      </g>
     </g>
     <g id="text_2">
      <!-- 20 -->
      <g transform="translate(134.702642 328.036719) scale(0.1 -0.1)">
       <defs>
        <path id="DejaVuSans-32" d="M 1228 531 
L 3431 531 
L 3431 0 
L 469 0 
L 469 531 
Q 828 903 1448 1529 
Q 2069 2156 2228 2338 
Q 2531 2678 2651 2914 
Q 2772 3150 2772 3378 
Q 2772 3750 2511 3984 
Q 2250 4219 1831 4219 
Q 1534 4219 1204 4116 
Q 875 4013 500 3803 
L 500 4441 
Q 881 4594 1212 4672 
Q 1544 4750 1819 4750 
Q 2544 4750 2975 4387 
Q 3406 4025 3406 3419 
Q 3406 3131 3298 2873 
Q 3191 2616 2906 2266 
Q 2828 2175 2409 1742 
Q 1991 1309 1228 531 
z
" transform="scale(0.015625)"/>
       </defs>
       <use xlink:href="#DejaVuSans-32"/>
       <use xlink:href="#DejaVuSans-30" transform="translate(63.623047 0)"/>
      </g>
     </g>
    </g>
    <g id="xtick_3">
     <g id="line2d_5">
      <path d="M 190.081828 313.438281 
L 190.081828 21.558281 
" clip-path="url(#pbd22e69f85)" style="fill: none; stroke: #b0b0b0; stroke-opacity: 0.3; stroke-width: 0.8; stroke-linecap: square"/>
     </g>
     <g id="line2d_6">
      <g>
       <use xlink:href="#m559bd5500b" x="190.081828" y="313.438281" style="stroke: #000000; stroke-width: 0.8"/>
      </g>
     </g>
     <g id="text_3">
      <!-- 30 -->
      <g transform="translate(183.719328 328.036719) scale(0.1 -0.1)">
       <defs>
        <path id="DejaVuSans-33" d="M 2597 2516 
Q 3050 2419 3304 2112 
Q 3559 1806 3559 1356 
Q 3559 666 3084 287 
Q 2609 -91 1734 -91 
Q 1441 -91 1130 -33 
Q 819 25 488 141 
L 488 750 
Q 750 597 1062 519 
Q 1375 441 1716 441 
Q 2309 441 2620 675 
Q 2931 909 2931 1356 
Q 2931 1769 2642 2001 
Q 2353 2234 1838 2234 
L 1294 2234 
L 1294 2753 
L 1863 2753 
Q 2328 2753 2575 2939 
Q 2822 3125 2822 3475 
Q 2822 3834 2567 4026 
Q 2313 4219 1838 4219 
Q 1578 4219 1281 4162 
Q 984 4106 628 3988 
L 628 4550 
Q 988 4650 1302 4700 
Q 1616 4750 1894 4750 
Q 2613 4750 3031 4423 
Q 3450 4097 3450 3541 
Q 3450 3153 3228 2886 
Q 3006 2619 2597 2516 
z
" transform="scale(0.015625)"/>
       </defs>
       <use xlink:href="#DejaVuSans-33"/>
       <use xlink:href="#DejaVuSans-30" transform="translate(63.623047 0)"/>
      </g>
     </g>
    </g>
    <g id="xtick_4">
     <g id="line2d_7">
      <path d="M 239.098515 313.438281 
L 239.098515 21.558281 
" clip-path="url(#pbd22e69f85)" style="fill: none; stroke: #b0b0b0; stroke-opacity: 0.3; stroke-width: 0.8; stroke-linecap: square"/>
     </g>
     <g id="line2d_8">
      <g>
       <use xlink:href="#m559bd5500b" x="239.098515" y="313.438281" style="stroke: #000000; stroke-width: 0.8"/>
      </g>
     </g>
     <g id="text_4">
      <!-- 40 -->
      <g transform="translate(232.736015 328.036719) scale(0.1 -0.1)">
       <defs>
        <path id="DejaVuSans-34" d="M 2419 4116 
L 825 1625 
L 2419 1625 
L 2419 4116 
z
M 2253 4666 
L 3047 4666 
L 3047 1625 
L 3713 1625 
L 3713 1100 
L 3047 1100 
L 3047 0 
L 2419 0 
L 2419 1100 
L 313 1100 
L 313 1709 
L 2253 4666 
z
" transform="scale(0.015625)"/>
       </defs>
       <use xlink:href="#DejaVuSans-34"/>
       <use xlink:href="#DejaVuSans-30" transform="translate(63.623047 0)"/>
      </g>
     </g>
    </g>
    <g id="xtick_5">
     <g id="line2d_9">
      <path d="M 288.115201 313.438281 
L 288.115201 21.558281 
" clip-path="url(#pbd22e69f85)" style="fill: none; stroke: #b0b0b0; stroke-opacity: 0.3; stroke-width: 0.8; stroke-linecap: square"/>
     </g>
     <g id="line2d_10">
      <g>
       <use xlink:href="#m559bd5500b" x="288.115201" y="313.438281" style="stroke: #000000; stroke-width: 0.8"/>
      </g>
     </g>
     <g id="text_5">
      <!-- 50 -->
      <g transform="translate(281.752701 328.036719) scale(0.1 -0.1)">
       <defs>
        <path id="DejaVuSans-35" d="M 691 4666 
L 3169 4666 
L 3169 4134 
L 1269 4134 
L 1269 2991 
Q 1406 3038 1543 3061 
Q 1681 3084 1819 3084 
Q 2600 3084 3056 2656 
Q 3513 2228 3513 1497 
Q 3513 744 3044 326 
Q 2575 -91 1722 -91 
Q 1428 -91 1123 -41 
Q 819 9 494 109 
L 494 744 
Q 775 591 1075 516 
Q 1375 441 1709 441 
Q 2250 441 2565 725 
Q 2881 1009 2881 1497 
Q 2881 1984 2565 2268 
Q 2250 2553 1709 2553 
Q 1456 2553 1204 2497 
Q 953 2441 691 2322 
L 691 4666 
z
" transform="scale(0.015625)"/>
       </defs>
       <use xlink:href="#DejaVuSans-35"/>
       <use xlink:href="#DejaVuSans-30" transform="translate(63.623047 0)"/>
      </g>
     </g>
    </g>
    <g id="xtick_6">
     <g id="line2d_11">
      <path d="M 337.131888 313.438281 
L 337.131888 21.558281 
" clip-path="url(#pbd22e69f85)" style="fill: none; stroke: #b0b0b0; stroke-opacity: 0.3; stroke-width: 0.8; stroke-linecap: square"/>
     </g>
     <g id="line2d_12">
      <g>
       <use xlink:href="#m559bd5500b" x="337.131888" y="313.438281" style="stroke: #000000; stroke-width: 0.8"/>
      </g>
     </g>
     <g id="text_6">
      <!-- 60 -->
      <g transform="translate(330.769388 328.036719) scale(0.1 -0.1)">
       <defs>
        <path id="DejaVuSans-36" d="M 2113 2584 
Q 1688 2584 1439 2293 
Q 1191 2003 1191 1497 
Q 1191 994 1439 701 
Q 1688 409 2113 409 
Q 2538 409 2786 701 
Q 3034 994 3034 1497 
Q 3034 2003 2786 2293 
Q 2538 2584 2113 2584 
z
M 3366 4563 
L 3366 3988 
Q 3128 4100 2886 4159 
Q 2644 4219 2406 4219 
Q 1781 4219 1451 3797 
Q 1122 3375 1075 2522 
Q 1259 2794 1537 2939 
Q 1816 3084 2150 3084 
Q 2853 3084 3261 2657 
Q 3669 2231 3669 1497 
Q 3669 778 3244 343 
Q 2819 -91 2113 -91 
Q 1303 -91 875 529 
Q 447 1150 447 2328 
Q 447 3434 972 4092 
Q 1497 4750 2381 4750 
Q 2619 4750 2861 4703 
Q 3103 4656 3366 4563 
z
" transform="scale(0.015625)"/>
       </defs>
       <use xlink:href="#DejaVuSans-36"/>
       <use xlink:href="#DejaVuSans-30" transform="translate(63.623047 0)"/>
      </g>
     </g>
    </g>
    <g id="xtick_7">
     <g id="line2d_13">
      <path d="M 386.148574 313.438281 
L 386.148574 21.558281 
" clip-path="url(#pbd22e69f85)" style="fill: none; stroke: #b0b0b0; stroke-opacity: 0.3; stroke-width: 0.8; stroke-linecap: square"/>
     </g>
     <g id="line2d_14">
      <g>
       <use xlink:href="#m559bd5500b" x="386.148574" y="313.438281" style="stroke: #000000; stroke-width: 0.8"/>
      </g>
     </g>
     <g id="text_7">
      <!-- 70 -->
      <g transform="translate(379.786074 328.036719) scale(0.1 -0.1)">
       <defs>
        <path id="DejaVuSans-37" d="M 525 4666 
L 3525 4666 
L 3525 4397 
L 1831 0 
L 1172 0 
L 2766 4134 
L 525 4134 
L 525 4666 
z
" transform="scale(0.015625)"/>
       </defs>
       <use xlink:href="#DejaVuSans-37"/>
       <use xlink:href="#DejaVuSans-30" transform="translate(63.623047 0)"/>
      </g>
     </g>
    </g>
    <g id="text_8">
     <!-- Episode -->
     <g transform="translate(195.439756 342.474688) scale(0.11 -0.11)">
      <defs>
       <path id="DejaVuSans-45" d="M 628 4666 
L 3578 4666 
L 3578 4134 
L 1259 4134 
L 1259 2753 
L 3481 2753 
L 3481 2222 
L 1259 2222 
L 1259 531 
L 3634 531 
L 3634 0 
L 628 0 
L 628 4666 
z
" transform="scale(0.015625)"/>
       <path id="DejaVuSans-70" d="M 1159 525 
L 1159 -1331 
L 581 -1331 
L 581 3500 
L 1159 3500 
L 1159 2969 
Q 1341 3281 1617 3432 
Q 1894 3584 2278 3584 
Q 2916 3584 3314 3078 
Q 3713 2572 3713 1747 
Q 3713 922 3314 415 
Q 2916 -91 2278 -91 
Q 1894 -91 1617 61 
Q 1341 213 1159 525 
z
M 3116 1747 
Q 3116 2381 2855 2742 
Q 2594 3103 2138 3103 
Q 1681 3103 1420 2742 
Q 1159 2381 1159 1747 
Q 1159 1113 1420 752 
Q 1681 391 2138 391 
Q 2594 391 2855 752 
Q 3116 1113 3116 1747 
z
" transform="scale(0.015625)"/>
       <path id="DejaVuSans-69" d="M 603 3500 
L 1178 3500 
L 1178 0 
L 603 0 
L 603 3500 
z
M 603 4863 
L 1178 4863 
L 1178 4134 
L 603 4134 
L 603 4863 
z
" transform="scale(0.015625)"/>
       <path id="DejaVuSans-73" d="M 2834 3397 
L 2834 2853 
Q 2591 2978 2328 3040 
Q 2066 3103 1784 3103 
Q 1356 3103 1142 2972 
Q 928 2841 928 2578 
Q 928 2378 1081 2264 
Q 1234 2150 1697 2047 
L 1894 2003 
Q 2506 1872 2764 1633 
Q 3022 1394 3022 966 
Q 3022 478 2636 193 
Q 2250 -91 1575 -91 
Q 1294 -91 989 -36 
Q 684 19 347 128 
L 347 722 
Q 666 556 975 473 
Q 1284 391 1588 391 
Q 1994 391 2212 530 
Q 2431 669 2431 922 
Q 2431 1156 2273 1281 
Q 2116 1406 1581 1522 
L 1381 1569 
Q 847 1681 609 1914 
Q 372 2147 372 2553 
Q 372 3047 722 3315 
Q 1072 3584 1716 3584 
Q 2034 3584 2315 3537 
Q 2597 3491 2834 3397 
z
" transform="scale(0.015625)"/>
       <path id="DejaVuSans-6f" d="M 1959 3097 
Q 1497 3097 1228 2736 
Q 959 2375 959 1747 
Q 959 1119 1226 758 
Q 1494 397 1959 397 
Q 2419 397 2687 759 
Q 2956 1122 2956 1747 
Q 2956 2369 2687 2733 
Q 2419 3097 1959 3097 
z
M 1959 3584 
Q 2709 3584 3137 3096 
Q 3566 2609 3566 1747 
Q 3566 888 3137 398 
Q 2709 -91 1959 -91 
Q 1206 -91 779 398 
Q 353 888 353 1747 
Q 353 2609 779 3096 
Q 1206 3584 1959 3584 
z
" transform="scale(0.015625)"/>
       <path id="DejaVuSans-64" d="M 2906 2969 
L 2906 4863 
L 3481 4863 
L 3481 0 
L 2906 0 
L 2906 525 
Q 2725 213 2448 61 
Q 2172 -91 1784 -91 
Q 1150 -91 751 415 
Q 353 922 353 1747 
Q 353 2572 751 3078 
Q 1150 3584 1784 3584 
Q 2172 3584 2448 3432 
Q 2725 3281 2906 2969 
z
M 947 1747 
Q 947 1113 1208 752 
Q 1469 391 1925 391 
Q 2381 391 2643 752 
Q 2906 1113 2906 1747 
Q 2906 2381 2643 2742 
Q 2381 3103 1925 3103 
Q 1469 3103 1208 2742 
Q 947 2381 947 1747 
z
" transform="scale(0.015625)"/>
       <path id="DejaVuSans-65" d="M 3597 1894 
L 3597 1613 
L 953 1613 
Q 991 1019 1311 708 
Q 1631 397 2203 397 
Q 2534 397 2845 478 
Q 3156 559 3463 722 
L 3463 178 
Q 3153 47 2828 -22 
Q 2503 -91 2169 -91 
Q 1331 -91 842 396 
Q 353 884 353 1716 
Q 353 2575 817 3079 
Q 1281 3584 2069 3584 
Q 2775 3584 3186 3129 
Q 3597 2675 3597 1894 
z
M 3022 2063 
Q 3016 2534 2758 2815 
Q 2500 3097 2075 3097 
Q 1594 3097 1305 2825 
Q 1016 2553 972 2059 
L 3022 2063 
z
" transform="scale(0.015625)"/>
      </defs>
      <use xlink:href="#DejaVuSans-45"/>
      <use xlink:href="#DejaVuSans-70" transform="translate(63.183594 0)"/>
      <use xlink:href="#DejaVuSans-69" transform="translate(126.660156 0)"/>
      <use xlink:href="#DejaVuSans-73" transform="translate(154.443359 0)"/>
      <use xlink:href="#DejaVuSans-6f" transform="translate(206.542969 0)"/>
      <use xlink:href="#DejaVuSans-64" transform="translate(267.724609 0)"/>
      <use xlink:href="#DejaVuSans-65" transform="translate(331.201172 0)"/>
     </g>
    </g>
   </g>
   <g id="matplotlib.axis_2">
    <g id="ytick_1">
     <g id="line2d_15">
      <path d="M 47.933438 286.808064 
L 386.148574 286.808064 
" clip-path="url(#pbd22e69f85)" style="fill: none; stroke: #b0b0b0; stroke-opacity: 0.3; stroke-width: 0.8; stroke-linecap: square"/>
     </g>
     <g id="line2d_16">
      <defs>
       <path id="m6d84fcd5f0" d="M 0 0 
L -3.5 0 
" style="stroke: #000000; stroke-width: 0.8"/>
      </defs>
      <g>
       <use xlink:href="#m6d84fcd5f0" x="47.933438" y="286.808064" style="stroke: #000000; stroke-width: 0.8"/>
      </g>
     </g>
     <g id="text_9">
      <!-- 60 -->
      <g transform="translate(28.208438 290.607282) scale(0.1 -0.1)">
       <use xlink:href="#DejaVuSans-36"/>
       <use xlink:href="#DejaVuSans-30" transform="translate(63.623047 0)"/>
      </g>
     </g>
    </g>
    <g id="ytick_2">
     <g id="line2d_17">
      <path d="M 47.933438 236.948674 
L 386.148574 236.948674 
" clip-path="url(#pbd22e69f85)" style="fill: none; stroke: #b0b0b0; stroke-opacity: 0.3; stroke-width: 0.8; stroke-linecap: square"/>
     </g>
     <g id="line2d_18">
      <g>
       <use xlink:href="#m6d84fcd5f0" x="47.933438" y="236.948674" style="stroke: #000000; stroke-width: 0.8"/>
      </g>
     </g>
     <g id="text_10">
      <!-- 80 -->
      <g transform="translate(28.208438 240.747893) scale(0.1 -0.1)">
       <defs>
        <path id="DejaVuSans-38" d="M 2034 2216 
Q 1584 2216 1326 1975 
Q 1069 1734 1069 1313 
Q 1069 891 1326 650 
Q 1584 409 2034 409 
Q 2484 409 2743 651 
Q 3003 894 3003 1313 
Q 3003 1734 2745 1975 
Q 2488 2216 2034 2216 
z
M 1403 2484 
Q 997 2584 770 2862 
Q 544 3141 544 3541 
Q 544 4100 942 4425 
Q 1341 4750 2034 4750 
Q 2731 4750 3128 4425 
Q 3525 4100 3525 3541 
Q 3525 3141 3298 2862 
Q 3072 2584 2669 2484 
Q 3125 2378 3379 2068 
Q 3634 1759 3634 1313 
Q 3634 634 3220 271 
Q 2806 -91 2034 -91 
Q 1263 -91 848 271 
Q 434 634 434 1313 
Q 434 1759 690 2068 
Q 947 2378 1403 2484 
z
M 1172 3481 
Q 1172 3119 1398 2916 
Q 1625 2713 2034 2713 
Q 2441 2713 2670 2916 
Q 2900 3119 2900 3481 
Q 2900 3844 2670 4047 
Q 2441 4250 2034 4250 
Q 1625 4250 1398 4047 
Q 1172 3844 1172 3481 
z
" transform="scale(0.015625)"/>
       </defs>
       <use xlink:href="#DejaVuSans-38"/>
       <use xlink:href="#DejaVuSans-30" transform="translate(63.623047 0)"/>
      </g>
     </g>
    </g>
    <g id="ytick_3">
     <g id="line2d_19">
      <path d="M 47.933438 187.089285 
L 386.148574 187.089285 
" clip-path="url(#pbd22e69f85)" style="fill: none; stroke: #b0b0b0; stroke-opacity: 0.3; stroke-width: 0.8; stroke-linecap: square"/>
     </g>
     <g id="line2d_20">
      <g>
       <use xlink:href="#m6d84fcd5f0" x="47.933438" y="187.089285" style="stroke: #000000; stroke-width: 0.8"/>
      </g>
     </g>
     <g id="text_11">
      <!-- 100 -->
      <g transform="translate(21.845938 190.888504) scale(0.1 -0.1)">
       <use xlink:href="#DejaVuSans-31"/>
       <use xlink:href="#DejaVuSans-30" transform="translate(63.623047 0)"/>
       <use xlink:href="#DejaVuSans-30" transform="translate(127.246094 0)"/>
      </g>
     </g>
    </g>
    <g id="ytick_4">
     <g id="line2d_21">
      <path d="M 47.933438 137.229896 
L 386.148574 137.229896 
" clip-path="url(#pbd22e69f85)" style="fill: none; stroke: #b0b0b0; stroke-opacity: 0.3; stroke-width: 0.8; stroke-linecap: square"/>
     </g>
     <g id="line2d_22">
      <g>
       <use xlink:href="#m6d84fcd5f0" x="47.933438" y="137.229896" style="stroke: #000000; stroke-width: 0.8"/>
      </g>
     </g>
     <g id="text_12">
      <!-- 120 -->
      <g transform="translate(21.845938 141.029114) scale(0.1 -0.1)">
       <use xlink:href="#DejaVuSans-31"/>
       <use xlink:href="#DejaVuSans-32" transform="translate(63.623047 0)"/>
       <use xlink:href="#DejaVuSans-30" transform="translate(127.246094 0)"/>
      </g>
     </g>
    </g>
    <g id="ytick_5">
     <g id="line2d_23">
      <path d="M 47.933438 87.370506 
L 386.148574 87.370506 
" clip-path="url(#pbd22e69f85)" style="fill: none; stroke: #b0b0b0; stroke-opacity: 0.3; stroke-width: 0.8; stroke-linecap: square"/>
     </g>
     <g id="line2d_24">
      <g>
       <use xlink:href="#m6d84fcd5f0" x="47.933438" y="87.370506" style="stroke: #000000; stroke-width: 0.8"/>
      </g>
     </g>
     <g id="text_13">
      <!-- 140 -->
      <g transform="translate(21.845938 91.169725) scale(0.1 -0.1)">
       <use xlink:href="#DejaVuSans-31"/>
       <use xlink:href="#DejaVuSans-34" transform="translate(63.623047 0)"/>
       <use xlink:href="#DejaVuSans-30" transform="translate(127.246094 0)"/>
      </g>
     </g>
    </g>
    <g id="ytick_6">
     <g id="line2d_25">
      <path d="M 47.933438 37.511117 
L 386.148574 37.511117 
" clip-path="url(#pbd22e69f85)" style="fill: none; stroke: #b0b0b0; stroke-opacity: 0.3; stroke-width: 0.8; stroke-linecap: square"/>
     </g>
     <g id="line2d_26">
      <g>
       <use xlink:href="#m6d84fcd5f0" x="47.933438" y="37.511117" style="stroke: #000000; stroke-width: 0.8"/>
      </g>
     </g>
     <g id="text_14">
      <!-- 160 -->
      <g transform="translate(21.845938 41.310336) scale(0.1 -0.1)">
       <use xlink:href="#DejaVuSans-31"/>
       <use xlink:href="#DejaVuSans-36" transform="translate(63.623047 0)"/>
       <use xlink:href="#DejaVuSans-30" transform="translate(127.246094 0)"/>
      </g>
     </g>
    </g>
    <g id="text_15">
     <!-- Steps to completion -->
     <g transform="translate(15.558281 222.590234) rotate(-90) scale(0.11 -0.11)">
      <defs>
       <path id="DejaVuSans-53" d="M 3425 4513 
L 3425 3897 
Q 3066 4069 2747 4153 
Q 2428 4238 2131 4238 
Q 1616 4238 1336 4038 
Q 1056 3838 1056 3469 
Q 1056 3159 1242 3001 
Q 1428 2844 1947 2747 
L 2328 2669 
Q 3034 2534 3370 2195 
Q 3706 1856 3706 1288 
Q 3706 609 3251 259 
Q 2797 -91 1919 -91 
Q 1588 -91 1214 -16 
Q 841 59 441 206 
L 441 856 
Q 825 641 1194 531 
Q 1563 422 1919 422 
Q 2459 422 2753 634 
Q 3047 847 3047 1241 
Q 3047 1584 2836 1778 
Q 2625 1972 2144 2069 
L 1759 2144 
Q 1053 2284 737 2584 
Q 422 2884 422 3419 
Q 422 4038 858 4394 
Q 1294 4750 2059 4750 
Q 2388 4750 2728 4690 
Q 3069 4631 3425 4513 
z
" transform="scale(0.015625)"/>
       <path id="DejaVuSans-74" d="M 1172 4494 
L 1172 3500 
L 2356 3500 
L 2356 3053 
L 1172 3053 
L 1172 1153 
Q 1172 725 1289 603 
Q 1406 481 1766 481 
L 2356 481 
L 2356 0 
L 1766 0 
Q 1100 0 847 248 
Q 594 497 594 1153 
L 594 3053 
L 172 3053 
L 172 3500 
L 594 3500 
L 594 4494 
L 1172 4494 
z
" transform="scale(0.015625)"/>
       <path id="DejaVuSans-20" transform="scale(0.015625)"/>
       <path id="DejaVuSans-63" d="M 3122 3366 
L 3122 2828 
Q 2878 2963 2633 3030 
Q 2388 3097 2138 3097 
Q 1578 3097 1268 2742 
Q 959 2388 959 1747 
Q 959 1106 1268 751 
Q 1578 397 2138 397 
Q 2388 397 2633 464 
Q 2878 531 3122 666 
L 3122 134 
Q 2881 22 2623 -34 
Q 2366 -91 2075 -91 
Q 1284 -91 818 406 
Q 353 903 353 1747 
Q 353 2603 823 3093 
Q 1294 3584 2113 3584 
Q 2378 3584 2631 3529 
Q 2884 3475 3122 3366 
z
" transform="scale(0.015625)"/>
       <path id="DejaVuSans-6d" d="M 3328 2828 
Q 3544 3216 3844 3400 
Q 4144 3584 4550 3584 
Q 5097 3584 5394 3201 
Q 5691 2819 5691 2113 
L 5691 0 
L 5113 0 
L 5113 2094 
Q 5113 2597 4934 2840 
Q 4756 3084 4391 3084 
Q 3944 3084 3684 2787 
Q 3425 2491 3425 1978 
L 3425 0 
L 2847 0 
L 2847 2094 
Q 2847 2600 2669 2842 
Q 2491 3084 2119 3084 
Q 1678 3084 1418 2786 
Q 1159 2488 1159 1978 
L 1159 0 
L 581 0 
L 581 3500 
L 1159 3500 
L 1159 2956 
Q 1356 3278 1631 3431 
Q 1906 3584 2284 3584 
Q 2666 3584 2933 3390 
Q 3200 3197 3328 2828 
z
" transform="scale(0.015625)"/>
       <path id="DejaVuSans-6c" d="M 603 4863 
L 1178 4863 
L 1178 0 
L 603 0 
L 603 4863 
z
" transform="scale(0.015625)"/>
       <path id="DejaVuSans-6e" d="M 3513 2113 
L 3513 0 
L 2938 0 
L 2938 2094 
Q 2938 2591 2744 2837 
Q 2550 3084 2163 3084 
Q 1697 3084 1428 2787 
Q 1159 2491 1159 1978 
L 1159 0 
L 581 0 
L 581 3500 
L 1159 3500 
L 1159 2956 
Q 1366 3272 1645 3428 
Q 1925 3584 2291 3584 
Q 2894 3584 3203 3211 
Q 3513 2838 3513 2113 
z
" transform="scale(0.015625)"/>
      </defs>
      <use xlink:href="#DejaVuSans-53"/>
      <use xlink:href="#DejaVuSans-74" transform="translate(63.476562 0)"/>
      <use xlink:href="#DejaVuSans-65" transform="translate(102.685547 0)"/>
      <use xlink:href="#DejaVuSans-70" transform="translate(164.208984 0)"/>
      <use xlink:href="#DejaVuSans-73" transform="translate(227.685547 0)"/>
      <use xlink:href="#DejaVuSans-20" transform="translate(279.785156 0)"/>
      <use xlink:href="#DejaVuSans-74" transform="translate(311.572266 0)"/>
      <use xlink:href="#DejaVuSans-6f" transform="translate(350.78125 0)"/>
      <use xlink:href="#DejaVuSans-20" transform="translate(411.962891 0)"/>
      <use xlink:href="#DejaVuSans-63" transform="translate(443.75 0)"/>
      <use xlink:href="#DejaVuSans-6f" transform="translate(498.730469 0)"/>
      <use xlink:href="#DejaVuSans-6d" transform="translate(559.912109 0)"/>
      <use xlink:href="#DejaVuSans-70" transform="translate(657.324219 0)"/>
      <use xlink:href="#DejaVuSans-6c" transform="translate(720.800781 0)"/>
      <use xlink:href="#DejaVuSans-65" transform="translate(748.583984 0)"/>
      <use xlink:href="#DejaVuSans-74" transform="translate(810.107422 0)"/>
      <use xlink:href="#DejaVuSans-69" transform="translate(849.316406 0)"/>
      <use xlink:href="#DejaVuSans-6f" transform="translate(877.099609 0)"/>
      <use xlink:href="#DejaVuSans-6e" transform="translate(938.28125 0)"/>
     </g>
    </g>
   </g>
   <g id="line2d_27">
    <path d="M 47.933438 71.914096 
L 52.835106 79.393004 
L 57.736775 73.908471 
L 62.638443 106.815668 
L 67.540112 116.288952 
L 72.441781 130.249581 
L 77.343449 138.725677 
L 82.245118 160.663809 
L 87.146787 177.616001 
L 92.048455 181.604752 
L 96.950124 194.568193 
L 101.851793 205.537259 
L 106.753461 215.010543 
L 111.65513 228.971172 
L 116.556799 233.957111 
L 121.458467 242.433207 
L 126.360136 240.438832 
L 131.261805 251.407897 
L 136.163473 251.407897 
L 141.065142 257.889618 
L 145.96681 264.371338 
L 150.868479 267.861496 
L 155.770148 271.351653 
L 160.671816 272.348841 
L 165.573485 275.838998 
L 170.475154 277.833374 
L 175.376822 275.838998 
L 180.278491 278.331968 
L 185.18016 276.337592 
L 190.081828 276.836186 
L 194.983497 277.33478 
L 199.885166 280.326343 
L 204.786834 278.830561 
L 209.688503 276.836186 
L 214.590172 279.827749 
L 219.49184 278.331968 
L 224.393509 279.827749 
L 229.295177 281.323531 
L 234.196846 279.827749 
L 239.098515 280.326343 
L 244.000183 280.824937 
L 248.901852 280.326343 
L 253.803521 280.326343 
L 258.705189 279.329155 
L 263.606858 279.827749 
L 268.508527 280.824937 
L 273.410195 280.326343 
L 278.311864 281.822125 
L 283.213533 280.326343 
L 288.115201 282.819313 
L 293.01687 283.8165 
L 297.918539 281.323531 
L 302.820207 283.317906 
L 307.721876 283.8165 
L 312.623544 283.8165 
L 317.525213 284.315094 
L 322.426882 283.8165 
L 327.32855 284.813688 
L 332.230219 283.8165 
L 337.131888 281.822125 
L 342.033556 283.317906 
L 346.935225 283.317906 
L 351.836894 284.813688 
L 356.738562 285.810876 
L 361.640231 283.8165 
L 366.5419 284.315094 
L 371.443568 285.312282 
L 376.345237 286.30947 
L 381.246906 285.810876 
L 386.148574 284.813688 
" clip-path="url(#pbd22e69f85)" style="fill: none; stroke: #2ca02c; stroke-width: 2; stroke-linecap: square"/>
   </g>
   <g id="line2d_28">
    <path d="M 47.933438 70.418314 
L 52.835106 72.412689 
L 57.736775 79.393004 
L 62.638443 97.342384 
L 67.540112 96.84379 
L 72.441781 118.283328 
L 77.343449 135.734114 
L 82.245118 137.229896 
L 87.146787 144.708804 
L 92.048455 165.649748 
L 96.950124 177.616001 
L 101.851793 196.063975 
L 106.753461 210.523198 
L 111.65513 220.99367 
L 116.556799 235.951487 
L 121.458467 243.430395 
L 126.360136 246.920552 
L 131.261805 251.906491 
L 136.163473 255.396648 
L 141.065142 257.391024 
L 145.96681 264.371338 
L 150.868479 272.348841 
L 155.770148 276.836186 
L 160.671816 279.329155 
L 165.573485 277.33478 
L 170.475154 279.329155 
L 175.376822 280.824937 
L 180.278491 279.329155 
L 185.18016 282.320719 
L 190.081828 283.317906 
L 194.983497 281.323531 
L 199.885166 283.317906 
L 204.786834 282.320719 
L 209.688503 285.312282 
L 214.590172 284.315094 
L 219.49184 282.819313 
L 224.393509 285.810876 
L 229.295177 283.8165 
L 234.196846 282.819313 
L 239.098515 285.312282 
L 244.000183 284.813688 
L 248.901852 284.315094 
L 253.803521 284.315094 
L 258.705189 283.8165 
L 263.606858 284.813688 
L 268.508527 285.312282 
L 273.410195 285.810876 
L 278.311864 284.813688 
L 283.213533 284.315094 
L 288.115201 284.315094 
L 293.01687 285.312282 
L 297.918539 285.810876 
L 302.820207 285.312282 
L 307.721876 284.813688 
L 312.623544 285.312282 
L 317.525213 286.808064 
L 322.426882 286.30947 
L 327.32855 287.306658 
L 332.230219 285.810876 
L 337.131888 287.805251 
L 342.033556 286.30947 
L 346.935225 287.306658 
L 351.836894 287.306658 
L 356.738562 288.303845 
L 361.640231 288.303845 
L 366.5419 287.805251 
L 371.443568 288.303845 
L 376.345237 287.306658 
L 381.246906 286.30947 
L 386.148574 286.30947 
" clip-path="url(#pbd22e69f85)" style="fill: none; stroke: #d65f5f; stroke-width: 1.6; stroke-linecap: square"/>
   </g>
   <g id="line2d_29">
    <path d="M 82.245118 313.438281 
L 82.245118 21.558281 
" clip-path="url(#pbd22e69f85)" style="fill: none; stroke-dasharray: 0.7,1.155; stroke-dashoffset: 0; stroke: #000000; stroke-opacity: 0.5; stroke-width: 0.7"/>
   </g>
   <g id="line2d_30">
    <path d="M 395.951912 313.438281 
L 395.951912 21.558281 
" clip-path="url(#pbd22e69f85)" style="fill: none; stroke-dasharray: 2.59,1.12; stroke-dashoffset: 0; stroke: #808080; stroke-opacity: 0.5; stroke-width: 0.7"/>
   </g>
   <g id="patch_3">
    <path d="M 47.933438 313.438281 
L 47.933438 21.558281 
" style="fill: none; stroke: #000000; stroke-width: 0.8; stroke-linejoin: miter; stroke-linecap: square"/>
   </g>
   <g id="patch_4">
    <path d="M 386.148574 313.438281 
L 386.148574 21.558281 
" style="fill: none; stroke: #000000; stroke-width: 0.8; stroke-linejoin: miter; stroke-linecap: square"/>
   </g>
   <g id="patch_5">
    <path d="M 47.933438 313.438281 
L 386.148574 313.438281 
" style="fill: none; stroke: #000000; stroke-width: 0.8; stroke-linejoin: miter; stroke-linecap: square"/>
   </g>
   <g id="patch_6">
    <path d="M 47.933438 21.558281 
L 386.148574 21.558281 
" style="fill: none; stroke: #000000; stroke-width: 0.8; stroke-linejoin: miter; stroke-linecap: square"/>
   </g>
   <g id="text_16">
    <!-- T6: $K^{\mathrm{nb}}_{\mathrm{cold}}\approx 72$ -->
    <g style="opacity: 0.7" transform="translate(398.402746 50.669679) scale(0.09 -0.09)">
     <defs>
      <path id="DejaVuSans-54" d="M -19 4666 
L 3928 4666 
L 3928 4134 
L 2272 4134 
L 2272 0 
L 1638 0 
L 1638 4134 
L -19 4134 
L -19 4666 
z
" transform="scale(0.015625)"/>
      <path id="DejaVuSans-3a" d="M 750 794 
L 1409 794 
L 1409 0 
L 750 0 
L 750 794 
z
M 750 3309 
L 1409 3309 
L 1409 2516 
L 750 2516 
L 750 3309 
z
" transform="scale(0.015625)"/>
      <path id="DejaVuSans-Oblique-4b" d="M 1081 4666 
L 1716 4666 
L 1331 2700 
L 3781 4666 
L 4622 4666 
L 1850 2438 
L 3878 0 
L 3109 0 
L 1247 2272 
L 806 0 
L 172 0 
L 1081 4666 
z
" transform="scale(0.015625)"/>
      <path id="DejaVuSans-62" d="M 3116 1747 
Q 3116 2381 2855 2742 
Q 2594 3103 2138 3103 
Q 1681 3103 1420 2742 
Q 1159 2381 1159 1747 
Q 1159 1113 1420 752 
Q 1681 391 2138 391 
Q 2594 391 2855 752 
Q 3116 1113 3116 1747 
z
M 1159 2969 
Q 1341 3281 1617 3432 
Q 1894 3584 2278 3584 
Q 2916 3584 3314 3078 
Q 3713 2572 3713 1747 
Q 3713 922 3314 415 
Q 2916 -91 2278 -91 
Q 1894 -91 1617 61 
Q 1341 213 1159 525 
L 1159 0 
L 581 0 
L 581 4863 
L 1159 4863 
L 1159 2969 
z
" transform="scale(0.015625)"/>
      <path id="DejaVuSans-2248" d="M 4684 1947 
L 4684 1388 
Q 4356 1144 4076 1036 
Q 3797 928 3494 928 
Q 3150 928 2694 1113 
Q 2663 1125 2641 1134 
Q 2622 1141 2575 1159 
Q 2091 1350 1797 1350 
Q 1522 1350 1253 1231 
Q 984 1113 678 850 
L 678 1409 
Q 1006 1653 1286 1761 
Q 1566 1869 1869 1869 
Q 2213 1869 2672 1684 
Q 2706 1669 2722 1663 
Q 2741 1656 2788 1638 
Q 3272 1447 3566 1447 
Q 3834 1447 4098 1564 
Q 4363 1681 4684 1947 
z
M 4684 3163 
L 4684 2606 
Q 4356 2359 4076 2251 
Q 3797 2144 3494 2144 
Q 3150 2144 2694 2328 
Q 2663 2341 2641 2350 
Q 2622 2356 2575 2375 
Q 2091 2566 1797 2566 
Q 1522 2566 1253 2447 
Q 984 2328 678 2069 
L 678 2625 
Q 1006 2869 1286 2976 
Q 1566 3084 1869 3084 
Q 2213 3084 2672 2900 
Q 2703 2888 2719 2881 
Q 2741 2872 2788 2853 
Q 3272 2663 3566 2663 
Q 3834 2663 4098 2780 
Q 4363 2897 4684 3163 
z
" transform="scale(0.015625)"/>
     </defs>
     <use xlink:href="#DejaVuSans-54" transform="translate(0 0.470313)"/>
     <use xlink:href="#DejaVuSans-36" transform="translate(61.083984 0.470313)"/>
     <use xlink:href="#DejaVuSans-3a" transform="translate(124.707031 0.470313)"/>
     <use xlink:href="#DejaVuSans-20" transform="translate(158.398438 0.470313)"/>
     <use xlink:href="#DejaVuSans-Oblique-4b" transform="translate(190.185547 0.470313)"/>
     <use xlink:href="#DejaVuSans-6e" transform="translate(262.77849 39.810938) scale(0.7)"/>
     <use xlink:href="#DejaVuSans-62" transform="translate(307.143724 39.810938) scale(0.7)"/>
     <use xlink:href="#DejaVuSans-63" transform="translate(255.761719 -26.873437) scale(0.7)"/>
     <use xlink:href="#DejaVuSans-6f" transform="translate(294.248047 -26.873437) scale(0.7)"/>
     <use xlink:href="#DejaVuSans-6c" transform="translate(337.075195 -26.873437) scale(0.7)"/>
     <use xlink:href="#DejaVuSans-64" transform="translate(356.523438 -26.873437) scale(0.7)"/>
     <use xlink:href="#DejaVuSans-2248" transform="translate(423.173828 0.470313)"/>
     <use xlink:href="#DejaVuSans-37" transform="translate(526.445312 0.470313)"/>
     <use xlink:href="#DejaVuSans-32" transform="translate(590.068359 0.470313)"/>
    </g>
   </g>
   <g id="text_17">
    <!-- T6: $K^{\mathrm{bcast}}_{\mathrm{cold}}\approx 8$ -->
    <g style="opacity: 0.7" transform="translate(84.695952 50.669679) scale(0.09 -0.09)">
     <defs>
      <path id="DejaVuSans-61" d="M 2194 1759 
Q 1497 1759 1228 1600 
Q 959 1441 959 1056 
Q 959 750 1161 570 
Q 1363 391 1709 391 
Q 2188 391 2477 730 
Q 2766 1069 2766 1631 
L 2766 1759 
L 2194 1759 
z
M 3341 1997 
L 3341 0 
L 2766 0 
L 2766 531 
Q 2569 213 2275 61 
Q 1981 -91 1556 -91 
Q 1019 -91 701 211 
Q 384 513 384 1019 
Q 384 1609 779 1909 
Q 1175 2209 1959 2209 
L 2766 2209 
L 2766 2266 
Q 2766 2663 2505 2880 
Q 2244 3097 1772 3097 
Q 1472 3097 1187 3025 
Q 903 2953 641 2809 
L 641 3341 
Q 956 3463 1253 3523 
Q 1550 3584 1831 3584 
Q 2591 3584 2966 3190 
Q 3341 2797 3341 1997 
z
" transform="scale(0.015625)"/>
     </defs>
     <use xlink:href="#DejaVuSans-54" transform="translate(0 0.470313)"/>
     <use xlink:href="#DejaVuSans-36" transform="translate(61.083984 0.470313)"/>
     <use xlink:href="#DejaVuSans-3a" transform="translate(124.707031 0.470313)"/>
     <use xlink:href="#DejaVuSans-20" transform="translate(158.398438 0.470313)"/>
     <use xlink:href="#DejaVuSans-Oblique-4b" transform="translate(190.185547 0.470313)"/>
     <use xlink:href="#DejaVuSans-62" transform="translate(262.77849 39.810938) scale(0.7)"/>
     <use xlink:href="#DejaVuSans-63" transform="translate(307.212083 39.810938) scale(0.7)"/>
     <use xlink:href="#DejaVuSans-61" transform="translate(345.698411 39.810938) scale(0.7)"/>
     <use xlink:href="#DejaVuSans-73" transform="translate(388.593919 39.810938) scale(0.7)"/>
     <use xlink:href="#DejaVuSans-74" transform="translate(425.063646 39.810938) scale(0.7)"/>
     <use xlink:href="#DejaVuSans-63" transform="translate(255.761719 -26.873437) scale(0.7)"/>
     <use xlink:href="#DejaVuSans-6f" transform="translate(294.248047 -26.873437) scale(0.7)"/>
     <use xlink:href="#DejaVuSans-6c" transform="translate(337.075195 -26.873437) scale(0.7)"/>
     <use xlink:href="#DejaVuSans-64" transform="translate(356.523438 -26.873437) scale(0.7)"/>
     <use xlink:href="#DejaVuSans-2248" transform="translate(474.726732 0.470313)"/>
     <use xlink:href="#DejaVuSans-38" transform="translate(577.998216 0.470313)"/>
    </g>
   </g>
   <g id="text_18">
    <!-- Figure 12a — Long-horizon (70 ep) broadcast vs no-broadcast -->
    <g transform="translate(46.954365 15.558281) scale(0.11 -0.11)">
     <defs>
      <path id="DejaVuSans-46" d="M 628 4666 
L 3309 4666 
L 3309 4134 
L 1259 4134 
L 1259 2759 
L 3109 2759 
L 3109 2228 
L 1259 2228 
L 1259 0 
L 628 0 
L 628 4666 
z
" transform="scale(0.015625)"/>
      <path id="DejaVuSans-67" d="M 2906 1791 
Q 2906 2416 2648 2759 
Q 2391 3103 1925 3103 
Q 1463 3103 1205 2759 
Q 947 2416 947 1791 
Q 947 1169 1205 825 
Q 1463 481 1925 481 
Q 2391 481 2648 825 
Q 2906 1169 2906 1791 
z
M 3481 434 
Q 3481 -459 3084 -895 
Q 2688 -1331 1869 -1331 
Q 1566 -1331 1297 -1286 
Q 1028 -1241 775 -1147 
L 775 -588 
Q 1028 -725 1275 -790 
Q 1522 -856 1778 -856 
Q 2344 -856 2625 -561 
Q 2906 -266 2906 331 
L 2906 616 
Q 2728 306 2450 153 
Q 2172 0 1784 0 
Q 1141 0 747 490 
Q 353 981 353 1791 
Q 353 2603 747 3093 
Q 1141 3584 1784 3584 
Q 2172 3584 2450 3431 
Q 2728 3278 2906 2969 
L 2906 3500 
L 3481 3500 
L 3481 434 
z
" transform="scale(0.015625)"/>
      <path id="DejaVuSans-75" d="M 544 1381 
L 544 3500 
L 1119 3500 
L 1119 1403 
Q 1119 906 1312 657 
Q 1506 409 1894 409 
Q 2359 409 2629 706 
Q 2900 1003 2900 1516 
L 2900 3500 
L 3475 3500 
L 3475 0 
L 2900 0 
L 2900 538 
Q 2691 219 2414 64 
Q 2138 -91 1772 -91 
Q 1169 -91 856 284 
Q 544 659 544 1381 
z
M 1991 3584 
L 1991 3584 
z
" transform="scale(0.015625)"/>
      <path id="DejaVuSans-72" d="M 2631 2963 
Q 2534 3019 2420 3045 
Q 2306 3072 2169 3072 
Q 1681 3072 1420 2755 
Q 1159 2438 1159 1844 
L 1159 0 
L 581 0 
L 581 3500 
L 1159 3500 
L 1159 2956 
Q 1341 3275 1631 3429 
Q 1922 3584 2338 3584 
Q 2397 3584 2469 3576 
Q 2541 3569 2628 3553 
L 2631 2963 
z
" transform="scale(0.015625)"/>
      <path id="DejaVuSans-2014" d="M 313 1978 
L 6088 1978 
L 6088 1528 
L 313 1528 
L 313 1978 
z
" transform="scale(0.015625)"/>
      <path id="DejaVuSans-4c" d="M 628 4666 
L 1259 4666 
L 1259 531 
L 3531 531 
L 3531 0 
L 628 0 
L 628 4666 
z
" transform="scale(0.015625)"/>
      <path id="DejaVuSans-2d" d="M 313 2009 
L 1997 2009 
L 1997 1497 
L 313 1497 
L 313 2009 
z
" transform="scale(0.015625)"/>
      <path id="DejaVuSans-68" d="M 3513 2113 
L 3513 0 
L 2938 0 
L 2938 2094 
Q 2938 2591 2744 2837 
Q 2550 3084 2163 3084 
Q 1697 3084 1428 2787 
Q 1159 2491 1159 1978 
L 1159 0 
L 581 0 
L 581 4863 
L 1159 4863 
L 1159 2956 
Q 1366 3272 1645 3428 
Q 1925 3584 2291 3584 
Q 2894 3584 3203 3211 
Q 3513 2838 3513 2113 
z
" transform="scale(0.015625)"/>
      <path id="DejaVuSans-7a" d="M 353 3500 
L 3084 3500 
L 3084 2975 
L 922 459 
L 3084 459 
L 3084 0 
L 275 0 
L 275 525 
L 2438 3041 
L 353 3041 
L 353 3500 
z
" transform="scale(0.015625)"/>
      <path id="DejaVuSans-28" d="M 1984 4856 
Q 1566 4138 1362 3434 
Q 1159 2731 1159 2009 
Q 1159 1288 1364 580 
Q 1569 -128 1984 -844 
L 1484 -844 
Q 1016 -109 783 600 
Q 550 1309 550 2009 
Q 550 2706 781 3412 
Q 1013 4119 1484 4856 
L 1984 4856 
z
" transform="scale(0.015625)"/>
      <path id="DejaVuSans-29" d="M 513 4856 
L 1013 4856 
Q 1481 4119 1714 3412 
Q 1947 2706 1947 2009 
Q 1947 1309 1714 600 
Q 1481 -109 1013 -844 
L 513 -844 
Q 928 -128 1133 580 
Q 1338 1288 1338 2009 
Q 1338 2731 1133 3434 
Q 928 4138 513 4856 
z
" transform="scale(0.015625)"/>
      <path id="DejaVuSans-76" d="M 191 3500 
L 800 3500 
L 1894 563 
L 2988 3500 
L 3597 3500 
L 2284 0 
L 1503 0 
L 191 3500 
z
" transform="scale(0.015625)"/>
     </defs>
     <use xlink:href="#DejaVuSans-46"/>
     <use xlink:href="#DejaVuSans-69" transform="translate(50.269531 0)"/>
     <use xlink:href="#DejaVuSans-67" transform="translate(78.052734 0)"/>
     <use xlink:href="#DejaVuSans-75" transform="translate(141.529297 0)"/>
     <use xlink:href="#DejaVuSans-72" transform="translate(204.908203 0)"/>
     <use xlink:href="#DejaVuSans-65" transform="translate(243.771484 0)"/>
     <use xlink:href="#DejaVuSans-20" transform="translate(305.294922 0)"/>
     <use xlink:href="#DejaVuSans-31" transform="translate(337.082031 0)"/>
     <use xlink:href="#DejaVuSans-32" transform="translate(400.705078 0)"/>
     <use xlink:href="#DejaVuSans-61" transform="translate(464.328125 0)"/>
     <use xlink:href="#DejaVuSans-20" transform="translate(525.607422 0)"/>
     <use xlink:href="#DejaVuSans-2014" transform="translate(557.394531 0)"/>
     <use xlink:href="#DejaVuSans-20" transform="translate(657.394531 0)"/>
     <use xlink:href="#DejaVuSans-4c" transform="translate(689.181641 0)"/>
     <use xlink:href="#DejaVuSans-6f" transform="translate(743.144531 0)"/>
     <use xlink:href="#DejaVuSans-6e" transform="translate(804.326172 0)"/>
     <use xlink:href="#DejaVuSans-67" transform="translate(867.705078 0)"/>
     <use xlink:href="#DejaVuSans-2d" transform="translate(931.181641 0)"/>
     <use xlink:href="#DejaVuSans-68" transform="translate(967.265625 0)"/>
     <use xlink:href="#DejaVuSans-6f" transform="translate(1030.644531 0)"/>
     <use xlink:href="#DejaVuSans-72" transform="translate(1091.826172 0)"/>
     <use xlink:href="#DejaVuSans-69" transform="translate(1132.939453 0)"/>
     <use xlink:href="#DejaVuSans-7a" transform="translate(1160.722656 0)"/>
     <use xlink:href="#DejaVuSans-6f" transform="translate(1213.212891 0)"/>
     <use xlink:href="#DejaVuSans-6e" transform="translate(1274.394531 0)"/>
     <use xlink:href="#DejaVuSans-20" transform="translate(1337.773438 0)"/>
     <use xlink:href="#DejaVuSans-28" transform="translate(1369.560547 0)"/>
     <use xlink:href="#DejaVuSans-37" transform="translate(1408.574219 0)"/>
     <use xlink:href="#DejaVuSans-30" transform="translate(1472.197266 0)"/>
     <use xlink:href="#DejaVuSans-20" transform="translate(1535.820312 0)"/>
     <use xlink:href="#DejaVuSans-65" transform="translate(1567.607422 0)"/>
     <use xlink:href="#DejaVuSans-70" transform="translate(1629.130859 0)"/>
     <use xlink:href="#DejaVuSans-29" transform="translate(1692.607422 0)"/>
     <use xlink:href="#DejaVuSans-20" transform="translate(1731.621094 0)"/>
     <use xlink:href="#DejaVuSans-62" transform="translate(1763.408203 0)"/>
     <use xlink:href="#DejaVuSans-72" transform="translate(1826.884766 0)"/>
     <use xlink:href="#DejaVuSans-6f" transform="translate(1865.748047 0)"/>
     <use xlink:href="#DejaVuSans-61" transform="translate(1926.929688 0)"/>
     <use xlink:href="#DejaVuSans-64" transform="translate(1988.208984 0)"/>
     <use xlink:href="#DejaVuSans-63" transform="translate(2051.685547 0)"/>
     <use xlink:href="#DejaVuSans-61" transform="translate(2106.666016 0)"/>
     <use xlink:href="#DejaVuSans-73" transform="translate(2167.945312 0)"/>
     <use xlink:href="#DejaVuSans-74" transform="translate(2220.044922 0)"/>
     <use xlink:href="#DejaVuSans-20" transform="translate(2259.253906 0)"/>
     <use xlink:href="#DejaVuSans-76" transform="translate(2291.041016 0)"/>
     <use xlink:href="#DejaVuSans-73" transform="translate(2350.220703 0)"/>
     <use xlink:href="#DejaVuSans-20" transform="translate(2402.320312 0)"/>
     <use xlink:href="#DejaVuSans-6e" transform="translate(2434.107422 0)"/>
     <use xlink:href="#DejaVuSans-6f" transform="translate(2497.486328 0)"/>
     <use xlink:href="#DejaVuSans-2d" transform="translate(2560.542969 0)"/>
     <use xlink:href="#DejaVuSans-62" transform="translate(2596.626953 0)"/>
     <use xlink:href="#DejaVuSans-72" transform="translate(2660.103516 0)"/>
     <use xlink:href="#DejaVuSans-6f" transform="translate(2698.966797 0)"/>
     <use xlink:href="#DejaVuSans-61" transform="translate(2760.148438 0)"/>
     <use xlink:href="#DejaVuSans-64" transform="translate(2821.427734 0)"/>
     <use xlink:href="#DejaVuSans-63" transform="translate(2884.904297 0)"/>
     <use xlink:href="#DejaVuSans-61" transform="translate(2939.884766 0)"/>
     <use xlink:href="#DejaVuSans-73" transform="translate(3001.164062 0)"/>
     <use xlink:href="#DejaVuSans-74" transform="translate(3053.263672 0)"/>
    </g>
   </g>
   <g id="legend_1">
    <g id="patch_7">
     <path d="M 240.225137 58.914531 
L 379.148574 58.914531 
Q 381.148574 58.914531 381.148574 56.914531 
L 381.148574 28.558281 
Q 381.148574 26.558281 379.148574 26.558281 
L 240.225137 26.558281 
Q 238.225137 26.558281 238.225137 28.558281 
L 238.225137 56.914531 
Q 238.225137 58.914531 240.225137 58.914531 
z
" style="fill: #ffffff; opacity: 0.8; stroke: #cccccc; stroke-linejoin: miter"/>
    </g>
    <g id="line2d_31">
     <path d="M 242.225137 34.656719 
L 252.225137 34.656719 
L 262.225137 34.656719 
" style="fill: none; stroke: #2ca02c; stroke-width: 2; stroke-linecap: square"/>
    </g>
    <g id="text_19">
     <!-- MF-CF (broadcast) -->
     <g transform="translate(270.225137 38.156719) scale(0.1 -0.1)">
      <defs>
       <path id="DejaVuSans-4d" d="M 628 4666 
L 1569 4666 
L 2759 1491 
L 3956 4666 
L 4897 4666 
L 4897 0 
L 4281 0 
L 4281 4097 
L 3078 897 
L 2444 897 
L 1241 4097 
L 1241 0 
L 628 0 
L 628 4666 
z
" transform="scale(0.015625)"/>
       <path id="DejaVuSans-43" d="M 4122 4306 
L 4122 3641 
Q 3803 3938 3442 4084 
Q 3081 4231 2675 4231 
Q 1875 4231 1450 3742 
Q 1025 3253 1025 2328 
Q 1025 1406 1450 917 
Q 1875 428 2675 428 
Q 3081 428 3442 575 
Q 3803 722 4122 1019 
L 4122 359 
Q 3791 134 3420 21 
Q 3050 -91 2638 -91 
Q 1578 -91 968 557 
Q 359 1206 359 2328 
Q 359 3453 968 4101 
Q 1578 4750 2638 4750 
Q 3056 4750 3426 4639 
Q 3797 4528 4122 4306 
z
" transform="scale(0.015625)"/>
      </defs>
      <use xlink:href="#DejaVuSans-4d"/>
      <use xlink:href="#DejaVuSans-46" transform="translate(86.279297 0)"/>
      <use xlink:href="#DejaVuSans-2d" transform="translate(143.798828 0)"/>
      <use xlink:href="#DejaVuSans-43" transform="translate(179.882812 0)"/>
      <use xlink:href="#DejaVuSans-46" transform="translate(249.707031 0)"/>
      <use xlink:href="#DejaVuSans-20" transform="translate(307.226562 0)"/>
      <use xlink:href="#DejaVuSans-28" transform="translate(339.013672 0)"/>
      <use xlink:href="#DejaVuSans-62" transform="translate(378.027344 0)"/>
      <use xlink:href="#DejaVuSans-72" transform="translate(441.503906 0)"/>
      <use xlink:href="#DejaVuSans-6f" transform="translate(480.367188 0)"/>
      <use xlink:href="#DejaVuSans-61" transform="translate(541.548828 0)"/>
      <use xlink:href="#DejaVuSans-64" transform="translate(602.828125 0)"/>
      <use xlink:href="#DejaVuSans-63" transform="translate(666.304688 0)"/>
      <use xlink:href="#DejaVuSans-61" transform="translate(721.285156 0)"/>
      <use xlink:href="#DejaVuSans-73" transform="translate(782.564453 0)"/>
      <use xlink:href="#DejaVuSans-74" transform="translate(834.664062 0)"/>
      <use xlink:href="#DejaVuSans-29" transform="translate(873.873047 0)"/>
     </g>
    </g>
    <g id="line2d_32">
     <path d="M 242.225137 49.334844 
L 252.225137 49.334844 
L 262.225137 49.334844 
" style="fill: none; stroke: #d65f5f; stroke-width: 1.6; stroke-linecap: square"/>
    </g>
    <g id="text_20">
     <!-- MF-CF (no broadcast) -->
     <g transform="translate(270.225137 52.834844) scale(0.1 -0.1)">
      <use xlink:href="#DejaVuSans-4d"/>
      <use xlink:href="#DejaVuSans-46" transform="translate(86.279297 0)"/>
      <use xlink:href="#DejaVuSans-2d" transform="translate(143.798828 0)"/>
      <use xlink:href="#DejaVuSans-43" transform="translate(179.882812 0)"/>
      <use xlink:href="#DejaVuSans-46" transform="translate(249.707031 0)"/>
      <use xlink:href="#DejaVuSans-20" transform="translate(307.226562 0)"/>
      <use xlink:href="#DejaVuSans-28" transform="translate(339.013672 0)"/>
      <use xlink:href="#DejaVuSans-6e" transform="translate(378.027344 0)"/>
      <use xlink:href="#DejaVuSans-6f" transform="translate(441.40625 0)"/>
      <use xlink:href="#DejaVuSans-20" transform="translate(502.587891 0)"/>
      <use xlink:href="#DejaVuSans-62" transform="translate(534.375 0)"/>
      <use xlink:href="#DejaVuSans-72" transform="translate(597.851562 0)"/>
      <use xlink:href="#DejaVuSans-6f" transform="translate(636.714844 0)"/>
      <use xlink:href="#DejaVuSans-61" transform="translate(697.896484 0)"/>
      <use xlink:href="#DejaVuSans-64" transform="translate(759.175781 0)"/>
      <use xlink:href="#DejaVuSans-63" transform="translate(822.652344 0)"/>
      <use xlink:href="#DejaVuSans-61" transform="translate(877.632812 0)"/>
      <use xlink:href="#DejaVuSans-73" transform="translate(938.912109 0)"/>
      <use xlink:href="#DejaVuSans-74" transform="translate(991.011719 0)"/>
      <use xlink:href="#DejaVuSans-29" transform="translate(1030.220703 0)"/>
     </g>
    </g>
   </g>
  </g>
  <g id="axes_2">
   <g id="patch_8">
    <path d="M 504.938301 313.438281 
L 843.153437 313.438281 
L 843.153437 21.558281 
L 504.938301 21.558281 
z
" style="fill: #ffffff"/>
   </g>
   <g id="FillBetweenPolyCollection_3">
    <defs>
     <path id="me2c215ef7e" d="M 504.938301 -68.867342 
L 504.938301 -52.417621 
L 509.839969 -56.114806 
L 514.741638 -52.548525 
L 519.643307 -66.883452 
L 524.544975 -76.138278 
L 529.446644 -86.049366 
L 534.348313 -95.135423 
L 539.249981 -116.161989 
L 544.15165 -131.747278 
L 549.053319 -135.229333 
L 553.954987 -146.823983 
L 558.856656 -155.463352 
L 563.758325 -168.407542 
L 568.659993 -183.623789 
L 573.561662 -190.291658 
L 578.463331 -202.071377 
L 583.364999 -199.768317 
L 588.266668 -218.403236 
L 593.168336 -222.616549 
L 598.070005 -231.506023 
L 602.971674 -248.99607 
L 607.873342 -258.59994 
L 612.775011 -262.848015 
L 617.67668 -266.758051 
L 622.578348 -271.780586 
L 627.480017 -275.858614 
L 632.381686 -273.26243 
L 637.283354 -276.712163 
L 642.185023 -276.524883 
L 647.086692 -277.226697 
L 651.98836 -277.591221 
L 656.890029 -283.835168 
L 661.791698 -281.947999 
L 666.693366 -278.433733 
L 671.595035 -282.69343 
L 676.496703 -282.026045 
L 681.398372 -281.831761 
L 686.300041 -282.715361 
L 691.201709 -277.680361 
L 696.103378 -284.405439 
L 701.005047 -283.883626 
L 705.906715 -287.124049 
L 710.808384 -283.262358 
L 715.710053 -283.830626 
L 720.611721 -281.923485 
L 725.51339 -287.081373 
L 730.415059 -284.006749 
L 735.316727 -290.248296 
L 740.218396 -286.113366 
L 745.120065 -289.820323 
L 750.021733 -289.58718 
L 754.923402 -289.128302 
L 759.82507 -291.013864 
L 764.726739 -296.354614 
L 769.628408 -297.352776 
L 774.530076 -296.100378 
L 779.431745 -292.498232 
L 784.333414 -294.276764 
L 789.235082 -293.966663 
L 794.136751 -290.871918 
L 799.03842 -293.473762 
L 803.940088 -293.358186 
L 808.841757 -294.498318 
L 813.743426 -298.517247 
L 818.645094 -296.032588 
L 823.546763 -292.530193 
L 828.448432 -298.694266 
L 833.3501 -297.711513 
L 838.251769 -297.726086 
L 843.153437 -297.985128 
L 843.153437 -314.894997 
L 843.153437 -314.894997 
L 838.251769 -313.03994 
L 833.3501 -315.250529 
L 828.448432 -317.13679 
L 823.546763 -312.400995 
L 818.645094 -316.118794 
L 813.743426 -313.372427 
L 808.841757 -314.565747 
L 803.940088 -310.820002 
L 799.03842 -309.889511 
L 794.136751 -308.77317 
L 789.235082 -315.568904 
L 784.333414 -311.668707 
L 779.431745 -306.505562 
L 774.530076 -315.564821 
L 769.628408 -311.029355 
L 764.726739 -311.826874 
L 759.82507 -306.292437 
L 754.923402 -307.866927 
L 750.021733 -312.917347 
L 745.120065 -307.540661 
L 740.218396 -302.456317 
L 735.316727 -309.196574 
L 730.415059 -306.306173 
L 725.51339 -307.254849 
L 720.611721 -300.320496 
L 715.710053 -298.643361 
L 710.808384 -305.28243 
L 705.906715 -303.087593 
L 701.005047 -308.399562 
L 696.103378 -302.039718 
L 691.201709 -303.616147 
L 686.300041 -307.726926 
L 681.398372 -307.216659 
L 676.496703 -306.565766 
L 671.595035 -302.389776 
L 666.693366 -295.592579 
L 661.791698 -305.327819 
L 656.890029 -308.908244 
L 651.98836 -299.909866 
L 647.086692 -303.217023 
L 642.185023 -297.721009 
L 637.283354 -300.446575 
L 632.381686 -297.35762 
L 627.480017 -295.042721 
L 622.578348 -291.307772 
L 617.67668 -282.50568 
L 612.775011 -275.567551 
L 607.873342 -268.625963 
L 602.971674 -263.552415 
L 598.070005 -256.89862 
L 593.168336 -252.93945 
L 588.266668 -247.052704 
L 583.364999 -236.149167 
L 578.463331 -237.42897 
L 573.561662 -224.985483 
L 568.659993 -211.614301 
L 563.758325 -199.837906 
L 558.856656 -177.663915 
L 553.954987 -164.832493 
L 549.053319 -161.701002 
L 544.15165 -141.078365 
L 539.249981 -127.333288 
L 534.348313 -111.14949 
L 529.446644 -98.871567 
L 524.544975 -89.133828 
L 519.643307 -88.491791 
L 514.741638 -72.165041 
L 509.839969 -75.337027 
L 504.938301 -68.867342 
z
" style="stroke: #2ca02c; stroke-opacity: 0.13"/>
    </defs>
    <g clip-path="url(#p4959531a52)">
     <use xlink:href="#me2c215ef7e" x="0" y="351.962344" style="fill: #2ca02c; fill-opacity: 0.13; stroke: #2ca02c; stroke-opacity: 0.13"/>
    </g>
   </g>
   <g id="FillBetweenPolyCollection_4">
    <defs>
     <path id="m2779610372" d="M 504.938301 -66.449078 
L 504.938301 -51.791335 
L 509.839969 -51.859992 
L 514.741638 -55.978816 
L 519.643307 -62.994885 
L 524.544975 -64.301774 
L 529.446644 -75.93221 
L 534.348313 -84.882766 
L 539.249981 -86.755817 
L 544.15165 -93.351441 
L 549.053319 -108.307124 
L 553.954987 -120.529991 
L 558.856656 -137.498249 
L 563.758325 -148.701455 
L 568.659993 -157.795374 
L 573.561662 -177.919645 
L 578.463331 -185.067008 
L 583.364999 -188.728798 
L 588.266668 -197.378275 
L 593.168336 -206.64721 
L 598.070005 -208.669951 
L 602.971674 -225.71414 
L 607.873342 -243.769564 
L 612.775011 -257.874872 
L 617.67668 -265.538593 
L 622.578348 -261.934238 
L 627.480017 -267.962056 
L 632.381686 -270.748695 
L 637.283354 -266.934011 
L 642.185023 -275.899014 
L 647.086692 -276.094951 
L 651.98836 -273.437707 
L 656.890029 -278.622623 
L 661.791698 -275.405761 
L 666.693366 -281.362123 
L 671.595035 -281.098403 
L 676.496703 -279.779556 
L 681.398372 -285.44613 
L 686.300041 -281.011518 
L 691.201709 -280.652164 
L 696.103378 -282.884042 
L 701.005047 -282.308754 
L 705.906715 -282.008165 
L 710.808384 -282.564121 
L 715.710053 -280.887163 
L 720.611721 -283.758302 
L 725.51339 -286.062909 
L 730.415059 -285.851339 
L 735.316727 -283.964925 
L 740.218396 -284.050346 
L 745.120065 -283.545298 
L 750.021733 -286.435669 
L 754.923402 -286.339641 
L 759.82507 -286.749476 
L 764.726739 -284.111551 
L 769.628408 -286.427218 
L 774.530076 -290.099233 
L 779.431745 -288.484908 
L 784.333414 -290.827346 
L 789.235082 -288.633851 
L 794.136751 -291.871723 
L 799.03842 -290.76697 
L 803.940088 -292.968937 
L 808.841757 -291.202743 
L 813.743426 -294.859042 
L 818.645094 -294.502134 
L 823.546763 -293.264118 
L 828.448432 -296.408476 
L 833.3501 -292.776944 
L 838.251769 -290.630518 
L 843.153437 -291.867057 
L 843.153437 -303.303017 
L 843.153437 -303.303017 
L 838.251769 -308.57158 
L 833.3501 -311.838704 
L 828.448432 -307.538004 
L 823.546763 -308.7338 
L 818.645094 -309.369451 
L 813.743426 -310.390877 
L 808.841757 -305.603332 
L 803.940088 -305.152918 
L 799.03842 -305.81229 
L 794.136751 -308.937864 
L 789.235082 -301.900779 
L 784.333414 -311.112697 
L 779.431745 -303.417205 
L 774.530076 -306.298746 
L 769.628408 -306.057464 
L 764.726739 -303.619599 
L 759.82507 -303.032367 
L 754.923402 -305.221612 
L 750.021733 -303.880657 
L 745.120065 -300.818527 
L 740.218396 -301.637132 
L 735.316727 -302.150224 
L 730.415059 -303.291976 
L 725.51339 -302.928062 
L 720.611721 -301.738745 
L 715.710053 -300.947232 
L 710.808384 -303.604008 
L 705.906715 -301.77607 
L 701.005047 -299.901821 
L 696.103378 -302.74237 
L 691.201709 -295.21207 
L 686.300041 -299.924129 
L 681.398372 -306.11257 
L 676.496703 -295.862545 
L 671.595035 -296.965253 
L 666.693366 -301.374424 
L 661.791698 -297.399241 
L 656.890029 -296.880963 
L 651.98836 -289.350643 
L 647.086692 -295.701514 
L 642.185023 -293.838885 
L 637.283354 -285.61768 
L 632.381686 -288.630414 
L 627.480017 -288.758471 
L 622.578348 -285.057942 
L 617.67668 -290.71873 
L 612.775011 -283.363535 
L 607.873342 -273.276064 
L 602.971674 -259.665103 
L 598.070005 -248.254695 
L 593.168336 -241.98551 
L 588.266668 -239.136459 
L 583.364999 -228.232431 
L 578.463331 -223.2925 
L 573.561662 -213.270677 
L 568.659993 -188.413097 
L 563.758325 -170.466925 
L 558.856656 -156.947764 
L 553.954987 -144.63353 
L 549.053319 -137.932696 
L 544.15165 -127.33769 
L 539.249981 -113.148286 
L 534.348313 -114.07046 
L 529.446644 -101.069787 
L 524.544975 -87.146342 
L 519.643307 -85.400808 
L 514.741638 -81.056784 
L 509.839969 -67.390022 
L 504.938301 -66.449078 
z
" style="stroke: #d65f5f; stroke-opacity: 0.13"/>
    </defs>
    <g clip-path="url(#p4959531a52)">
     <use xlink:href="#m2779610372" x="0" y="351.962344" style="fill: #d65f5f; fill-opacity: 0.13; stroke: #d65f5f; stroke-opacity: 0.13"/>
    </g>
   </g>
   <g id="matplotlib.axis_3">
    <g id="xtick_8">
     <g id="line2d_33">
      <path d="M 549.053319 313.438281 
L 549.053319 21.558281 
" clip-path="url(#p4959531a52)" style="fill: none; stroke: #b0b0b0; stroke-opacity: 0.3; stroke-width: 0.8; stroke-linecap: square"/>
     </g>
     <g id="line2d_34">
      <g>
       <use xlink:href="#m559bd5500b" x="549.053319" y="313.438281" style="stroke: #000000; stroke-width: 0.8"/>
      </g>
     </g>
     <g id="text_21">
      <!-- 10 -->
      <g transform="translate(542.690819 328.036719) scale(0.1 -0.1)">
       <use xlink:href="#DejaVuSans-31"/>
       <use xlink:href="#DejaVuSans-30" transform="translate(63.623047 0)"/>
      </g>
     </g>
    </g>
    <g id="xtick_9">
     <g id="line2d_35">
      <path d="M 598.070005 313.438281 
L 598.070005 21.558281 
" clip-path="url(#p4959531a52)" style="fill: none; stroke: #b0b0b0; stroke-opacity: 0.3; stroke-width: 0.8; stroke-linecap: square"/>
     </g>
     <g id="line2d_36">
      <g>
       <use xlink:href="#m559bd5500b" x="598.070005" y="313.438281" style="stroke: #000000; stroke-width: 0.8"/>
      </g>
     </g>
     <g id="text_22">
      <!-- 20 -->
      <g transform="translate(591.707505 328.036719) scale(0.1 -0.1)">
       <use xlink:href="#DejaVuSans-32"/>
       <use xlink:href="#DejaVuSans-30" transform="translate(63.623047 0)"/>
      </g>
     </g>
    </g>
    <g id="xtick_10">
     <g id="line2d_37">
      <path d="M 647.086692 313.438281 
L 647.086692 21.558281 
" clip-path="url(#p4959531a52)" style="fill: none; stroke: #b0b0b0; stroke-opacity: 0.3; stroke-width: 0.8; stroke-linecap: square"/>
     </g>
     <g id="line2d_38">
      <g>
       <use xlink:href="#m559bd5500b" x="647.086692" y="313.438281" style="stroke: #000000; stroke-width: 0.8"/>
      </g>
     </g>
     <g id="text_23">
      <!-- 30 -->
      <g transform="translate(640.724192 328.036719) scale(0.1 -0.1)">
       <use xlink:href="#DejaVuSans-33"/>
       <use xlink:href="#DejaVuSans-30" transform="translate(63.623047 0)"/>
      </g>
     </g>
    </g>
    <g id="xtick_11">
     <g id="line2d_39">
      <path d="M 696.103378 313.438281 
L 696.103378 21.558281 
" clip-path="url(#p4959531a52)" style="fill: none; stroke: #b0b0b0; stroke-opacity: 0.3; stroke-width: 0.8; stroke-linecap: square"/>
     </g>
     <g id="line2d_40">
      <g>
       <use xlink:href="#m559bd5500b" x="696.103378" y="313.438281" style="stroke: #000000; stroke-width: 0.8"/>
      </g>
     </g>
     <g id="text_24">
      <!-- 40 -->
      <g transform="translate(689.740878 328.036719) scale(0.1 -0.1)">
       <use xlink:href="#DejaVuSans-34"/>
       <use xlink:href="#DejaVuSans-30" transform="translate(63.623047 0)"/>
      </g>
     </g>
    </g>
    <g id="xtick_12">
     <g id="line2d_41">
      <path d="M 745.120065 313.438281 
L 745.120065 21.558281 
" clip-path="url(#p4959531a52)" style="fill: none; stroke: #b0b0b0; stroke-opacity: 0.3; stroke-width: 0.8; stroke-linecap: square"/>
     </g>
     <g id="line2d_42">
      <g>
       <use xlink:href="#m559bd5500b" x="745.120065" y="313.438281" style="stroke: #000000; stroke-width: 0.8"/>
      </g>
     </g>
     <g id="text_25">
      <!-- 50 -->
      <g transform="translate(738.757565 328.036719) scale(0.1 -0.1)">
       <use xlink:href="#DejaVuSans-35"/>
       <use xlink:href="#DejaVuSans-30" transform="translate(63.623047 0)"/>
      </g>
     </g>
    </g>
    <g id="xtick_13">
     <g id="line2d_43">
      <path d="M 794.136751 313.438281 
L 794.136751 21.558281 
" clip-path="url(#p4959531a52)" style="fill: none; stroke: #b0b0b0; stroke-opacity: 0.3; stroke-width: 0.8; stroke-linecap: square"/>
     </g>
     <g id="line2d_44">
      <g>
       <use xlink:href="#m559bd5500b" x="794.136751" y="313.438281" style="stroke: #000000; stroke-width: 0.8"/>
      </g>
     </g>
     <g id="text_26">
      <!-- 60 -->
      <g transform="translate(787.774251 328.036719) scale(0.1 -0.1)">
       <use xlink:href="#DejaVuSans-36"/>
       <use xlink:href="#DejaVuSans-30" transform="translate(63.623047 0)"/>
      </g>
     </g>
    </g>
    <g id="xtick_14">
     <g id="line2d_45">
      <path d="M 843.153437 313.438281 
L 843.153437 21.558281 
" clip-path="url(#p4959531a52)" style="fill: none; stroke: #b0b0b0; stroke-opacity: 0.3; stroke-width: 0.8; stroke-linecap: square"/>
     </g>
     <g id="line2d_46">
      <g>
       <use xlink:href="#m559bd5500b" x="843.153437" y="313.438281" style="stroke: #000000; stroke-width: 0.8"/>
      </g>
     </g>
     <g id="text_27">
      <!-- 70 -->
      <g transform="translate(836.790937 328.036719) scale(0.1 -0.1)">
       <use xlink:href="#DejaVuSans-37"/>
       <use xlink:href="#DejaVuSans-30" transform="translate(63.623047 0)"/>
      </g>
     </g>
    </g>
    <g id="text_28">
     <!-- Episode -->
     <g transform="translate(652.444619 342.474688) scale(0.11 -0.11)">
      <use xlink:href="#DejaVuSans-45"/>
      <use xlink:href="#DejaVuSans-70" transform="translate(63.183594 0)"/>
      <use xlink:href="#DejaVuSans-69" transform="translate(126.660156 0)"/>
      <use xlink:href="#DejaVuSans-73" transform="translate(154.443359 0)"/>
      <use xlink:href="#DejaVuSans-6f" transform="translate(206.542969 0)"/>
      <use xlink:href="#DejaVuSans-64" transform="translate(267.724609 0)"/>
      <use xlink:href="#DejaVuSans-65" transform="translate(331.201172 0)"/>
     </g>
    </g>
   </g>
   <g id="matplotlib.axis_4">
    <g id="ytick_7">
     <g id="line2d_47">
      <path d="M 504.938301 301.395666 
L 843.153437 301.395666 
" clip-path="url(#p4959531a52)" style="fill: none; stroke: #b0b0b0; stroke-opacity: 0.3; stroke-width: 0.8; stroke-linecap: square"/>
     </g>
     <g id="line2d_48">
      <g>
       <use xlink:href="#m6d84fcd5f0" x="504.938301" y="301.395666" style="stroke: #000000; stroke-width: 0.8"/>
      </g>
     </g>
     <g id="text_29">
      <!-- 0.3 -->
      <g transform="translate(482.035176 305.194884) scale(0.1 -0.1)">
       <defs>
        <path id="DejaVuSans-2e" d="M 684 794 
L 1344 794 
L 1344 0 
L 684 0 
L 684 794 
z
" transform="scale(0.015625)"/>
       </defs>
       <use xlink:href="#DejaVuSans-30"/>
       <use xlink:href="#DejaVuSans-2e" transform="translate(63.623047 0)"/>
       <use xlink:href="#DejaVuSans-33" transform="translate(95.410156 0)"/>
      </g>
     </g>
    </g>
    <g id="ytick_8">
     <g id="line2d_49">
      <path d="M 504.938301 248.202743 
L 843.153437 248.202743 
" clip-path="url(#p4959531a52)" style="fill: none; stroke: #b0b0b0; stroke-opacity: 0.3; stroke-width: 0.8; stroke-linecap: square"/>
     </g>
     <g id="line2d_50">
      <g>
       <use xlink:href="#m6d84fcd5f0" x="504.938301" y="248.202743" style="stroke: #000000; stroke-width: 0.8"/>
      </g>
     </g>
     <g id="text_30">
      <!-- 0.4 -->
      <g transform="translate(482.035176 252.001962) scale(0.1 -0.1)">
       <use xlink:href="#DejaVuSans-30"/>
       <use xlink:href="#DejaVuSans-2e" transform="translate(63.623047 0)"/>
       <use xlink:href="#DejaVuSans-34" transform="translate(95.410156 0)"/>
      </g>
     </g>
    </g>
    <g id="ytick_9">
     <g id="line2d_51">
      <path d="M 504.938301 195.00982 
L 843.153437 195.00982 
" clip-path="url(#p4959531a52)" style="fill: none; stroke: #b0b0b0; stroke-opacity: 0.3; stroke-width: 0.8; stroke-linecap: square"/>
     </g>
     <g id="line2d_52">
      <g>
       <use xlink:href="#m6d84fcd5f0" x="504.938301" y="195.00982" style="stroke: #000000; stroke-width: 0.8"/>
      </g>
     </g>
     <g id="text_31">
      <!-- 0.5 -->
      <g transform="translate(482.035176 198.809039) scale(0.1 -0.1)">
       <use xlink:href="#DejaVuSans-30"/>
       <use xlink:href="#DejaVuSans-2e" transform="translate(63.623047 0)"/>
       <use xlink:href="#DejaVuSans-35" transform="translate(95.410156 0)"/>
      </g>
     </g>
    </g>
    <g id="ytick_10">
     <g id="line2d_53">
      <path d="M 504.938301 141.816897 
L 843.153437 141.816897 
" clip-path="url(#p4959531a52)" style="fill: none; stroke: #b0b0b0; stroke-opacity: 0.3; stroke-width: 0.8; stroke-linecap: square"/>
     </g>
     <g id="line2d_54">
      <g>
       <use xlink:href="#m6d84fcd5f0" x="504.938301" y="141.816897" style="stroke: #000000; stroke-width: 0.8"/>
      </g>
     </g>
     <g id="text_32">
      <!-- 0.6 -->
      <g transform="translate(482.035176 145.616116) scale(0.1 -0.1)">
       <use xlink:href="#DejaVuSans-30"/>
       <use xlink:href="#DejaVuSans-2e" transform="translate(63.623047 0)"/>
       <use xlink:href="#DejaVuSans-36" transform="translate(95.410156 0)"/>
      </g>
     </g>
    </g>
    <g id="ytick_11">
     <g id="line2d_55">
      <path d="M 504.938301 88.623974 
L 843.153437 88.623974 
" clip-path="url(#p4959531a52)" style="fill: none; stroke: #b0b0b0; stroke-opacity: 0.3; stroke-width: 0.8; stroke-linecap: square"/>
     </g>
     <g id="line2d_56">
      <g>
       <use xlink:href="#m6d84fcd5f0" x="504.938301" y="88.623974" style="stroke: #000000; stroke-width: 0.8"/>
      </g>
     </g>
     <g id="text_33">
      <!-- 0.7 -->
      <g transform="translate(482.035176 92.423193) scale(0.1 -0.1)">
       <use xlink:href="#DejaVuSans-30"/>
       <use xlink:href="#DejaVuSans-2e" transform="translate(63.623047 0)"/>
       <use xlink:href="#DejaVuSans-37" transform="translate(95.410156 0)"/>
      </g>
     </g>
    </g>
    <g id="ytick_12">
     <g id="line2d_57">
      <path d="M 504.938301 35.431052 
L 843.153437 35.431052 
" clip-path="url(#p4959531a52)" style="fill: none; stroke: #b0b0b0; stroke-opacity: 0.3; stroke-width: 0.8; stroke-linecap: square"/>
     </g>
     <g id="line2d_58">
      <g>
       <use xlink:href="#m6d84fcd5f0" x="504.938301" y="35.431052" style="stroke: #000000; stroke-width: 0.8"/>
      </g>
     </g>
     <g id="text_34">
      <!-- 0.8 -->
      <g transform="translate(482.035176 39.23027) scale(0.1 -0.1)">
       <use xlink:href="#DejaVuSans-30"/>
       <use xlink:href="#DejaVuSans-2e" transform="translate(63.623047 0)"/>
       <use xlink:href="#DejaVuSans-38" transform="translate(95.410156 0)"/>
      </g>
     </g>
    </g>
    <g id="text_35">
     <!-- Latent Match Quality -->
     <g transform="translate(475.74752 225.046328) rotate(-90) scale(0.11 -0.11)">
      <defs>
       <path id="DejaVuSans-51" d="M 2522 4238 
Q 1834 4238 1429 3725 
Q 1025 3213 1025 2328 
Q 1025 1447 1429 934 
Q 1834 422 2522 422 
Q 3209 422 3611 934 
Q 4013 1447 4013 2328 
Q 4013 3213 3611 3725 
Q 3209 4238 2522 4238 
z
M 3406 84 
L 4238 -825 
L 3475 -825 
L 2784 -78 
Q 2681 -84 2626 -87 
Q 2572 -91 2522 -91 
Q 1538 -91 948 567 
Q 359 1225 359 2328 
Q 359 3434 948 4092 
Q 1538 4750 2522 4750 
Q 3503 4750 4090 4092 
Q 4678 3434 4678 2328 
Q 4678 1516 4351 937 
Q 4025 359 3406 84 
z
" transform="scale(0.015625)"/>
       <path id="DejaVuSans-79" d="M 2059 -325 
Q 1816 -950 1584 -1140 
Q 1353 -1331 966 -1331 
L 506 -1331 
L 506 -850 
L 844 -850 
Q 1081 -850 1212 -737 
Q 1344 -625 1503 -206 
L 1606 56 
L 191 3500 
L 800 3500 
L 1894 763 
L 2988 3500 
L 3597 3500 
L 2059 -325 
z
" transform="scale(0.015625)"/>
      </defs>
      <use xlink:href="#DejaVuSans-4c"/>
      <use xlink:href="#DejaVuSans-61" transform="translate(55.712891 0)"/>
      <use xlink:href="#DejaVuSans-74" transform="translate(116.992188 0)"/>
      <use xlink:href="#DejaVuSans-65" transform="translate(156.201172 0)"/>
      <use xlink:href="#DejaVuSans-6e" transform="translate(217.724609 0)"/>
      <use xlink:href="#DejaVuSans-74" transform="translate(281.103516 0)"/>
      <use xlink:href="#DejaVuSans-20" transform="translate(320.3125 0)"/>
      <use xlink:href="#DejaVuSans-4d" transform="translate(352.099609 0)"/>
      <use xlink:href="#DejaVuSans-61" transform="translate(438.378906 0)"/>
      <use xlink:href="#DejaVuSans-74" transform="translate(499.658203 0)"/>
      <use xlink:href="#DejaVuSans-63" transform="translate(538.867188 0)"/>
      <use xlink:href="#DejaVuSans-68" transform="translate(593.847656 0)"/>
      <use xlink:href="#DejaVuSans-20" transform="translate(657.226562 0)"/>
      <use xlink:href="#DejaVuSans-51" transform="translate(689.013672 0)"/>
      <use xlink:href="#DejaVuSans-75" transform="translate(767.724609 0)"/>
      <use xlink:href="#DejaVuSans-61" transform="translate(831.103516 0)"/>
      <use xlink:href="#DejaVuSans-6c" transform="translate(892.382812 0)"/>
      <use xlink:href="#DejaVuSans-69" transform="translate(920.166016 0)"/>
      <use xlink:href="#DejaVuSans-74" transform="translate(947.949219 0)"/>
      <use xlink:href="#DejaVuSans-79" transform="translate(987.158203 0)"/>
     </g>
    </g>
   </g>
   <g id="line2d_59">
    <path d="M 504.938301 291.319862 
L 509.839969 286.236427 
L 514.741638 289.605561 
L 519.643307 274.274722 
L 524.544975 269.326291 
L 529.446644 259.501877 
L 534.348313 248.819887 
L 539.249981 230.214705 
L 544.15165 215.549522 
L 549.053319 203.497176 
L 553.954987 196.134106 
L 558.856656 185.39871 
L 563.758325 167.83962 
L 568.659993 154.343299 
L 573.561662 144.323773 
L 578.463331 132.21217 
L 583.364999 134.003602 
L 588.266668 119.234374 
L 593.168336 114.184344 
L 598.070005 107.760022 
L 602.971674 95.688101 
L 607.873342 88.349393 
L 612.775011 82.754561 
L 617.67668 77.330479 
L 622.578348 70.418165 
L 627.480017 66.511676 
L 632.381686 66.652319 
L 637.283354 63.382975 
L 642.185023 64.839397 
L 647.086692 61.740484 
L 651.98836 63.2118 
L 656.890029 55.590637 
L 661.791698 58.324435 
L 666.693366 64.949188 
L 671.595035 59.420741 
L 676.496703 57.666438 
L 681.398372 57.438134 
L 686.300041 56.7412 
L 691.201709 61.31409 
L 696.103378 58.739765 
L 701.005047 55.82075 
L 705.906715 56.856523 
L 710.808384 57.689949 
L 715.710053 60.72535 
L 720.611721 60.840353 
L 725.51339 54.794233 
L 730.415059 56.805883 
L 735.316727 52.239909 
L 740.218396 57.677502 
L 745.120065 53.281852 
L 750.021733 50.71008 
L 754.923402 53.464729 
L 759.82507 53.309193 
L 764.726739 47.8716 
L 769.628408 47.771278 
L 774.530076 46.129744 
L 779.431745 52.460447 
L 784.333414 48.989609 
L 789.235082 47.19456 
L 794.136751 52.1398 
L 799.03842 50.280707 
L 803.940088 49.873249 
L 808.841757 47.430311 
L 813.743426 46.017507 
L 818.645094 45.886653 
L 823.546763 49.49675 
L 828.448432 44.046816 
L 833.3501 45.481322 
L 838.251769 46.579331 
L 843.153437 45.522281 
" clip-path="url(#p4959531a52)" style="fill: none; stroke: #2ca02c; stroke-width: 2; stroke-linecap: square"/>
   </g>
   <g id="line2d_60">
    <path d="M 504.938301 292.842137 
L 509.839969 292.337336 
L 514.741638 283.444544 
L 519.643307 277.764497 
L 524.544975 276.238286 
L 529.446644 263.461346 
L 534.348313 252.485731 
L 539.249981 252.010292 
L 544.15165 241.617778 
L 549.053319 228.842434 
L 553.954987 219.380583 
L 558.856656 204.739338 
L 563.758325 192.378153 
L 568.659993 178.858108 
L 573.561662 156.367183 
L 578.463331 147.78259 
L 583.364999 143.481729 
L 588.266668 133.704977 
L 593.168336 127.645983 
L 598.070005 123.500021 
L 602.971674 109.272722 
L 607.873342 93.43953 
L 612.775011 81.34314 
L 617.67668 73.833682 
L 622.578348 78.466254 
L 627.480017 73.60208 
L 632.381686 72.272789 
L 637.283354 75.686498 
L 642.185023 67.093394 
L 647.086692 66.064111 
L 651.98836 70.568169 
L 656.890029 64.210551 
L 661.791698 65.559842 
L 666.693366 60.59407 
L 671.595035 62.930516 
L 676.496703 64.141293 
L 681.398372 56.182994 
L 686.300041 61.49452 
L 691.201709 64.030227 
L 696.103378 59.149138 
L 701.005047 60.857056 
L 705.906715 60.070226 
L 710.808384 58.878279 
L 715.710053 61.045146 
L 720.611721 59.21382 
L 725.51339 57.466858 
L 730.415059 57.390686 
L 735.316727 58.904769 
L 740.218396 59.118605 
L 745.120065 59.780431 
L 750.021733 56.804181 
L 754.923402 56.181717 
L 759.82507 57.071422 
L 764.726739 58.096769 
L 769.628408 55.720003 
L 774.530076 53.763354 
L 779.431745 56.011287 
L 784.333414 50.992322 
L 789.235082 56.695029 
L 794.136751 51.55755 
L 799.03842 53.672713 
L 803.940088 52.901416 
L 808.841757 53.559306 
L 813.743426 49.337384 
L 818.645094 50.026551 
L 823.546763 50.963385 
L 828.448432 49.989104 
L 833.3501 49.65452 
L 838.251769 52.361295 
L 843.153437 54.377307 
" clip-path="url(#p4959531a52)" style="fill: none; stroke: #d65f5f; stroke-width: 1.6; stroke-linecap: square"/>
   </g>
   <g id="line2d_61">
    <path d="M 539.249981 313.438281 
L 539.249981 21.558281 
" clip-path="url(#p4959531a52)" style="fill: none; stroke-dasharray: 0.7,1.155; stroke-dashoffset: 0; stroke: #000000; stroke-opacity: 0.5; stroke-width: 0.7"/>
   </g>
   <g id="line2d_62">
    <path d="M 852.956775 313.438281 
L 852.956775 21.558281 
" clip-path="url(#p4959531a52)" style="fill: none; stroke-dasharray: 2.59,1.12; stroke-dashoffset: 0; stroke: #808080; stroke-opacity: 0.5; stroke-width: 0.7"/>
   </g>
   <g id="patch_9">
    <path d="M 504.938301 313.438281 
L 504.938301 21.558281 
" style="fill: none; stroke: #000000; stroke-width: 0.8; stroke-linejoin: miter; stroke-linecap: square"/>
   </g>
   <g id="patch_10">
    <path d="M 843.153437 313.438281 
L 843.153437 21.558281 
" style="fill: none; stroke: #000000; stroke-width: 0.8; stroke-linejoin: miter; stroke-linecap: square"/>
   </g>
   <g id="patch_11">
    <path d="M 504.938301 313.438281 
L 843.153437 313.438281 
" style="fill: none; stroke: #000000; stroke-width: 0.8; stroke-linejoin: miter; stroke-linecap: square"/>
   </g>
   <g id="patch_12">
    <path d="M 504.938301 21.558281 
L 843.153437 21.558281 
" style="fill: none; stroke: #000000; stroke-width: 0.8; stroke-linejoin: miter; stroke-linecap: square"/>
   </g>
   <g id="text_36">
    <!-- Figure 12b — LMQ trajectories -->
    <g transform="translate(590.848916 15.558281) scale(0.11 -0.11)">
     <defs>
      <path id="DejaVuSans-6a" d="M 603 3500 
L 1178 3500 
L 1178 -63 
Q 1178 -731 923 -1031 
Q 669 -1331 103 -1331 
L -116 -1331 
L -116 -844 
L 38 -844 
Q 366 -844 484 -692 
Q 603 -541 603 -63 
L 603 3500 
z
M 603 4863 
L 1178 4863 
L 1178 4134 
L 603 4134 
L 603 4863 
z
" transform="scale(0.015625)"/>
     </defs>
     <use xlink:href="#DejaVuSans-46"/>
     <use xlink:href="#DejaVuSans-69" transform="translate(50.269531 0)"/>
     <use xlink:href="#DejaVuSans-67" transform="translate(78.052734 0)"/>
     <use xlink:href="#DejaVuSans-75" transform="translate(141.529297 0)"/>
     <use xlink:href="#DejaVuSans-72" transform="translate(204.908203 0)"/>
     <use xlink:href="#DejaVuSans-65" transform="translate(243.771484 0)"/>
     <use xlink:href="#DejaVuSans-20" transform="translate(305.294922 0)"/>
     <use xlink:href="#DejaVuSans-31" transform="translate(337.082031 0)"/>
     <use xlink:href="#DejaVuSans-32" transform="translate(400.705078 0)"/>
     <use xlink:href="#DejaVuSans-62" transform="translate(464.328125 0)"/>
     <use xlink:href="#DejaVuSans-20" transform="translate(527.804688 0)"/>
     <use xlink:href="#DejaVuSans-2014" transform="translate(559.591797 0)"/>
     <use xlink:href="#DejaVuSans-20" transform="translate(659.591797 0)"/>
     <use xlink:href="#DejaVuSans-4c" transform="translate(691.378906 0)"/>
     <use xlink:href="#DejaVuSans-4d" transform="translate(747.091797 0)"/>
     <use xlink:href="#DejaVuSans-51" transform="translate(833.371094 0)"/>
     <use xlink:href="#DejaVuSans-20" transform="translate(912.082031 0)"/>
     <use xlink:href="#DejaVuSans-74" transform="translate(943.869141 0)"/>
     <use xlink:href="#DejaVuSans-72" transform="translate(983.078125 0)"/>
     <use xlink:href="#DejaVuSans-61" transform="translate(1024.191406 0)"/>
     <use xlink:href="#DejaVuSans-6a" transform="translate(1085.470703 0)"/>
     <use xlink:href="#DejaVuSans-65" transform="translate(1113.253906 0)"/>
     <use xlink:href="#DejaVuSans-63" transform="translate(1174.777344 0)"/>
     <use xlink:href="#DejaVuSans-74" transform="translate(1229.757812 0)"/>
     <use xlink:href="#DejaVuSans-6f" transform="translate(1268.966797 0)"/>
     <use xlink:href="#DejaVuSans-72" transform="translate(1330.148438 0)"/>
     <use xlink:href="#DejaVuSans-69" transform="translate(1371.261719 0)"/>
     <use xlink:href="#DejaVuSans-65" transform="translate(1399.044922 0)"/>
     <use xlink:href="#DejaVuSans-73" transform="translate(1460.568359 0)"/>
    </g>
   </g>
   <g id="legend_2">
    <g id="patch_13">
     <path d="M 697.23 308.438281 
L 836.153437 308.438281 
Q 838.153437 308.438281 838.153437 306.438281 
L 838.153437 278.082031 
Q 838.153437 276.082031 836.153437 276.082031 
L 697.23 276.082031 
Q 695.23 276.082031 695.23 278.082031 
L 695.23 306.438281 
Q 695.23 308.438281 697.23 308.438281 
z
" style="fill: #ffffff; opacity: 0.8; stroke: #cccccc; stroke-linejoin: miter"/>
    </g>
    <g id="line2d_63">
     <path d="M 699.23 284.180469 
L 709.23 284.180469 
L 719.23 284.180469 
" style="fill: none; stroke: #2ca02c; stroke-width: 2; stroke-linecap: square"/>
    </g>
    <g id="text_37">
     <!-- MF-CF (broadcast) -->
     <g transform="translate(727.23 287.680469) scale(0.1 -0.1)">
      <use xlink:href="#DejaVuSans-4d"/>
      <use xlink:href="#DejaVuSans-46" transform="translate(86.279297 0)"/>
      <use xlink:href="#DejaVuSans-2d" transform="translate(143.798828 0)"/>
      <use xlink:href="#DejaVuSans-43" transform="translate(179.882812 0)"/>
      <use xlink:href="#DejaVuSans-46" transform="translate(249.707031 0)"/>
      <use xlink:href="#DejaVuSans-20" transform="translate(307.226562 0)"/>
      <use xlink:href="#DejaVuSans-28" transform="translate(339.013672 0)"/>
      <use xlink:href="#DejaVuSans-62" transform="translate(378.027344 0)"/>
      <use xlink:href="#DejaVuSans-72" transform="translate(441.503906 0)"/>
      <use xlink:href="#DejaVuSans-6f" transform="translate(480.367188 0)"/>
      <use xlink:href="#DejaVuSans-61" transform="translate(541.548828 0)"/>
      <use xlink:href="#DejaVuSans-64" transform="translate(602.828125 0)"/>
      <use xlink:href="#DejaVuSans-63" transform="translate(666.304688 0)"/>
      <use xlink:href="#DejaVuSans-61" transform="translate(721.285156 0)"/>
      <use xlink:href="#DejaVuSans-73" transform="translate(782.564453 0)"/>
      <use xlink:href="#DejaVuSans-74" transform="translate(834.664062 0)"/>
      <use xlink:href="#DejaVuSans-29" transform="translate(873.873047 0)"/>
     </g>
    </g>
    <g id="line2d_64">
     <path d="M 699.23 298.858594 
L 709.23 298.858594 
L 719.23 298.858594 
" style="fill: none; stroke: #d65f5f; stroke-width: 1.6; stroke-linecap: square"/>
    </g>
    <g id="text_38">
     <!-- MF-CF (no broadcast) -->
     <g transform="translate(727.23 302.358594) scale(0.1 -0.1)">
      <use xlink:href="#DejaVuSans-4d"/>
      <use xlink:href="#DejaVuSans-46" transform="translate(86.279297 0)"/>
      <use xlink:href="#DejaVuSans-2d" transform="translate(143.798828 0)"/>
      <use xlink:href="#DejaVuSans-43" transform="translate(179.882812 0)"/>
      <use xlink:href="#DejaVuSans-46" transform="translate(249.707031 0)"/>
      <use xlink:href="#DejaVuSans-20" transform="translate(307.226562 0)"/>
      <use xlink:href="#DejaVuSans-28" transform="translate(339.013672 0)"/>
      <use xlink:href="#DejaVuSans-6e" transform="translate(378.027344 0)"/>
      <use xlink:href="#DejaVuSans-6f" transform="translate(441.40625 0)"/>
      <use xlink:href="#DejaVuSans-20" transform="translate(502.587891 0)"/>
      <use xlink:href="#DejaVuSans-62" transform="translate(534.375 0)"/>
      <use xlink:href="#DejaVuSans-72" transform="translate(597.851562 0)"/>
      <use xlink:href="#DejaVuSans-6f" transform="translate(636.714844 0)"/>
      <use xlink:href="#DejaVuSans-61" transform="translate(697.896484 0)"/>
      <use xlink:href="#DejaVuSans-64" transform="translate(759.175781 0)"/>
      <use xlink:href="#DejaVuSans-63" transform="translate(822.652344 0)"/>
      <use xlink:href="#DejaVuSans-61" transform="translate(877.632812 0)"/>
      <use xlink:href="#DejaVuSans-73" transform="translate(938.912109 0)"/>
      <use xlink:href="#DejaVuSans-74" transform="translate(991.011719 0)"/>
      <use xlink:href="#DejaVuSans-29" transform="translate(1030.220703 0)"/>
     </g>
    </g>
   </g>
  </g>
 </g>
 <defs>
  <clipPath id="pbd22e69f85">
   <rect x="47.933438" y="21.558281" width="338.215137" height="291.88"/>
  </clipPath>
  <clipPath id="p4959531a52">
   <rect x="504.938301" y="21.558281" width="338.215137" height="291.88"/>
  </clipPath>
 </defs>
</svg>
