<?xml version="1.0" encoding="utf-8" standalone="no"?>
<!DOCTYPE svg PUBLIC "-//W3C//DTD SVG 1.1//EN"
  "http://www.w3.org/Graphics/SVG/1.1/DTD/svg11.dtd">
<svg xmlns:xlink="http://www.w3.org/1999/xlink" width="567.52375pt" height="350.770156pt" viewBox="0 0 567.52375 350.770156" xmlns="http://www.w3.org/2000/svg" version="1.1">
 <metadata>
  <rdf:RDF xmlns:dc="http://purl.org/dc/elements/1.1/" xmlns:cc="http://creativecommons.org/ns#" xmlns:rdf="http://www.w3.org/1999/02/22-rdf-syntax-ns#">
   <cc:Work>
    <dc:type rdf:resource="http://purl.org/dc/dcmitype/StillImage"/>
    <dc:date>2026-05-11T14:04:25.133800</dc:date>
    <dc:format>image/svg+xml</dc:format>
    <dc:creator>
     <cc:Agent>
      <dc:title>Matplotlib v3.10.8, https://matplotlib.org/</dc:title>
     </cc:Agent>
    </dc:creator>
   </cc:Work>
  </rdf:RDF>
 </metadata>
 <defs>
  <style type="text/css">*{stroke-linejoin: round; stroke-linecap: butt}</style>
 </defs>
 <g id="figure_1">
  <g id="patch_1">
   <path d="M 0 350.770156 
L 567.52375 350.770156 
L 567.52375 0 
L 0 0 
z
" style="fill: #ffffff"/>
  </g>
  <g id="axes_1">
   <g id="patch_2">
    <path d="M 48.90125 311.278281 
L 553.96125 311.278281 
L 553.96125 21.558281 
L 48.90125 21.558281 
z
" style="fill: #ffffff"/>
   </g>
   <g id="FillBetweenPolyCollection_1">
    <defs>
     <path id="m9d41142da2" d="M 48.90125 -151.869849 
L 48.90125 -119.156873 
L 63.755956 -90.742149 
L 78.610662 -81.242525 
L 93.465368 -76.840495 
L 108.320074 -76.668412 
L 123.174779 -74.948811 
L 138.029485 -75.64071 
L 152.884191 -73.456949 
L 167.738897 -68.640821 
L 182.593603 -67.367991 
L 197.448309 -64.979412 
L 212.303015 -65.964015 
L 227.157721 -63.01319 
L 242.012426 -65.968025 
L 256.867132 -64.021527 
L 271.721838 -63.778281 
L 286.576544 -63.221323 
L 301.43125 -63.803197 
L 316.285956 -60.277553 
L 331.140662 -63.447441 
L 345.995368 -58.669263 
L 360.850074 -59.976618 
L 375.704779 -58.986468 
L 390.559485 -60.172642 
L 405.414191 -58.006388 
L 420.268897 -58.106491 
L 435.123603 -60.500768 
L 449.978309 -58.452386 
L 464.833015 -55.532648 
L 479.687721 -59.374955 
L 494.542426 -57.189682 
L 509.397132 -56.439162 
L 524.251838 -56.653446 
L 539.106544 -56.410793 
L 553.96125 -54.254456 
L 553.96125 -83.225142 
L 553.96125 -83.225142 
L 539.106544 -83.276195 
L 524.251838 -87.448323 
L 509.397132 -83.247826 
L 494.542426 -84.704696 
L 479.687721 -86.934205 
L 464.833015 -84.15434 
L 449.978309 -86.753078 
L 435.123603 -88.015782 
L 420.268897 -85.995278 
L 405.414191 -88.302772 
L 390.559485 -88.343908 
L 375.704779 -88.426387 
L 360.850074 -87.436236 
L 345.995368 -86.536202 
L 331.140662 -89.48389 
L 316.285956 -89.342692 
L 301.43125 -89.128133 
L 286.576544 -91.917399 
L 271.721838 -93.567831 
L 256.867132 -94.42828 
L 242.012426 -90.274391 
L 227.157721 -91.021836 
L 212.303015 -93.589487 
L 197.448309 -94.57409 
L 182.593603 -96.600292 
L 167.738897 -96.431157 
L 152.884191 -99.340896 
L 138.029485 -102.675612 
L 123.174779 -101.16012 
L 108.320074 -102.751605 
L 93.465368 -103.683217 
L 78.610662 -110.318139 
L 63.755956 -118.477639 
L 48.90125 -151.869849 
z
" style="stroke: #4878cf; stroke-opacity: 0.15"/>
    </defs>
    <g clip-path="url(#p746bdc4afe)">
     <use xlink:href="#m9d41142da2" x="0" y="350.770156" style="fill: #4878cf; fill-opacity: 0.15; stroke: #4878cf; stroke-opacity: 0.15"/>
    </g>
   </g>
   <g id="FillBetweenPolyCollection_2">
    <defs>
     <path id="md6dc321870" d="M 48.90125 -328.678283 
L 48.90125 -253.590496 
L 63.755956 -240.952577 
L 78.610662 -247.340237 
L 93.465368 -212.22207 
L 108.320074 -215.288074 
L 123.174779 -203.892048 
L 138.029485 -191.001653 
L 152.884191 -170.598306 
L 167.738897 -154.104469 
L 182.593603 -141.448751 
L 197.448309 -138.52818 
L 212.303015 -130.162651 
L 227.157721 -122.714135 
L 242.012426 -109.725781 
L 256.867132 -106.447801 
L 271.721838 -94.060656 
L 286.576544 -93.41541 
L 301.43125 -81.315643 
L 316.285956 -80.086445 
L 331.140662 -74.623002 
L 345.995368 -66.981265 
L 360.850074 -61.535823 
L 375.704779 -58.77374 
L 390.559485 -55.734827 
L 405.414191 -51.588445 
L 420.268897 -49.885322 
L 435.123603 -50.250395 
L 449.978309 -48.053324 
L 464.833015 -49.50417 
L 479.687721 -49.96107 
L 494.542426 -49.504948 
L 509.397132 -45.690494 
L 524.251838 -47.045013 
L 539.106544 -50.611854 
L 553.96125 -46.745709 
L 553.96125 -75.282155 
L 553.96125 -75.282155 
L 539.106544 -78.038181 
L 524.251838 -77.190242 
L 509.397132 -75.233675 
L 494.542426 -78.041393 
L 479.687721 -78.688966 
L 464.833015 -80.249561 
L 449.978309 -77.285626 
L 435.123603 -80.607031 
L 420.268897 -76.557323 
L 405.414191 -79.268981 
L 390.559485 -82.848466 
L 375.704779 -82.016943 
L 360.850074 -86.980727 
L 345.995368 -89.261152 
L 331.140662 -95.967452 
L 316.285956 -104.852048 
L 301.43125 -103.62285 
L 286.576544 -115.804378 
L 271.721838 -110.744352 
L 256.867132 -117.120026 
L 242.012426 -124.878998 
L 227.157721 -142.79411 
L 212.303015 -156.315804 
L 197.448309 -172.23157 
L 182.593603 -198.007075 
L 167.738897 -194.180919 
L 152.884191 -215.21272 
L 138.029485 -243.371963 
L 123.174779 -249.244388 
L 108.320074 -268.751828 
L 93.465368 -292.788042 
L 78.610662 -330.513761 
L 63.755956 -324.760773 
L 48.90125 -328.678283 
z
" style="stroke: #d65f5f; stroke-opacity: 0.15"/>
    </defs>
    <g clip-path="url(#p746bdc4afe)">
     <use xlink:href="#md6dc321870" x="0" y="350.770156" style="fill: #d65f5f; fill-opacity: 0.15; stroke: #d65f5f; stroke-opacity: 0.15"/>
    </g>
   </g>
   <g id="FillBetweenPolyCollection_3">
    <defs>
     <path id="m797e3c1d92" d="M 48.90125 -151.869849 
L 48.90125 -119.156873 
L 63.755956 -90.742149 
L 78.610662 -81.242525 
L 93.465368 -76.840495 
L 108.320074 -76.668412 
L 123.174779 -56.382484 
L 138.029485 -56.071959 
L 152.884191 -55.964773 
L 167.738897 -56.078699 
L 182.593603 -56.810472 
L 197.448309 -55.937372 
L 212.303015 -55.957645 
L 227.157721 -56.48569 
L 242.012426 -53.260501 
L 256.867132 -49.856103 
L 271.721838 -53.060091 
L 286.576544 -50.657122 
L 301.43125 -49.658888 
L 316.285956 -52.759232 
L 331.140662 -52.782297 
L 345.995368 -51.092177 
L 360.850074 -49.910916 
L 375.704779 -50.084673 
L 390.559485 -49.680525 
L 405.414191 -49.44396 
L 420.268897 -48.692768 
L 435.123603 -47.09757 
L 449.978309 -48.532757 
L 464.833015 -49.36205 
L 479.687721 -47.740878 
L 494.542426 -46.484971 
L 509.397132 -47.269579 
L 524.251838 -46.015069 
L 539.106544 -45.578764 
L 553.96125 -47.126084 
L 553.96125 -73.798085 
L 553.96125 -73.798085 
L 539.106544 -73.138014 
L 524.251838 -73.805405 
L 509.397132 -73.65459 
L 494.542426 -74.439198 
L 479.687721 -74.286986 
L 464.833015 -75.9769 
L 449.978309 -75.702497 
L 435.123603 -73.826599 
L 420.268897 -73.335097 
L 405.414191 -73.6876 
L 390.559485 -75.658425 
L 375.704779 -79.669058 
L 360.850074 -77.635424 
L 345.995368 -77.557859 
L 331.140662 -75.867739 
L 316.285956 -79.20189 
L 301.43125 -76.783757 
L 286.576544 -80.200304 
L 271.721838 -80.004726 
L 256.867132 -77.690238 
L 242.012426 -80.908011 
L 227.157721 -82.097603 
L 212.303015 -81.521953 
L 197.448309 -83.749616 
L 182.593603 -83.980212 
L 167.738897 -80.297203 
L 152.884191 -83.722215 
L 138.029485 -86.926115 
L 123.174779 -83.304504 
L 108.320074 -102.751605 
L 93.465368 -103.683217 
L 78.610662 -110.318139 
L 63.755956 -118.477639 
L 48.90125 -151.869849 
z
" style="stroke: #2ca02c; stroke-opacity: 0.15"/>
    </defs>
    <g clip-path="url(#p746bdc4afe)">
     <use xlink:href="#m797e3c1d92" x="0" y="350.770156" style="fill: #2ca02c; fill-opacity: 0.15; stroke: #2ca02c; stroke-opacity: 0.15"/>
    </g>
   </g>
   <g id="FillBetweenPolyCollection_4">
    <defs>
     <path id="m6f66337579" d="M 48.90125 -151.869849 
L 48.90125 -119.156873 
L 63.755956 -90.742149 
L 78.610662 -81.242525 
L 93.465368 -76.840495 
L 108.320074 -76.668412 
L 123.174779 -74.948811 
L 138.029485 -75.64071 
L 152.884191 -73.456949 
L 167.738897 -58.326622 
L 182.593603 -55.551769 
L 197.448309 -59.155695 
L 212.303015 -57.525829 
L 227.157721 -56.047304 
L 242.012426 -52.562168 
L 256.867132 -52.826709 
L 271.721838 -54.654165 
L 286.576544 -56.198159 
L 301.43125 -50.282692 
L 316.285956 -50.812562 
L 331.140662 -50.969674 
L 345.995368 -52.555701 
L 360.850074 -53.101371 
L 375.704779 -51.451599 
L 390.559485 -50.987178 
L 405.414191 -51.208189 
L 420.268897 -49.349195 
L 435.123603 -49.885322 
L 449.978309 -49.774285 
L 464.833015 -48.053324 
L 479.687721 -51.09724 
L 494.542426 -48.99523 
L 509.397132 -48.829207 
L 524.251838 -46.430606 
L 539.106544 -46.665894 
L 553.96125 -50.048907 
L 553.96125 -77.497433 
L 553.96125 -77.497433 
L 539.106544 -75.36197 
L 524.251838 -74.493563 
L 509.397132 -76.509743 
L 494.542426 -76.34372 
L 479.687721 -78.656491 
L 464.833015 -77.285626 
L 449.978309 -77.772055 
L 435.123603 -76.557323 
L 420.268897 -81.508231 
L 405.414191 -78.545542 
L 390.559485 -78.766553 
L 375.704779 -79.405827 
L 360.850074 -77.756055 
L 345.995368 -77.19803 
L 331.140662 -79.887753 
L 316.285956 -80.044864 
L 301.43125 -78.367344 
L 286.576544 -81.281439 
L 271.721838 -82.825432 
L 256.867132 -81.341803 
L 242.012426 -81.606344 
L 227.157721 -84.74338 
L 212.303015 -84.36855 
L 197.448309 -87.153465 
L 182.593603 -85.238914 
L 167.738897 -85.775147 
L 152.884191 -99.340896 
L 138.029485 -102.675612 
L 123.174779 -101.16012 
L 108.320074 -102.751605 
L 93.465368 -103.683217 
L 78.610662 -110.318139 
L 63.755956 -118.477639 
L 48.90125 -151.869849 
z
" style="stroke: #ff7f0e; stroke-opacity: 0.15"/>
    </defs>
    <g clip-path="url(#p746bdc4afe)">
     <use xlink:href="#m6f66337579" x="0" y="350.770156" style="fill: #ff7f0e; fill-opacity: 0.15; stroke: #ff7f0e; stroke-opacity: 0.15"/>
    </g>
   </g>
   <g id="FillBetweenPolyCollection_5">
    <defs>
     <path id="m4e70c95bf9" d="M 48.90125 -151.869849 
L 48.90125 -119.156873 
L 63.755956 -90.742149 
L 78.610662 -81.242525 
L 93.465368 -76.840495 
L 108.320074 -76.668412 
L 123.174779 -74.948811 
L 138.029485 -75.64071 
L 152.884191 -73.456949 
L 167.738897 -68.640821 
L 182.593603 -67.367991 
L 197.448309 -64.979412 
L 212.303015 -65.964015 
L 227.157721 -58.59584 
L 242.012426 -57.003547 
L 256.867132 -56.888607 
L 271.721838 -56.852637 
L 286.576544 -56.020797 
L 301.43125 -57.809366 
L 316.285956 -51.376322 
L 331.140662 -54.156473 
L 345.995368 -54.292783 
L 360.850074 -51.710742 
L 375.704779 -52.562168 
L 390.559485 -53.510599 
L 405.414191 -52.34445 
L 420.268897 -53.541552 
L 435.123603 -51.747994 
L 449.978309 -49.504948 
L 464.833015 -50.771073 
L 479.687721 -52.863732 
L 494.542426 -49.965947 
L 509.397132 -50.949115 
L 524.251838 -51.690132 
L 539.106544 -48.504765 
L 553.96125 -48.053324 
L 553.96125 -77.285626 
L 553.96125 -77.285626 
L 539.106544 -75.73049 
L 524.251838 -78.063599 
L 509.397132 -77.700921 
L 494.542426 -77.580393 
L 479.687721 -80.201085 
L 464.833015 -75.671572 
L 449.978309 -78.041393 
L 435.123603 -78.005737 
L 420.268897 -77.315875 
L 405.414191 -80.720367 
L 390.559485 -80.657913 
L 375.704779 -81.606344 
L 360.850074 -76.939294 
L 345.995368 -82.083119 
L 331.140662 -82.21943 
L 316.285956 -78.377409 
L 301.43125 -86.292403 
L 286.576544 -84.769886 
L 271.721838 -80.62696 
L 256.867132 -85.005771 
L 242.012426 -87.098222 
L 227.157721 -87.71332 
L 212.303015 -93.589487 
L 197.448309 -94.57409 
L 182.593603 -96.600292 
L 167.738897 -96.431157 
L 152.884191 -99.340896 
L 138.029485 -102.675612 
L 123.174779 -101.16012 
L 108.320074 -102.751605 
L 93.465368 -103.683217 
L 78.610662 -110.318139 
L 63.755956 -118.477639 
L 48.90125 -151.869849 
z
" style="stroke: #9467bd; stroke-opacity: 0.15"/>
    </defs>
    <g clip-path="url(#p746bdc4afe)">
     <use xlink:href="#m4e70c95bf9" x="0" y="350.770156" style="fill: #9467bd; fill-opacity: 0.15; stroke: #9467bd; stroke-opacity: 0.15"/>
    </g>
   </g>
   <g id="matplotlib.axis_1">
    <g id="xtick_1">
     <g id="line2d_1">
      <path d="M 108.320074 311.278281 
L 108.320074 21.558281 
" clip-path="url(#p746bdc4afe)" style="fill: none; stroke: #b0b0b0; stroke-opacity: 0.3; stroke-width: 0.8; stroke-linecap: square"/>
     </g>
     <g id="line2d_2">
      <defs>
       <path id="me291ec6d91" d="M 0 0 
L 0 3.5 
" style="stroke: #000000; stroke-width: 0.8"/>
      </defs>
      <g>
       <use xlink:href="#me291ec6d91" x="108.320074" y="311.278281" style="stroke: #000000; stroke-width: 0.8"/>
      </g>
     </g>
     <g id="text_1">
      <!-- 5 -->
      <g transform="translate(105.138824 325.876719) scale(0.1 -0.1)">
       <defs>
        <path id="DejaVuSans-35" d="M 691 4666 
L 3169 4666 
L 3169 4134 
L 1269 4134 
L 1269 2991 
Q 1406 3038 1543 3061 
Q 1681 3084 1819 3084 
Q 2600 3084 3056 2656 
Q 3513 2228 3513 1497 
Q 3513 744 3044 326 
Q 2575 -91 1722 -91 
Q 1428 -91 1123 -41 
Q 819 9 494 109 
L 494 744 
Q 775 591 1075 516 
Q 1375 441 1709 441 
Q 2250 441 2565 725 
Q 2881 1009 2881 1497 
Q 2881 1984 2565 2268 
Q 2250 2553 1709 2553 
Q 1456 2553 1204 2497 
Q 953 2441 691 2322 
L 691 4666 
z
" transform="scale(0.015625)"/>
       </defs>
       <use xlink:href="#DejaVuSans-35"/>
      </g>
     </g>
    </g>
    <g id="xtick_2">
     <g id="line2d_3">
      <path d="M 182.593603 311.278281 
L 182.593603 21.558281 
" clip-path="url(#p746bdc4afe)" style="fill: none; stroke: #b0b0b0; stroke-opacity: 0.3; stroke-width: 0.8; stroke-linecap: square"/>
     </g>
     <g id="line2d_4">
      <g>
       <use xlink:href="#me291ec6d91" x="182.593603" y="311.278281" style="stroke: #000000; stroke-width: 0.8"/>
      </g>
     </g>
     <g id="text_2">
      <!-- 10 -->
      <g transform="translate(176.231103 325.876719) scale(0.1 -0.1)">
       <defs>
        <path id="DejaVuSans-31" d="M 794 531 
L 1825 531 
L 1825 4091 
L 703 3866 
L 703 4441 
L 1819 4666 
L 2450 4666 
L 2450 531 
L 3481 531 
L 3481 0 
L 794 0 
L 794 531 
z
" transform="scale(0.015625)"/>
        <path id="DejaVuSans-30" d="M 2034 4250 
Q 1547 4250 1301 3770 
Q 1056 3291 1056 2328 
Q 1056 1369 1301 889 
Q 1547 409 2034 409 
Q 2525 409 2770 889 
Q 3016 1369 3016 2328 
Q 3016 3291 2770 3770 
Q 2525 4250 2034 4250 
z
M 2034 4750 
Q 2819 4750 3233 4129 
Q 3647 3509 3647 2328 
Q 3647 1150 3233 529 
Q 2819 -91 2034 -91 
Q 1250 -91 836 529 
Q 422 1150 422 2328 
Q 422 3509 836 4129 
Q 1250 4750 2034 4750 
z
" transform="scale(0.015625)"/>
       </defs>
       <use xlink:href="#DejaVuSans-31"/>
       <use xlink:href="#DejaVuSans-30" transform="translate(63.623047 0)"/>
      </g>
     </g>
    </g>
    <g id="xtick_3">
     <g id="line2d_5">
      <path d="M 256.867132 311.278281 
L 256.867132 21.558281 
" clip-path="url(#p746bdc4afe)" style="fill: none; stroke: #b0b0b0; stroke-opacity: 0.3; stroke-width: 0.8; stroke-linecap: square"/>
     </g>
     <g id="line2d_6">
      <g>
       <use xlink:href="#me291ec6d91" x="256.867132" y="311.278281" style="stroke: #000000; stroke-width: 0.8"/>
      </g>
     </g>
     <g id="text_3">
      <!-- 15 -->
      <g transform="translate(250.504632 325.876719) scale(0.1 -0.1)">
       <use xlink:href="#DejaVuSans-31"/>
       <use xlink:href="#DejaVuSans-35" transform="translate(63.623047 0)"/>
      </g>
     </g>
    </g>
    <g id="xtick_4">
     <g id="line2d_7">
      <path d="M 331.140662 311.278281 
L 331.140662 21.558281 
" clip-path="url(#p746bdc4afe)" style="fill: none; stroke: #b0b0b0; stroke-opacity: 0.3; stroke-width: 0.8; stroke-linecap: square"/>
     </g>
     <g id="line2d_8">
      <g>
       <use xlink:href="#me291ec6d91" x="331.140662" y="311.278281" style="stroke: #000000; stroke-width: 0.8"/>
      </g>
     </g>
     <g id="text_4">
      <!-- 20 -->
      <g transform="translate(324.778162 325.876719) scale(0.1 -0.1)">
       <defs>
        <path id="DejaVuSans-32" d="M 1228 531 
L 3431 531 
L 3431 0 
L 469 0 
L 469 531 
Q 828 903 1448 1529 
Q 2069 2156 2228 2338 
Q 2531 2678 2651 2914 
Q 2772 3150 2772 3378 
Q 2772 3750 2511 3984 
Q 2250 4219 1831 4219 
Q 1534 4219 1204 4116 
Q 875 4013 500 3803 
L 500 4441 
Q 881 4594 1212 4672 
Q 1544 4750 1819 4750 
Q 2544 4750 2975 4387 
Q 3406 4025 3406 3419 
Q 3406 3131 3298 2873 
Q 3191 2616 2906 2266 
Q 2828 2175 2409 1742 
Q 1991 1309 1228 531 
z
" transform="scale(0.015625)"/>
       </defs>
       <use xlink:href="#DejaVuSans-32"/>
       <use xlink:href="#DejaVuSans-30" transform="translate(63.623047 0)"/>
      </g>
     </g>
    </g>
    <g id="xtick_5">
     <g id="line2d_9">
      <path d="M 405.414191 311.278281 
L 405.414191 21.558281 
" clip-path="url(#p746bdc4afe)" style="fill: none; stroke: #b0b0b0; stroke-opacity: 0.3; stroke-width: 0.8; stroke-linecap: square"/>
     </g>
     <g id="line2d_10">
      <g>
       <use xlink:href="#me291ec6d91" x="405.414191" y="311.278281" style="stroke: #000000; stroke-width: 0.8"/>
      </g>
     </g>
     <g id="text_5">
      <!-- 25 -->
      <g transform="translate(399.051691 325.876719) scale(0.1 -0.1)">
       <use xlink:href="#DejaVuSans-32"/>
       <use xlink:href="#DejaVuSans-35" transform="translate(63.623047 0)"/>
      </g>
     </g>
    </g>
    <g id="xtick_6">
     <g id="line2d_11">
      <path d="M 479.687721 311.278281 
L 479.687721 21.558281 
" clip-path="url(#p746bdc4afe)" style="fill: none; stroke: #b0b0b0; stroke-opacity: 0.3; stroke-width: 0.8; stroke-linecap: square"/>
     </g>
     <g id="line2d_12">
      <g>
       <use xlink:href="#me291ec6d91" x="479.687721" y="311.278281" style="stroke: #000000; stroke-width: 0.8"/>
      </g>
     </g>
     <g id="text_6">
      <!-- 30 -->
      <g transform="translate(473.325221 325.876719) scale(0.1 -0.1)">
       <defs>
        <path id="DejaVuSans-33" d="M 2597 2516 
Q 3050 2419 3304 2112 
Q 3559 1806 3559 1356 
Q 3559 666 3084 287 
Q 2609 -91 1734 -91 
Q 1441 -91 1130 -33 
Q 819 25 488 141 
L 488 750 
Q 750 597 1062 519 
Q 1375 441 1716 441 
Q 2309 441 2620 675 
Q 2931 909 2931 1356 
Q 2931 1769 2642 2001 
Q 2353 2234 1838 2234 
L 1294 2234 
L 1294 2753 
L 1863 2753 
Q 2328 2753 2575 2939 
Q 2822 3125 2822 3475 
Q 2822 3834 2567 4026 
Q 2313 4219 1838 4219 
Q 1578 4219 1281 4162 
Q 984 4106 628 3988 
L 628 4550 
Q 988 4650 1302 4700 
Q 1616 4750 1894 4750 
Q 2613 4750 3031 4423 
Q 3450 4097 3450 3541 
Q 3450 3153 3228 2886 
Q 3006 2619 2597 2516 
z
" transform="scale(0.015625)"/>
       </defs>
       <use xlink:href="#DejaVuSans-33"/>
       <use xlink:href="#DejaVuSans-30" transform="translate(63.623047 0)"/>
      </g>
     </g>
    </g>
    <g id="xtick_7">
     <g id="line2d_13">
      <path d="M 553.96125 311.278281 
L 553.96125 21.558281 
" clip-path="url(#p746bdc4afe)" style="fill: none; stroke: #b0b0b0; stroke-opacity: 0.3; stroke-width: 0.8; stroke-linecap: square"/>
     </g>
     <g id="line2d_14">
      <g>
       <use xlink:href="#me291ec6d91" x="553.96125" y="311.278281" style="stroke: #000000; stroke-width: 0.8"/>
      </g>
     </g>
     <g id="text_7">
      <!-- 35 -->
      <g transform="translate(547.59875 325.876719) scale(0.1 -0.1)">
       <use xlink:href="#DejaVuSans-33"/>
       <use xlink:href="#DejaVuSans-35" transform="translate(63.623047 0)"/>
      </g>
     </g>
    </g>
    <g id="text_8">
     <!-- Episode -->
     <g transform="translate(277.86625 341.074531) scale(0.12 -0.12)">
      <defs>
       <path id="DejaVuSans-45" d="M 628 4666 
L 3578 4666 
L 3578 4134 
L 1259 4134 
L 1259 2753 
L 3481 2753 
L 3481 2222 
L 1259 2222 
L 1259 531 
L 3634 531 
L 3634 0 
L 628 0 
L 628 4666 
z
" transform="scale(0.015625)"/>
       <path id="DejaVuSans-70" d="M 1159 525 
L 1159 -1331 
L 581 -1331 
L 581 3500 
L 1159 3500 
L 1159 2969 
Q 1341 3281 1617 3432 
Q 1894 3584 2278 3584 
Q 2916 3584 3314 3078 
Q 3713 2572 3713 1747 
Q 3713 922 3314 415 
Q 2916 -91 2278 -91 
Q 1894 -91 1617 61 
Q 1341 213 1159 525 
z
M 3116 1747 
Q 3116 2381 2855 2742 
Q 2594 3103 2138 3103 
Q 1681 3103 1420 2742 
Q 1159 2381 1159 1747 
Q 1159 1113 1420 752 
Q 1681 391 2138 391 
Q 2594 391 2855 752 
Q 3116 1113 3116 1747 
z
" transform="scale(0.015625)"/>
       <path id="DejaVuSans-69" d="M 603 3500 
L 1178 3500 
L 1178 0 
L 603 0 
L 603 3500 
z
M 603 4863 
L 1178 4863 
L 1178 4134 
L 603 4134 
L 603 4863 
z
" transform="scale(0.015625)"/>
       <path id="DejaVuSans-73" d="M 2834 3397 
L 2834 2853 
Q 2591 2978 2328 3040 
Q 2066 3103 1784 3103 
Q 1356 3103 1142 2972 
Q 928 2841 928 2578 
Q 928 2378 1081 2264 
Q 1234 2150 1697 2047 
L 1894 2003 
Q 2506 1872 2764 1633 
Q 3022 1394 3022 966 
Q 3022 478 2636 193 
Q 2250 -91 1575 -91 
Q 1294 -91 989 -36 
Q 684 19 347 128 
L 347 722 
Q 666 556 975 473 
Q 1284 391 1588 391 
Q 1994 391 2212 530 
Q 2431 669 2431 922 
Q 2431 1156 2273 1281 
Q 2116 1406 1581 1522 
L 1381 1569 
Q 847 1681 609 1914 
Q 372 2147 372 2553 
Q 372 3047 722 3315 
Q 1072 3584 1716 3584 
Q 2034 3584 2315 3537 
Q 2597 3491 2834 3397 
z
" transform="scale(0.015625)"/>
       <path id="DejaVuSans-6f" d="M 1959 3097 
Q 1497 3097 1228 2736 
Q 959 2375 959 1747 
Q 959 1119 1226 758 
Q 1494 397 1959 397 
Q 2419 397 2687 759 
Q 2956 1122 2956 1747 
Q 2956 2369 2687 2733 
Q 2419 3097 1959 3097 
z
M 1959 3584 
Q 2709 3584 3137 3096 
Q 3566 2609 3566 1747 
Q 3566 888 3137 398 
Q 2709 -91 1959 -91 
Q 1206 -91 779 398 
Q 353 888 353 1747 
Q 353 2609 779 3096 
Q 1206 3584 1959 3584 
z
" transform="scale(0.015625)"/>
       <path id="DejaVuSans-64" d="M 2906 2969 
L 2906 4863 
L 3481 4863 
L 3481 0 
L 2906 0 
L 2906 525 
Q 2725 213 2448 61 
Q 2172 -91 1784 -91 
Q 1150 -91 751 415 
Q 353 922 353 1747 
Q 353 2572 751 3078 
Q 1150 3584 1784 3584 
Q 2172 3584 2448 3432 
Q 2725 3281 2906 2969 
z
M 947 1747 
Q 947 1113 1208 752 
Q 1469 391 1925 391 
Q 2381 391 2643 752 
Q 2906 1113 2906 1747 
Q 2906 2381 2643 2742 
Q 2381 3103 1925 3103 
Q 1469 3103 1208 2742 
Q 947 2381 947 1747 
z
" transform="scale(0.015625)"/>
       <path id="DejaVuSans-65" d="M 3597 1894 
L 3597 1613 
L 953 1613 
Q 991 1019 1311 708 
Q 1631 397 2203 397 
Q 2534 397 2845 478 
Q 3156 559 3463 722 
L 3463 178 
Q 3153 47 2828 -22 
Q 2503 -91 2169 -91 
Q 1331 -91 842 396 
Q 353 884 353 1716 
Q 353 2575 817 3079 
Q 1281 3584 2069 3584 
Q 2775 3584 3186 3129 
Q 3597 2675 3597 1894 
z
M 3022 2063 
Q 3016 2534 2758 2815 
Q 2500 3097 2075 3097 
Q 1594 3097 1305 2825 
Q 1016 2553 972 2059 
L 3022 2063 
z
" transform="scale(0.015625)"/>
      </defs>
      <use xlink:href="#DejaVuSans-45"/>
      <use xlink:href="#DejaVuSans-70" transform="translate(63.183594 0)"/>
      <use xlink:href="#DejaVuSans-69" transform="translate(126.660156 0)"/>
      <use xlink:href="#DejaVuSans-73" transform="translate(154.443359 0)"/>
      <use xlink:href="#DejaVuSans-6f" transform="translate(206.542969 0)"/>
      <use xlink:href="#DejaVuSans-64" transform="translate(267.724609 0)"/>
      <use xlink:href="#DejaVuSans-65" transform="translate(331.201172 0)"/>
     </g>
    </g>
   </g>
   <g id="matplotlib.axis_2">
    <g id="ytick_1">
     <g id="line2d_15">
      <path d="M 48.90125 297.482091 
L 553.96125 297.482091 
" clip-path="url(#p746bdc4afe)" style="fill: none; stroke: #b0b0b0; stroke-opacity: 0.3; stroke-width: 0.8; stroke-linecap: square"/>
     </g>
     <g id="line2d_16">
      <defs>
       <path id="m746ca69df7" d="M 0 0 
L -3.5 0 
" style="stroke: #000000; stroke-width: 0.8"/>
      </defs>
      <g>
       <use xlink:href="#m746ca69df7" x="48.90125" y="297.482091" style="stroke: #000000; stroke-width: 0.8"/>
      </g>
     </g>
     <g id="text_9">
      <!-- 60 -->
      <g transform="translate(29.17625 301.28131) scale(0.1 -0.1)">
       <defs>
        <path id="DejaVuSans-36" d="M 2113 2584 
Q 1688 2584 1439 2293 
Q 1191 2003 1191 1497 
Q 1191 994 1439 701 
Q 1688 409 2113 409 
Q 2538 409 2786 701 
Q 3034 994 3034 1497 
Q 3034 2003 2786 2293 
Q 2538 2584 2113 2584 
z
M 3366 4563 
L 3366 3988 
Q 3128 4100 2886 4159 
Q 2644 4219 2406 4219 
Q 1781 4219 1451 3797 
Q 1122 3375 1075 2522 
Q 1259 2794 1537 2939 
Q 1816 3084 2150 3084 
Q 2853 3084 3261 2657 
Q 3669 2231 3669 1497 
Q 3669 778 3244 343 
Q 2819 -91 2113 -91 
Q 1303 -91 875 529 
Q 447 1150 447 2328 
Q 447 3434 972 4092 
Q 1497 4750 2381 4750 
Q 2619 4750 2861 4703 
Q 3103 4656 3366 4563 
z
" transform="scale(0.015625)"/>
       </defs>
       <use xlink:href="#DejaVuSans-36"/>
       <use xlink:href="#DejaVuSans-30" transform="translate(63.623047 0)"/>
      </g>
     </g>
    </g>
    <g id="ytick_2">
     <g id="line2d_17">
      <path d="M 48.90125 242.297329 
L 553.96125 242.297329 
" clip-path="url(#p746bdc4afe)" style="fill: none; stroke: #b0b0b0; stroke-opacity: 0.3; stroke-width: 0.8; stroke-linecap: square"/>
     </g>
     <g id="line2d_18">
      <g>
       <use xlink:href="#m746ca69df7" x="48.90125" y="242.297329" style="stroke: #000000; stroke-width: 0.8"/>
      </g>
     </g>
     <g id="text_10">
      <!-- 80 -->
      <g transform="translate(29.17625 246.096548) scale(0.1 -0.1)">
       <defs>
        <path id="DejaVuSans-38" d="M 2034 2216 
Q 1584 2216 1326 1975 
Q 1069 1734 1069 1313 
Q 1069 891 1326 650 
Q 1584 409 2034 409 
Q 2484 409 2743 651 
Q 3003 894 3003 1313 
Q 3003 1734 2745 1975 
Q 2488 2216 2034 2216 
z
M 1403 2484 
Q 997 2584 770 2862 
Q 544 3141 544 3541 
Q 544 4100 942 4425 
Q 1341 4750 2034 4750 
Q 2731 4750 3128 4425 
Q 3525 4100 3525 3541 
Q 3525 3141 3298 2862 
Q 3072 2584 2669 2484 
Q 3125 2378 3379 2068 
Q 3634 1759 3634 1313 
Q 3634 634 3220 271 
Q 2806 -91 2034 -91 
Q 1263 -91 848 271 
Q 434 634 434 1313 
Q 434 1759 690 2068 
Q 947 2378 1403 2484 
z
M 1172 3481 
Q 1172 3119 1398 2916 
Q 1625 2713 2034 2713 
Q 2441 2713 2670 2916 
Q 2900 3119 2900 3481 
Q 2900 3844 2670 4047 
Q 2441 4250 2034 4250 
Q 1625 4250 1398 4047 
Q 1172 3844 1172 3481 
z
" transform="scale(0.015625)"/>
       </defs>
       <use xlink:href="#DejaVuSans-38"/>
       <use xlink:href="#DejaVuSans-30" transform="translate(63.623047 0)"/>
      </g>
     </g>
    </g>
    <g id="ytick_3">
     <g id="line2d_19">
      <path d="M 48.90125 187.112567 
L 553.96125 187.112567 
" clip-path="url(#p746bdc4afe)" style="fill: none; stroke: #b0b0b0; stroke-opacity: 0.3; stroke-width: 0.8; stroke-linecap: square"/>
     </g>
     <g id="line2d_20">
      <g>
       <use xlink:href="#m746ca69df7" x="48.90125" y="187.112567" style="stroke: #000000; stroke-width: 0.8"/>
      </g>
     </g>
     <g id="text_11">
      <!-- 100 -->
      <g transform="translate(22.81375 190.911786) scale(0.1 -0.1)">
       <use xlink:href="#DejaVuSans-31"/>
       <use xlink:href="#DejaVuSans-30" transform="translate(63.623047 0)"/>
       <use xlink:href="#DejaVuSans-30" transform="translate(127.246094 0)"/>
      </g>
     </g>
    </g>
    <g id="ytick_4">
     <g id="line2d_21">
      <path d="M 48.90125 131.927805 
L 553.96125 131.927805 
" clip-path="url(#p746bdc4afe)" style="fill: none; stroke: #b0b0b0; stroke-opacity: 0.3; stroke-width: 0.8; stroke-linecap: square"/>
     </g>
     <g id="line2d_22">
      <g>
       <use xlink:href="#m746ca69df7" x="48.90125" y="131.927805" style="stroke: #000000; stroke-width: 0.8"/>
      </g>
     </g>
     <g id="text_12">
      <!-- 120 -->
      <g transform="translate(22.81375 135.727024) scale(0.1 -0.1)">
       <use xlink:href="#DejaVuSans-31"/>
       <use xlink:href="#DejaVuSans-32" transform="translate(63.623047 0)"/>
       <use xlink:href="#DejaVuSans-30" transform="translate(127.246094 0)"/>
      </g>
     </g>
    </g>
    <g id="ytick_5">
     <g id="line2d_23">
      <path d="M 48.90125 76.743043 
L 553.96125 76.743043 
" clip-path="url(#p746bdc4afe)" style="fill: none; stroke: #b0b0b0; stroke-opacity: 0.3; stroke-width: 0.8; stroke-linecap: square"/>
     </g>
     <g id="line2d_24">
      <g>
       <use xlink:href="#m746ca69df7" x="48.90125" y="76.743043" style="stroke: #000000; stroke-width: 0.8"/>
      </g>
     </g>
     <g id="text_13">
      <!-- 140 -->
      <g transform="translate(22.81375 80.542262) scale(0.1 -0.1)">
       <defs>
        <path id="DejaVuSans-34" d="M 2419 4116 
L 825 1625 
L 2419 1625 
L 2419 4116 
z
M 2253 4666 
L 3047 4666 
L 3047 1625 
L 3713 1625 
L 3713 1100 
L 3047 1100 
L 3047 0 
L 2419 0 
L 2419 1100 
L 313 1100 
L 313 1709 
L 2253 4666 
z
" transform="scale(0.015625)"/>
       </defs>
       <use xlink:href="#DejaVuSans-31"/>
       <use xlink:href="#DejaVuSans-34" transform="translate(63.623047 0)"/>
       <use xlink:href="#DejaVuSans-30" transform="translate(127.246094 0)"/>
      </g>
     </g>
    </g>
    <g id="ytick_6">
     <g id="line2d_25">
      <path d="M 48.90125 21.558281 
L 553.96125 21.558281 
" clip-path="url(#p746bdc4afe)" style="fill: none; stroke: #b0b0b0; stroke-opacity: 0.3; stroke-width: 0.8; stroke-linecap: square"/>
     </g>
     <g id="line2d_26">
      <g>
       <use xlink:href="#m746ca69df7" x="48.90125" y="21.558281" style="stroke: #000000; stroke-width: 0.8"/>
      </g>
     </g>
     <g id="text_14">
      <!-- 160 -->
      <g transform="translate(22.81375 25.3575) scale(0.1 -0.1)">
       <use xlink:href="#DejaVuSans-31"/>
       <use xlink:href="#DejaVuSans-36" transform="translate(63.623047 0)"/>
       <use xlink:href="#DejaVuSans-30" transform="translate(127.246094 0)"/>
      </g>
     </g>
    </g>
    <g id="text_15">
     <!-- Steps to completion -->
     <g transform="translate(16.318125 226.518594) rotate(-90) scale(0.12 -0.12)">
      <defs>
       <path id="DejaVuSans-53" d="M 3425 4513 
L 3425 3897 
Q 3066 4069 2747 4153 
Q 2428 4238 2131 4238 
Q 1616 4238 1336 4038 
Q 1056 3838 1056 3469 
Q 1056 3159 1242 3001 
Q 1428 2844 1947 2747 
L 2328 2669 
Q 3034 2534 3370 2195 
Q 3706 1856 3706 1288 
Q 3706 609 3251 259 
Q 2797 -91 1919 -91 
Q 1588 -91 1214 -16 
Q 841 59 441 206 
L 441 856 
Q 825 641 1194 531 
Q 1563 422 1919 422 
Q 2459 422 2753 634 
Q 3047 847 3047 1241 
Q 3047 1584 2836 1778 
Q 2625 1972 2144 2069 
L 1759 2144 
Q 1053 2284 737 2584 
Q 422 2884 422 3419 
Q 422 4038 858 4394 
Q 1294 4750 2059 4750 
Q 2388 4750 2728 4690 
Q 3069 4631 3425 4513 
z
" transform="scale(0.015625)"/>
       <path id="DejaVuSans-74" d="M 1172 4494 
L 1172 3500 
L 2356 3500 
L 2356 3053 
L 1172 3053 
L 1172 1153 
Q 1172 725 1289 603 
Q 1406 481 1766 481 
L 2356 481 
L 2356 0 
L 1766 0 
Q 1100 0 847 248 
Q 594 497 594 1153 
L 594 3053 
L 172 3053 
L 172 3500 
L 594 3500 
L 594 4494 
L 1172 4494 
z
" transform="scale(0.015625)"/>
       <path id="DejaVuSans-20" transform="scale(0.015625)"/>
       <path id="DejaVuSans-63" d="M 3122 3366 
L 3122 2828 
Q 2878 2963 2633 3030 
Q 2388 3097 2138 3097 
Q 1578 3097 1268 2742 
Q 959 2388 959 1747 
Q 959 1106 1268 751 
Q 1578 397 2138 397 
Q 2388 397 2633 464 
Q 2878 531 3122 666 
L 3122 134 
Q 2881 22 2623 -34 
Q 2366 -91 2075 -91 
Q 1284 -91 818 406 
Q 353 903 353 1747 
Q 353 2603 823 3093 
Q 1294 3584 2113 3584 
Q 2378 3584 2631 3529 
Q 2884 3475 3122 3366 
z
" transform="scale(0.015625)"/>
       <path id="DejaVuSans-6d" d="M 3328 2828 
Q 3544 3216 3844 3400 
Q 4144 3584 4550 3584 
Q 5097 3584 5394 3201 
Q 5691 2819 5691 2113 
L 5691 0 
L 5113 0 
L 5113 2094 
Q 5113 2597 4934 2840 
Q 4756 3084 4391 3084 
Q 3944 3084 3684 2787 
Q 3425 2491 3425 1978 
L 3425 0 
L 2847 0 
L 2847 2094 
Q 2847 2600 2669 2842 
Q 2491 3084 2119 3084 
Q 1678 3084 1418 2786 
Q 1159 2488 1159 1978 
L 1159 0 
L 581 0 
L 581 3500 
L 1159 3500 
L 1159 2956 
Q 1356 3278 1631 3431 
Q 1906 3584 2284 3584 
Q 2666 3584 2933 3390 
Q 3200 3197 3328 2828 
z
" transform="scale(0.015625)"/>
       <path id="DejaVuSans-6c" d="M 603 4863 
L 1178 4863 
L 1178 0 
L 603 0 
L 603 4863 
z
" transform="scale(0.015625)"/>
       <path id="DejaVuSans-6e" d="M 3513 2113 
L 3513 0 
L 2938 0 
L 2938 2094 
Q 2938 2591 2744 2837 
Q 2550 3084 2163 3084 
Q 1697 3084 1428 2787 
Q 1159 2491 1159 1978 
L 1159 0 
L 581 0 
L 581 3500 
L 1159 3500 
L 1159 2956 
Q 1366 3272 1645 3428 
Q 1925 3584 2291 3584 
Q 2894 3584 3203 3211 
Q 3513 2838 3513 2113 
z
" transform="scale(0.015625)"/>
      </defs>
      <use xlink:href="#DejaVuSans-53"/>
      <use xlink:href="#DejaVuSans-74" transform="translate(63.476562 0)"/>
      <use xlink:href="#DejaVuSans-65" transform="translate(102.685547 0)"/>
      <use xlink:href="#DejaVuSans-70" transform="translate(164.208984 0)"/>
      <use xlink:href="#DejaVuSans-73" transform="translate(227.685547 0)"/>
      <use xlink:href="#DejaVuSans-20" transform="translate(279.785156 0)"/>
      <use xlink:href="#DejaVuSans-74" transform="translate(311.572266 0)"/>
      <use xlink:href="#DejaVuSans-6f" transform="translate(350.78125 0)"/>
      <use xlink:href="#DejaVuSans-20" transform="translate(411.962891 0)"/>
      <use xlink:href="#DejaVuSans-63" transform="translate(443.75 0)"/>
      <use xlink:href="#DejaVuSans-6f" transform="translate(498.730469 0)"/>
      <use xlink:href="#DejaVuSans-6d" transform="translate(559.912109 0)"/>
      <use xlink:href="#DejaVuSans-70" transform="translate(657.324219 0)"/>
      <use xlink:href="#DejaVuSans-6c" transform="translate(720.800781 0)"/>
      <use xlink:href="#DejaVuSans-65" transform="translate(748.583984 0)"/>
      <use xlink:href="#DejaVuSans-74" transform="translate(810.107422 0)"/>
      <use xlink:href="#DejaVuSans-69" transform="translate(849.316406 0)"/>
      <use xlink:href="#DejaVuSans-6f" transform="translate(877.099609 0)"/>
      <use xlink:href="#DejaVuSans-6e" transform="translate(938.28125 0)"/>
     </g>
    </g>
   </g>
   <g id="line2d_27">
    <path d="M 48.90125 215.256796 
L 63.755956 246.160262 
L 78.610662 254.989824 
L 93.465368 260.5083 
L 108.320074 261.060148 
L 123.174779 262.715691 
L 138.029485 261.611996 
L 152.884191 264.371234 
L 167.738897 268.234167 
L 182.593603 268.786015 
L 197.448309 270.993405 
L 212.303015 270.993405 
L 227.157721 273.752643 
L 242.012426 272.648948 
L 256.867132 271.545253 
L 271.721838 272.0971 
L 286.576544 273.200796 
L 301.43125 274.304491 
L 316.285956 275.960034 
L 331.140662 274.304491 
L 345.995368 278.167424 
L 360.850074 277.063729 
L 375.704779 277.063729 
L 390.559485 276.511881 
L 405.414191 277.615576 
L 420.268897 278.719272 
L 435.123603 276.511881 
L 449.978309 278.167424 
L 464.833015 280.926662 
L 479.687721 277.615576 
L 494.542426 279.822967 
L 509.397132 280.926662 
L 524.251838 278.719272 
L 539.106544 280.926662 
L 553.96125 282.030357 
" clip-path="url(#p746bdc4afe)" style="fill: none; stroke-dasharray: 6.66,2.88; stroke-dashoffset: 0; stroke: #4878cf; stroke-width: 1.8"/>
   </g>
   <g id="line2d_28">
    <path d="M 48.90125 59.635767 
L 63.755956 67.913481 
L 78.610662 61.843157 
L 93.465368 98.2651 
L 108.320074 108.750205 
L 123.174779 124.201938 
L 138.029485 133.583348 
L 152.884191 157.864643 
L 167.738897 176.627462 
L 182.593603 181.042243 
L 197.448309 195.390281 
L 212.303015 207.530929 
L 227.157721 218.016034 
L 242.012426 233.467767 
L 256.867132 238.986243 
L 271.721838 248.367653 
L 286.576544 246.160262 
L 301.43125 258.30091 
L 316.285956 258.30091 
L 331.140662 265.474929 
L 345.995368 272.648948 
L 360.850074 276.511881 
L 375.704779 280.374815 
L 390.559485 281.47851 
L 405.414191 285.341443 
L 420.268897 287.548834 
L 435.123603 285.341443 
L 449.978309 288.100681 
L 464.833015 285.893291 
L 479.687721 286.445138 
L 494.542426 286.996986 
L 509.397132 290.308072 
L 524.251838 288.652529 
L 539.106544 286.445138 
L 553.96125 289.756224 
" clip-path="url(#p746bdc4afe)" style="fill: none; stroke-dasharray: 11.52,2.88,1.8,2.88; stroke-dashoffset: 0; stroke: #d65f5f; stroke-width: 1.8"/>
   </g>
   <g id="line2d_29">
    <path d="M 48.90125 215.256796 
L 63.755956 246.160262 
L 78.610662 254.989824 
L 93.465368 260.5083 
L 108.320074 261.060148 
L 123.174779 280.926662 
L 138.029485 279.271119 
L 152.884191 280.926662 
L 167.738897 282.582205 
L 182.593603 280.374815 
L 197.448309 280.926662 
L 212.303015 282.030357 
L 227.157721 281.47851 
L 242.012426 283.6859 
L 256.867132 286.996986 
L 271.721838 284.237748 
L 286.576544 285.341443 
L 301.43125 287.548834 
L 316.285956 284.789596 
L 331.140662 286.445138 
L 345.995368 286.445138 
L 360.850074 286.996986 
L 375.704779 285.893291 
L 390.559485 288.100681 
L 405.414191 289.204376 
L 420.268897 289.756224 
L 435.123603 290.308072 
L 449.978309 288.652529 
L 464.833015 288.100681 
L 479.687721 289.756224 
L 494.542426 290.308072 
L 509.397132 290.308072 
L 524.251838 290.859919 
L 539.106544 291.411767 
L 553.96125 290.308072 
" clip-path="url(#p746bdc4afe)" style="fill: none; stroke: #2ca02c; stroke-width: 2.2; stroke-linecap: square"/>
   </g>
   <g id="line2d_30">
    <path d="M 48.90125 215.256796 
L 63.755956 246.160262 
L 78.610662 254.989824 
L 93.465368 260.5083 
L 108.320074 261.060148 
L 123.174779 262.715691 
L 138.029485 261.611996 
L 152.884191 264.371234 
L 167.738897 278.719272 
L 182.593603 280.374815 
L 197.448309 277.615576 
L 212.303015 279.822967 
L 227.157721 280.374815 
L 242.012426 283.6859 
L 256.867132 283.6859 
L 271.721838 282.030357 
L 286.576544 282.030357 
L 301.43125 286.445138 
L 316.285956 285.341443 
L 331.140662 285.341443 
L 345.995368 285.893291 
L 360.850074 285.341443 
L 375.704779 285.341443 
L 390.559485 285.893291 
L 405.414191 285.893291 
L 420.268897 285.341443 
L 435.123603 287.548834 
L 449.978309 286.996986 
L 464.833015 288.100681 
L 479.687721 285.893291 
L 494.542426 288.100681 
L 509.397132 288.100681 
L 524.251838 290.308072 
L 539.106544 289.756224 
L 553.96125 286.996986 
" clip-path="url(#p746bdc4afe)" style="fill: none; stroke: #ff7f0e; stroke-width: 1.8; stroke-linecap: square"/>
   </g>
   <g id="line2d_31">
    <path d="M 48.90125 215.256796 
L 63.755956 246.160262 
L 78.610662 254.989824 
L 93.465368 260.5083 
L 108.320074 261.060148 
L 123.174779 262.715691 
L 138.029485 261.611996 
L 152.884191 264.371234 
L 167.738897 268.234167 
L 182.593603 268.786015 
L 197.448309 270.993405 
L 212.303015 270.993405 
L 227.157721 277.615576 
L 242.012426 278.719272 
L 256.867132 279.822967 
L 271.721838 282.030357 
L 286.576544 280.374815 
L 301.43125 278.719272 
L 316.285956 285.893291 
L 331.140662 282.582205 
L 345.995368 282.582205 
L 360.850074 286.445138 
L 375.704779 283.6859 
L 390.559485 283.6859 
L 405.414191 284.237748 
L 420.268897 285.341443 
L 435.123603 285.893291 
L 449.978309 286.996986 
L 464.833015 287.548834 
L 479.687721 284.237748 
L 494.542426 286.996986 
L 509.397132 286.445138 
L 524.251838 285.893291 
L 539.106544 288.652529 
L 553.96125 288.100681 
" clip-path="url(#p746bdc4afe)" style="fill: none; stroke: #9467bd; stroke-width: 1.4; stroke-linecap: square"/>
   </g>
   <g id="line2d_32">
    <path d="M 108.320074 311.278281 
L 108.320074 21.558281 
" clip-path="url(#p746bdc4afe)" style="fill: none; stroke-dasharray: 0.9,1.485; stroke-dashoffset: 0; stroke: #2ca02c; stroke-opacity: 0.55; stroke-width: 0.9"/>
   </g>
   <g id="line2d_33">
    <path d="M 152.884191 311.278281 
L 152.884191 21.558281 
" clip-path="url(#p746bdc4afe)" style="fill: none; stroke-dasharray: 0.9,1.485; stroke-dashoffset: 0; stroke: #ff7f0e; stroke-opacity: 0.55; stroke-width: 0.9"/>
   </g>
   <g id="line2d_34">
    <path d="M 212.303015 311.278281 
L 212.303015 21.558281 
" clip-path="url(#p746bdc4afe)" style="fill: none; stroke-dasharray: 0.9,1.485; stroke-dashoffset: 0; stroke: #9467bd; stroke-opacity: 0.55; stroke-width: 0.9"/>
   </g>
   <g id="patch_3">
    <path d="M 48.90125 311.278281 
L 48.90125 21.558281 
" style="fill: none; stroke: #000000; stroke-width: 0.8; stroke-linejoin: miter; stroke-linecap: square"/>
   </g>
   <g id="patch_4">
    <path d="M 553.96125 311.278281 
L 553.96125 21.558281 
" style="fill: none; stroke: #000000; stroke-width: 0.8; stroke-linejoin: miter; stroke-linecap: square"/>
   </g>
   <g id="patch_5">
    <path d="M 48.90125 311.278281 
L 553.96125 311.278281 
" style="fill: none; stroke: #000000; stroke-width: 0.8; stroke-linejoin: miter; stroke-linecap: square"/>
   </g>
   <g id="patch_6">
    <path d="M 48.90125 21.558281 
L 553.96125 21.558281 
" style="fill: none; stroke: #000000; stroke-width: 0.8; stroke-linejoin: miter; stroke-linecap: square"/>
   </g>
   <g id="text_16">
    <!-- k=5 -->
    <g style="fill: #2ca02c" transform="translate(110.548279 60.367967) scale(0.075 -0.075)">
     <defs>
      <path id="DejaVuSans-6b" d="M 581 4863 
L 1159 4863 
L 1159 1991 
L 2875 3500 
L 3609 3500 
L 1753 1863 
L 3688 0 
L 2938 0 
L 1159 1709 
L 1159 0 
L 581 0 
L 581 4863 
z
" transform="scale(0.015625)"/>
      <path id="DejaVuSans-3d" d="M 678 2906 
L 4684 2906 
L 4684 2381 
L 678 2381 
L 678 2906 
z
M 678 1631 
L 4684 1631 
L 4684 1100 
L 678 1100 
L 678 1631 
z
" transform="scale(0.015625)"/>
     </defs>
     <use xlink:href="#DejaVuSans-6b"/>
     <use xlink:href="#DejaVuSans-3d" transform="translate(57.910156 0)"/>
     <use xlink:href="#DejaVuSans-35" transform="translate(141.699219 0)"/>
    </g>
   </g>
   <g id="text_17">
    <!-- k=8 -->
    <g style="fill: #ff7f0e" transform="translate(155.112397 60.367967) scale(0.075 -0.075)">
     <use xlink:href="#DejaVuSans-6b"/>
     <use xlink:href="#DejaVuSans-3d" transform="translate(57.910156 0)"/>
     <use xlink:href="#DejaVuSans-38" transform="translate(141.699219 0)"/>
    </g>
   </g>
   <g id="text_18">
    <!-- k=12 -->
    <g style="fill: #9467bd" transform="translate(214.531221 60.367967) scale(0.075 -0.075)">
     <use xlink:href="#DejaVuSans-6b"/>
     <use xlink:href="#DejaVuSans-3d" transform="translate(57.910156 0)"/>
     <use xlink:href="#DejaVuSans-31" transform="translate(141.699219 0)"/>
     <use xlink:href="#DejaVuSans-32" transform="translate(205.322266 0)"/>
    </g>
   </g>
   <g id="text_19">
    <!-- Figure 9 — Probe-Then-Fit warm-start ablation (n=27, d=3) -->
    <g transform="translate(138.963828 15.558281) scale(0.11 -0.11)">
     <defs>
      <path id="DejaVuSans-46" d="M 628 4666 
L 3309 4666 
L 3309 4134 
L 1259 4134 
L 1259 2759 
L 3109 2759 
L 3109 2228 
L 1259 2228 
L 1259 0 
L 628 0 
L 628 4666 
z
" transform="scale(0.015625)"/>
      <path id="DejaVuSans-67" d="M 2906 1791 
Q 2906 2416 2648 2759 
Q 2391 3103 1925 3103 
Q 1463 3103 1205 2759 
Q 947 2416 947 1791 
Q 947 1169 1205 825 
Q 1463 481 1925 481 
Q 2391 481 2648 825 
Q 2906 1169 2906 1791 
z
M 3481 434 
Q 3481 -459 3084 -895 
Q 2688 -1331 1869 -1331 
Q 1566 -1331 1297 -1286 
Q 1028 -1241 775 -1147 
L 775 -588 
Q 1028 -725 1275 -790 
Q 1522 -856 1778 -856 
Q 2344 -856 2625 -561 
Q 2906 -266 2906 331 
L 2906 616 
Q 2728 306 2450 153 
Q 2172 0 1784 0 
Q 1141 0 747 490 
Q 353 981 353 1791 
Q 353 2603 747 3093 
Q 1141 3584 1784 3584 
Q 2172 3584 2450 3431 
Q 2728 3278 2906 2969 
L 2906 3500 
L 3481 3500 
L 3481 434 
z
" transform="scale(0.015625)"/>
      <path id="DejaVuSans-75" d="M 544 1381 
L 544 3500 
L 1119 3500 
L 1119 1403 
Q 1119 906 1312 657 
Q 1506 409 1894 409 
Q 2359 409 2629 706 
Q 2900 1003 2900 1516 
L 2900 3500 
L 3475 3500 
L 3475 0 
L 2900 0 
L 2900 538 
Q 2691 219 2414 64 
Q 2138 -91 1772 -91 
Q 1169 -91 856 284 
Q 544 659 544 1381 
z
M 1991 3584 
L 1991 3584 
z
" transform="scale(0.015625)"/>
      <path id="DejaVuSans-72" d="M 2631 2963 
Q 2534 3019 2420 3045 
Q 2306 3072 2169 3072 
Q 1681 3072 1420 2755 
Q 1159 2438 1159 1844 
L 1159 0 
L 581 0 
L 581 3500 
L 1159 3500 
L 1159 2956 
Q 1341 3275 1631 3429 
Q 1922 3584 2338 3584 
Q 2397 3584 2469 3576 
Q 2541 3569 2628 3553 
L 2631 2963 
z
" transform="scale(0.015625)"/>
      <path id="DejaVuSans-39" d="M 703 97 
L 703 672 
Q 941 559 1184 500 
Q 1428 441 1663 441 
Q 2288 441 2617 861 
Q 2947 1281 2994 2138 
Q 2813 1869 2534 1725 
Q 2256 1581 1919 1581 
Q 1219 1581 811 2004 
Q 403 2428 403 3163 
Q 403 3881 828 4315 
Q 1253 4750 1959 4750 
Q 2769 4750 3195 4129 
Q 3622 3509 3622 2328 
Q 3622 1225 3098 567 
Q 2575 -91 1691 -91 
Q 1453 -91 1209 -44 
Q 966 3 703 97 
z
M 1959 2075 
Q 2384 2075 2632 2365 
Q 2881 2656 2881 3163 
Q 2881 3666 2632 3958 
Q 2384 4250 1959 4250 
Q 1534 4250 1286 3958 
Q 1038 3666 1038 3163 
Q 1038 2656 1286 2365 
Q 1534 2075 1959 2075 
z
" transform="scale(0.015625)"/>
      <path id="DejaVuSans-2014" d="M 313 1978 
L 6088 1978 
L 6088 1528 
L 313 1528 
L 313 1978 
z
" transform="scale(0.015625)"/>
      <path id="DejaVuSans-50" d="M 1259 4147 
L 1259 2394 
L 2053 2394 
Q 2494 2394 2734 2622 
Q 2975 2850 2975 3272 
Q 2975 3691 2734 3919 
Q 2494 4147 2053 4147 
L 1259 4147 
z
M 628 4666 
L 2053 4666 
Q 2838 4666 3239 4311 
Q 3641 3956 3641 3272 
Q 3641 2581 3239 2228 
Q 2838 1875 2053 1875 
L 1259 1875 
L 1259 0 
L 628 0 
L 628 4666 
z
" transform="scale(0.015625)"/>
      <path id="DejaVuSans-62" d="M 3116 1747 
Q 3116 2381 2855 2742 
Q 2594 3103 2138 3103 
Q 1681 3103 1420 2742 
Q 1159 2381 1159 1747 
Q 1159 1113 1420 752 
Q 1681 391 2138 391 
Q 2594 391 2855 752 
Q 3116 1113 3116 1747 
z
M 1159 2969 
Q 1341 3281 1617 3432 
Q 1894 3584 2278 3584 
Q 2916 3584 3314 3078 
Q 3713 2572 3713 1747 
Q 3713 922 3314 415 
Q 2916 -91 2278 -91 
Q 1894 -91 1617 61 
Q 1341 213 1159 525 
L 1159 0 
L 581 0 
L 581 4863 
L 1159 4863 
L 1159 2969 
z
" transform="scale(0.015625)"/>
      <path id="DejaVuSans-2d" d="M 313 2009 
L 1997 2009 
L 1997 1497 
L 313 1497 
L 313 2009 
z
" transform="scale(0.015625)"/>
      <path id="DejaVuSans-54" d="M -19 4666 
L 3928 4666 
L 3928 4134 
L 2272 4134 
L 2272 0 
L 1638 0 
L 1638 4134 
L -19 4134 
L -19 4666 
z
" transform="scale(0.015625)"/>
      <path id="DejaVuSans-68" d="M 3513 2113 
L 3513 0 
L 2938 0 
L 2938 2094 
Q 2938 2591 2744 2837 
Q 2550 3084 2163 3084 
Q 1697 3084 1428 2787 
Q 1159 2491 1159 1978 
L 1159 0 
L 581 0 
L 581 4863 
L 1159 4863 
L 1159 2956 
Q 1366 3272 1645 3428 
Q 1925 3584 2291 3584 
Q 2894 3584 3203 3211 
Q 3513 2838 3513 2113 
z
" transform="scale(0.015625)"/>
      <path id="DejaVuSans-77" d="M 269 3500 
L 844 3500 
L 1563 769 
L 2278 3500 
L 2956 3500 
L 3675 769 
L 4391 3500 
L 4966 3500 
L 4050 0 
L 3372 0 
L 2619 2869 
L 1863 0 
L 1184 0 
L 269 3500 
z
" transform="scale(0.015625)"/>
      <path id="DejaVuSans-61" d="M 2194 1759 
Q 1497 1759 1228 1600 
Q 959 1441 959 1056 
Q 959 750 1161 570 
Q 1363 391 1709 391 
Q 2188 391 2477 730 
Q 2766 1069 2766 1631 
L 2766 1759 
L 2194 1759 
z
M 3341 1997 
L 3341 0 
L 2766 0 
L 2766 531 
Q 2569 213 2275 61 
Q 1981 -91 1556 -91 
Q 1019 -91 701 211 
Q 384 513 384 1019 
Q 384 1609 779 1909 
Q 1175 2209 1959 2209 
L 2766 2209 
L 2766 2266 
Q 2766 2663 2505 2880 
Q 2244 3097 1772 3097 
Q 1472 3097 1187 3025 
Q 903 2953 641 2809 
L 641 3341 
Q 956 3463 1253 3523 
Q 1550 3584 1831 3584 
Q 2591 3584 2966 3190 
Q 3341 2797 3341 1997 
z
" transform="scale(0.015625)"/>
      <path id="DejaVuSans-28" d="M 1984 4856 
Q 1566 4138 1362 3434 
Q 1159 2731 1159 2009 
Q 1159 1288 1364 580 
Q 1569 -128 1984 -844 
L 1484 -844 
Q 1016 -109 783 600 
Q 550 1309 550 2009 
Q 550 2706 781 3412 
Q 1013 4119 1484 4856 
L 1984 4856 
z
" transform="scale(0.015625)"/>
      <path id="DejaVuSans-37" d="M 525 4666 
L 3525 4666 
L 3525 4397 
L 1831 0 
L 1172 0 
L 2766 4134 
L 525 4134 
L 525 4666 
z
" transform="scale(0.015625)"/>
      <path id="DejaVuSans-2c" d="M 750 794 
L 1409 794 
L 1409 256 
L 897 -744 
L 494 -744 
L 750 256 
L 750 794 
z
" transform="scale(0.015625)"/>
      <path id="DejaVuSans-29" d="M 513 4856 
L 1013 4856 
Q 1481 4119 1714 3412 
Q 1947 2706 1947 2009 
Q 1947 1309 1714 600 
Q 1481 -109 1013 -844 
L 513 -844 
Q 928 -128 1133 580 
Q 1338 1288 1338 2009 
Q 1338 2731 1133 3434 
Q 928 4138 513 4856 
z
" transform="scale(0.015625)"/>
     </defs>
     <use xlink:href="#DejaVuSans-46"/>
     <use xlink:href="#DejaVuSans-69" transform="translate(50.269531 0)"/>
     <use xlink:href="#DejaVuSans-67" transform="translate(78.052734 0)"/>
     <use xlink:href="#DejaVuSans-75" transform="translate(141.529297 0)"/>
     <use xlink:href="#DejaVuSans-72" transform="translate(204.908203 0)"/>
     <use xlink:href="#DejaVuSans-65" transform="translate(243.771484 0)"/>
     <use xlink:href="#DejaVuSans-20" transform="translate(305.294922 0)"/>
     <use xlink:href="#DejaVuSans-39" transform="translate(337.082031 0)"/>
     <use xlink:href="#DejaVuSans-20" transform="translate(400.705078 0)"/>
     <use xlink:href="#DejaVuSans-2014" transform="translate(432.492188 0)"/>
     <use xlink:href="#DejaVuSans-20" transform="translate(532.492188 0)"/>
     <use xlink:href="#DejaVuSans-50" transform="translate(564.279297 0)"/>
     <use xlink:href="#DejaVuSans-72" transform="translate(622.832031 0)"/>
     <use xlink:href="#DejaVuSans-6f" transform="translate(661.695312 0)"/>
     <use xlink:href="#DejaVuSans-62" transform="translate(722.876953 0)"/>
     <use xlink:href="#DejaVuSans-65" transform="translate(786.353516 0)"/>
     <use xlink:href="#DejaVuSans-2d" transform="translate(847.876953 0)"/>
     <use xlink:href="#DejaVuSans-54" transform="translate(874.835938 0)"/>
     <use xlink:href="#DejaVuSans-68" transform="translate(935.919922 0)"/>
     <use xlink:href="#DejaVuSans-65" transform="translate(999.298828 0)"/>
     <use xlink:href="#DejaVuSans-6e" transform="translate(1060.822266 0)"/>
     <use xlink:href="#DejaVuSans-2d" transform="translate(1124.201172 0)"/>
     <use xlink:href="#DejaVuSans-46" transform="translate(1160.285156 0)"/>
     <use xlink:href="#DejaVuSans-69" transform="translate(1210.554688 0)"/>
     <use xlink:href="#DejaVuSans-74" transform="translate(1238.337891 0)"/>
     <use xlink:href="#DejaVuSans-20" transform="translate(1277.546875 0)"/>
     <use xlink:href="#DejaVuSans-77" transform="translate(1309.333984 0)"/>
     <use xlink:href="#DejaVuSans-61" transform="translate(1391.121094 0)"/>
     <use xlink:href="#DejaVuSans-72" transform="translate(1452.400391 0)"/>
     <use xlink:href="#DejaVuSans-6d" transform="translate(1491.763672 0)"/>
     <use xlink:href="#DejaVuSans-2d" transform="translate(1589.175781 0)"/>
     <use xlink:href="#DejaVuSans-73" transform="translate(1625.259766 0)"/>
     <use xlink:href="#DejaVuSans-74" transform="translate(1677.359375 0)"/>
     <use xlink:href="#DejaVuSans-61" transform="translate(1716.568359 0)"/>
     <use xlink:href="#DejaVuSans-72" transform="translate(1777.847656 0)"/>
     <use xlink:href="#DejaVuSans-74" transform="translate(1818.960938 0)"/>
     <use xlink:href="#DejaVuSans-20" transform="translate(1858.169922 0)"/>
     <use xlink:href="#DejaVuSans-61" transform="translate(1889.957031 0)"/>
     <use xlink:href="#DejaVuSans-62" transform="translate(1951.236328 0)"/>
     <use xlink:href="#DejaVuSans-6c" transform="translate(2014.712891 0)"/>
     <use xlink:href="#DejaVuSans-61" transform="translate(2042.496094 0)"/>
     <use xlink:href="#DejaVuSans-74" transform="translate(2103.775391 0)"/>
     <use xlink:href="#DejaVuSans-69" transform="translate(2142.984375 0)"/>
     <use xlink:href="#DejaVuSans-6f" transform="translate(2170.767578 0)"/>
     <use xlink:href="#DejaVuSans-6e" transform="translate(2231.949219 0)"/>
     <use xlink:href="#DejaVuSans-20" transform="translate(2295.328125 0)"/>
     <use xlink:href="#DejaVuSans-28" transform="translate(2327.115234 0)"/>
     <use xlink:href="#DejaVuSans-6e" transform="translate(2366.128906 0)"/>
     <use xlink:href="#DejaVuSans-3d" transform="translate(2429.507812 0)"/>
     <use xlink:href="#DejaVuSans-32" transform="translate(2513.296875 0)"/>
     <use xlink:href="#DejaVuSans-37" transform="translate(2576.919922 0)"/>
     <use xlink:href="#DejaVuSans-2c" transform="translate(2640.542969 0)"/>
     <use xlink:href="#DejaVuSans-20" transform="translate(2672.330078 0)"/>
     <use xlink:href="#DejaVuSans-64" transform="translate(2704.117188 0)"/>
     <use xlink:href="#DejaVuSans-3d" transform="translate(2767.59375 0)"/>
     <use xlink:href="#DejaVuSans-33" transform="translate(2851.382812 0)"/>
     <use xlink:href="#DejaVuSans-29" transform="translate(2915.005859 0)"/>
    </g>
   </g>
   <g id="legend_1">
    <g id="patch_7">
     <path d="M 462.053437 102.948906 
L 546.96125 102.948906 
Q 548.96125 102.948906 548.96125 100.948906 
L 548.96125 28.558281 
Q 548.96125 26.558281 546.96125 26.558281 
L 462.053437 26.558281 
Q 460.053437 26.558281 460.053437 28.558281 
L 460.053437 100.948906 
Q 460.053437 102.948906 462.053437 102.948906 
z
" style="fill: #ffffff; opacity: 0.8; stroke: #cccccc; stroke-linejoin: miter"/>
    </g>
    <g id="line2d_35">
     <path d="M 464.053437 34.656719 
L 474.053437 34.656719 
L 484.053437 34.656719 
" style="fill: none; stroke-dasharray: 6.66,2.88; stroke-dashoffset: 0; stroke: #4878cf; stroke-width: 1.8"/>
    </g>
    <g id="text_20">
     <!-- UCB-Indep -->
     <g transform="translate(492.053437 38.156719) scale(0.1 -0.1)">
      <defs>
       <path id="DejaVuSans-55" d="M 556 4666 
L 1191 4666 
L 1191 1831 
Q 1191 1081 1462 751 
Q 1734 422 2344 422 
Q 2950 422 3222 751 
Q 3494 1081 3494 1831 
L 3494 4666 
L 4128 4666 
L 4128 1753 
Q 4128 841 3676 375 
Q 3225 -91 2344 -91 
Q 1459 -91 1007 375 
Q 556 841 556 1753 
L 556 4666 
z
" transform="scale(0.015625)"/>
       <path id="DejaVuSans-43" d="M 4122 4306 
L 4122 3641 
Q 3803 3938 3442 4084 
Q 3081 4231 2675 4231 
Q 1875 4231 1450 3742 
Q 1025 3253 1025 2328 
Q 1025 1406 1450 917 
Q 1875 428 2675 428 
Q 3081 428 3442 575 
Q 3803 722 4122 1019 
L 4122 359 
Q 3791 134 3420 21 
Q 3050 -91 2638 -91 
Q 1578 -91 968 557 
Q 359 1206 359 2328 
Q 359 3453 968 4101 
Q 1578 4750 2638 4750 
Q 3056 4750 3426 4639 
Q 3797 4528 4122 4306 
z
" transform="scale(0.015625)"/>
       <path id="DejaVuSans-42" d="M 1259 2228 
L 1259 519 
L 2272 519 
Q 2781 519 3026 730 
Q 3272 941 3272 1375 
Q 3272 1813 3026 2020 
Q 2781 2228 2272 2228 
L 1259 2228 
z
M 1259 4147 
L 1259 2741 
L 2194 2741 
Q 2656 2741 2882 2914 
Q 3109 3088 3109 3444 
Q 3109 3797 2882 3972 
Q 2656 4147 2194 4147 
L 1259 4147 
z
M 628 4666 
L 2241 4666 
Q 2963 4666 3353 4366 
Q 3744 4066 3744 3513 
Q 3744 3084 3544 2831 
Q 3344 2578 2956 2516 
Q 3422 2416 3680 2098 
Q 3938 1781 3938 1306 
Q 3938 681 3513 340 
Q 3088 0 2303 0 
L 628 0 
L 628 4666 
z
" transform="scale(0.015625)"/>
       <path id="DejaVuSans-49" d="M 628 4666 
L 1259 4666 
L 1259 0 
L 628 0 
L 628 4666 
z
" transform="scale(0.015625)"/>
      </defs>
      <use xlink:href="#DejaVuSans-55"/>
      <use xlink:href="#DejaVuSans-43" transform="translate(73.193359 0)"/>
      <use xlink:href="#DejaVuSans-42" transform="translate(143.017578 0)"/>
      <use xlink:href="#DejaVuSans-2d" transform="translate(211.621094 0)"/>
      <use xlink:href="#DejaVuSans-49" transform="translate(247.705078 0)"/>
      <use xlink:href="#DejaVuSans-6e" transform="translate(277.197266 0)"/>
      <use xlink:href="#DejaVuSans-64" transform="translate(340.576172 0)"/>
      <use xlink:href="#DejaVuSans-65" transform="translate(404.052734 0)"/>
      <use xlink:href="#DejaVuSans-70" transform="translate(465.576172 0)"/>
     </g>
    </g>
    <g id="line2d_36">
     <path d="M 464.053437 49.334844 
L 474.053437 49.334844 
L 484.053437 49.334844 
" style="fill: none; stroke-dasharray: 11.52,2.88,1.8,2.88; stroke-dashoffset: 0; stroke: #d65f5f; stroke-width: 1.8"/>
    </g>
    <g id="text_21">
     <!-- MF-CF -->
     <g transform="translate(492.053437 52.834844) scale(0.1 -0.1)">
      <defs>
       <path id="DejaVuSans-4d" d="M 628 4666 
L 1569 4666 
L 2759 1491 
L 3956 4666 
L 4897 4666 
L 4897 0 
L 4281 0 
L 4281 4097 
L 3078 897 
L 2444 897 
L 1241 4097 
L 1241 0 
L 628 0 
L 628 4666 
z
" transform="scale(0.015625)"/>
      </defs>
      <use xlink:href="#DejaVuSans-4d"/>
      <use xlink:href="#DejaVuSans-46" transform="translate(86.279297 0)"/>
      <use xlink:href="#DejaVuSans-2d" transform="translate(143.798828 0)"/>
      <use xlink:href="#DejaVuSans-43" transform="translate(179.882812 0)"/>
      <use xlink:href="#DejaVuSans-46" transform="translate(249.707031 0)"/>
     </g>
    </g>
    <g id="line2d_37">
     <path d="M 464.053437 64.012969 
L 474.053437 64.012969 
L 484.053437 64.012969 
" style="fill: none; stroke: #2ca02c; stroke-width: 2.2; stroke-linecap: square"/>
    </g>
    <g id="text_22">
     <!-- PTF k=5 -->
     <g transform="translate(492.053437 67.512969) scale(0.1 -0.1)">
      <use xlink:href="#DejaVuSans-50"/>
      <use xlink:href="#DejaVuSans-54" transform="translate(60.302734 0)"/>
      <use xlink:href="#DejaVuSans-46" transform="translate(121.386719 0)"/>
      <use xlink:href="#DejaVuSans-20" transform="translate(178.90625 0)"/>
      <use xlink:href="#DejaVuSans-6b" transform="translate(210.693359 0)"/>
      <use xlink:href="#DejaVuSans-3d" transform="translate(268.603516 0)"/>
      <use xlink:href="#DejaVuSans-35" transform="translate(352.392578 0)"/>
     </g>
    </g>
    <g id="line2d_38">
     <path d="M 464.053437 78.691094 
L 474.053437 78.691094 
L 484.053437 78.691094 
" style="fill: none; stroke: #ff7f0e; stroke-width: 1.8; stroke-linecap: square"/>
    </g>
    <g id="text_23">
     <!-- PTF k=8 -->
     <g transform="translate(492.053437 82.191094) scale(0.1 -0.1)">
      <use xlink:href="#DejaVuSans-50"/>
      <use xlink:href="#DejaVuSans-54" transform="translate(60.302734 0)"/>
      <use xlink:href="#DejaVuSans-46" transform="translate(121.386719 0)"/>
      <use xlink:href="#DejaVuSans-20" transform="translate(178.90625 0)"/>
      <use xlink:href="#DejaVuSans-6b" transform="translate(210.693359 0)"/>
      <use xlink:href="#DejaVuSans-3d" transform="translate(268.603516 0)"/>
      <use xlink:href="#DejaVuSans-38" transform="translate(352.392578 0)"/>
     </g>
    </g>
    <g id="line2d_39">
     <path d="M 464.053437 93.369219 
L 474.053437 93.369219 
L 484.053437 93.369219 
" style="fill: none; stroke: #9467bd; stroke-width: 1.4; stroke-linecap: square"/>
    </g>
    <g id="text_24">
     <!-- PTF k=12 -->
     <g transform="translate(492.053437 96.869219) scale(0.1 -0.1)">
      <use xlink:href="#DejaVuSans-50"/>
      <use xlink:href="#DejaVuSans-54" transform="translate(60.302734 0)"/>
      <use xlink:href="#DejaVuSans-46" transform="translate(121.386719 0)"/>
      <use xlink:href="#DejaVuSans-20" transform="translate(178.90625 0)"/>
      <use xlink:href="#DejaVuSans-6b" transform="translate(210.693359 0)"/>
      <use xlink:href="#DejaVuSans-3d" transform="translate(268.603516 0)"/>
      <use xlink:href="#DejaVuSans-31" transform="translate(352.392578 0)"/>
      <use xlink:href="#DejaVuSans-32" transform="translate(416.015625 0)"/>
     </g>
    </g>
   </g>
  </g>
 </g>
 <defs>
  <clipPath id="p746bdc4afe">
   <rect x="48.90125" y="21.558281" width="505.06" height="289.72"/>
  </clipPath>
 </defs>
</svg>
